<ttFont>
<head>
    <!-- Most of this table will be recalculated by the compiler -->
    <tableVersion value="1.0"/>
    <fontRevision value="2.202"/>
    <checkSumAdjustment value="0xb0cfaef1"/>
    <magicNumber value="0x5f0f3cf5"/>
    <flags value="00000000 00000011"/>
    <unitsPerEm value="1000"/>
    <created value="Thu Mar 17 16:28:26 2016"/>
    <modified value="Thu Mar 17 16:31:56 2016"/>
    <xMin value="-84"/>
    <yMin value="-230"/>
    <xMax value="892"/>
    <yMax value="990"/>
    <macStyle value="00000000 00000000"/>
    <lowestRecPPEM value="5"/>
    <fontDirectionHint value="2"/>
    <indexToLocFormat value="0"/>
    <glyphDataFormat value="0"/>
  </head>
    <TTGlyph name=".notdef" xMin="0" yMin="-200" xMax="500" yMax="800">
      <contour>
        <pt x="0" y="-200" on="1"/>
        <pt x="0" y="800" on="1"/>
        <pt x="500" y="800" on="1"/>
        <pt x="500" y="-200" on="1"/>
      </contour>
      <contour>
        <pt x="71" y="750" on="1"/>
        <pt x="250" y="360" on="1"/>
        <pt x="429" y="750" on="1"/>
      </contour>
      <contour>
        <pt x="450" y="676" on="1"/>
        <pt x="278" y="300" on="1"/>
        <pt x="450" y="-76" on="1"/>
      </contour>
      <contour>
        <pt x="50" y="-76" on="1"/>
        <pt x="222" y="300" on="1"/>
        <pt x="50" y="676" on="1"/>
      </contour>
      <contour>
        <pt x="250" y="240" on="1"/>
        <pt x="71" y="-150" on="1"/>
        <pt x="429" y="-150" on="1"/>
      </contour>
    </TTGlyph>
    <TTGlyph name="A" xMin="31" yMin="-6" xMax="557" yMax="694">
      <contour>
        <pt x="491" y="-6" on="1"/>
        <pt x="418" y="223" on="1"/>
        <pt x="170" y="223" on="1"/>
        <pt x="99" y="0" on="1"/>
        <pt x="31" y="0" on="1"/>
        <pt x="260" y="694" on="1"/>
        <pt x="330" y="694" on="1"/>
        <pt x="557" y="8" on="1"/>
      </contour>
      <contour>
        <pt x="293" y="611" on="1"/>
        <pt x="189" y="283" on="1"/>
        <pt x="398" y="283" on="1"/>
      </contour>
    </TTGlyph>
    <TTGlyph name="A.flat" xMin="31" yMin="0" xMax="559" yMax="694">
      <contour>
        <pt x="293" y="611" on="1"/>
        <pt x="189" y="283" on="1"/>
        <pt x="398" y="283" on="1"/>
      </contour>
      <contour>
        <pt x="489" y="0" on="1"/>
        <pt x="418" y="223" on="1"/>
        <pt x="170" y="223" on="1"/>
        <pt x="99" y="0" on="1"/>
        <pt x="31" y="0" on="1"/>
        <pt x="260" y="694" on="1"/>
        <pt x="330" y="694" on="1"/>
        <pt x="559" y="0" on="1"/>
      </contour>
    </TTGlyph>
    <TTGlyph name="AE" xMin="12" yMin="0" xMax="738" yMax="690">
      <contour>
        <pt x="404" y="283" on="1"/>
        <pt x="404" y="635" on="1"/>
        <pt x="226" y="283" on="1"/>
      </contour>
      <contour>
        <pt x="404" y="0" on="1"/>
        <pt x="404" y="224" on="1"/>
        <pt x="196" y="224" on="1"/>
        <pt x="83" y="0" on="1"/>
        <pt x="12" y="0" on="1"/>
        <pt x="365" y="690" on="1"/>
        <pt x="728" y="690" on="1"/>
        <pt x="728" y="629" on="1"/>
        <pt x="471" y="629" on="1"/>
        <pt x="471" y="392" on="1"/>
        <pt x="673" y="392" on="1"/>
        <pt x="683" y="331" on="1"/>
        <pt x="471" y="331" on="1"/>
        <pt x="471" y="61" on="1"/>
        <pt x="738" y="61" on="1"/>
        <pt x="738" y="0" on="1"/>
      </contour>
    </TTGlyph>
    <TTGlyph name="AE.flat" xMin="12" yMin="0" xMax="738" yMax="690">
      <contour>
        <pt x="404" y="283" on="1"/>
        <pt x="404" y="635" on="1"/>
        <pt x="225" y="283" on="1"/>
      </contour>
      <contour>
        <pt x="404" y="0" on="1"/>
        <pt x="404" y="224" on="1"/>
        <pt x="195" y="224" on="1"/>
        <pt x="83" y="0" on="1"/>
        <pt x="12" y="0" on="1"/>
        <pt x="365" y="690" on="1"/>
        <pt x="728" y="690" on="1"/>
        <pt x="728" y="629" on="1"/>
        <pt x="471" y="629" on="1"/>
        <pt x="471" y="392" on="1"/>
        <pt x="678" y="392" on="1"/>
        <pt x="678" y="331" on="1"/>
        <pt x="471" y="331" on="1"/>
        <pt x="471" y="61" on="1"/>
        <pt x="738" y="61" on="1"/>
        <pt x="738" y="0" on="1"/>
      </contour>
    </TTGlyph>
    <TTGlyph name="AEacute" xMin="12" yMin="0" xMax="738" yMax="886">
      <component glyphName="AE" x="0" y="0" flags="0x204"/>
      <component glyphName="acute" x="307" y="204" flags="0x4"/>
    </TTGlyph>
    <TTGlyph name="AEacute.flat" xMin="12" yMin="0" xMax="738" yMax="886">
      <component glyphName="AE.flat" x="0" y="0" flags="0x4"/>
      <component glyphName="acute" x="307" y="204" flags="0x4"/>
    </TTGlyph>
    <TTGlyph name="Aacute" xMin="31" yMin="-6" xMax="557" yMax="895">
      <component glyphName="A" x="0" y="0" flags="0x204"/>
      <component glyphName="acute" x="142" y="213" flags="0x4"/>
    </TTGlyph>
    <TTGlyph name="Aacute.flat" xMin="31" yMin="0" xMax="559" yMax="895">
      <component glyphName="A.flat" x="0" y="0" flags="0x204"/>
      <component glyphName="acute" x="142" y="213" flags="0x4"/>
    </TTGlyph>
    <TTGlyph name="Abreve" xMin="31" yMin="-6" xMax="557" yMax="872">
      <component glyphName="A" x="0" y="0" flags="0x204"/>
      <component glyphName="breve" x="90" y="213" flags="0x4"/>
    </TTGlyph>
    <TTGlyph name="Abreve.flat" xMin="31" yMin="0" xMax="559" yMax="872">
      <component glyphName="A.flat" x="0" y="0" flags="0x204"/>
      <component glyphName="breve" x="91" y="213" flags="0x4"/>
    </TTGlyph>
    <TTGlyph name="Acircumflex" xMin="31" yMin="-6" xMax="557" yMax="884">
      <component glyphName="A" x="0" y="0" flags="0x4"/>
      <component glyphName="circumflex" x="91" y="206" flags="0x4"/>
    </TTGlyph>
    <TTGlyph name="Acircumflex.flat" xMin="31" yMin="0" xMax="559" yMax="884">
      <component glyphName="A.flat" x="0" y="0" flags="0x4"/>
      <component glyphName="circumflex" x="92" y="206" flags="0x4"/>
    </TTGlyph>
    <TTGlyph name="Adieresis" xMin="31" yMin="-6" xMax="557" yMax="845">
      <component glyphName="A" x="0" y="0" flags="0x204"/>
      <component glyphName="dieresis" x="90" y="213" flags="0x4"/>
    </TTGlyph>
    <TTGlyph name="Adieresis.flat" xMin="31" yMin="0" xMax="559" yMax="845">
      <component glyphName="A.flat" x="0" y="0" flags="0x204"/>
      <component glyphName="dieresis" x="90" y="213" flags="0x4"/>
    </TTGlyph>
    <TTGlyph name="Agrave" xMin="31" yMin="-6" xMax="557" yMax="895">
      <component glyphName="A" x="0" y="0" flags="0x204"/>
      <component glyphName="grave" x="37" y="213" flags="0x4"/>
    </TTGlyph>
    <TTGlyph name="Agrave.flat" xMin="31" yMin="0" xMax="559" yMax="895">
      <component glyphName="A.flat" x="0" y="0" flags="0x204"/>
      <component glyphName="grave" x="38" y="213" flags="0x4"/>
    </TTGlyph>
    <TTGlyph name="Amacron" xMin="31" yMin="-6" xMax="557" yMax="833">
      <component glyphName="A" x="0" y="0" flags="0x204"/>
      <component glyphName="macron" x="90" y="213" flags="0x4"/>
    </TTGlyph>
    <TTGlyph name="Amacron.flat" xMin="31" yMin="0" xMax="559" yMax="833">
      <component glyphName="A.flat" x="0" y="0" flags="0x204"/>
      <component glyphName="macron" x="91" y="213" flags="0x4"/>
    </TTGlyph>
    <TTGlyph name="Aogonek" xMin="31" yMin="-170" xMax="568" yMax="694">
      <component glyphName="A" x="0" y="0" flags="0x204"/>
      <component glyphName="ogonek" x="302" y="0" flags="0x4"/>
    </TTGlyph>
    <TTGlyph name="Aogonek.flat" xMin="31" yMin="-170" xMax="571" yMax="694">
      <component glyphName="A.flat" x="0" y="0" flags="0x204"/>
      <component glyphName="ogonek" x="305" y="0" flags="0x4"/>
    </TTGlyph>
    <TTGlyph name="Aring" xMin="31" yMin="-6" xMax="558" yMax="823">
      <contour>
        <pt x="494" y="-6" on="1"/>
        <pt x="419" y="223" on="1"/>
        <pt x="170" y="223" on="1"/>
        <pt x="99" y="0" on="1"/>
        <pt x="31" y="0" on="1"/>
        <pt x="247" y="651" on="1"/>
        <pt x="226" y="662" on="0"/>
        <pt x="202" y="704" on="0"/>
        <pt x="202" y="730" on="1"/>
        <pt x="202" y="769" on="0"/>
        <pt x="255" y="823" on="0"/>
        <pt x="295" y="823" on="1"/>
        <pt x="335" y="823" on="0"/>
        <pt x="388" y="769" on="0"/>
        <pt x="388" y="730" on="1"/>
        <pt x="388" y="705" on="0"/>
        <pt x="364" y="663" on="0"/>
        <pt x="345" y="652" on="1"/>
        <pt x="558" y="8" on="1"/>
      </contour>
      <contour>
        <pt x="348" y="730" on="1"/>
        <pt x="348" y="754" on="0"/>
        <pt x="318" y="786" on="0"/>
        <pt x="295" y="786" on="1"/>
        <pt x="272" y="786" on="0"/>
        <pt x="242" y="754" on="0"/>
        <pt x="242" y="730" on="1"/>
        <pt x="242" y="706" on="0"/>
        <pt x="272" y="674" on="0"/>
        <pt x="295" y="674" on="1"/>
        <pt x="318" y="674" on="0"/>
        <pt x="348" y="706" on="0"/>
      </contour>
      <contour>
        <pt x="294" y="611" on="1"/>
        <pt x="189" y="283" on="1"/>
        <pt x="400" y="283" on="1"/>
      </contour>
    </TTGlyph>
    <TTGlyph name="Aring.flat" xMin="31" yMin="0" xMax="561" yMax="823">
      <contour>
        <pt x="348" y="730" on="1"/>
        <pt x="348" y="754" on="0"/>
        <pt x="318" y="786" on="0"/>
        <pt x="295" y="786" on="1"/>
        <pt x="272" y="786" on="0"/>
        <pt x="242" y="754" on="0"/>
        <pt x="242" y="730" on="1"/>
        <pt x="242" y="706" on="0"/>
        <pt x="272" y="674" on="0"/>
        <pt x="295" y="674" on="1"/>
        <pt x="318" y="674" on="0"/>
        <pt x="348" y="706" on="0"/>
      </contour>
      <contour>
        <pt x="294" y="611" on="1"/>
        <pt x="189" y="283" on="1"/>
        <pt x="400" y="283" on="1"/>
      </contour>
      <contour>
        <pt x="492" y="0" on="1"/>
        <pt x="419" y="223" on="1"/>
        <pt x="170" y="223" on="1"/>
        <pt x="99" y="0" on="1"/>
        <pt x="31" y="0" on="1"/>
        <pt x="247" y="651" on="1"/>
        <pt x="226" y="662" on="0"/>
        <pt x="202" y="704" on="0"/>
        <pt x="202" y="730" on="1"/>
        <pt x="202" y="769" on="0"/>
        <pt x="255" y="823" on="0"/>
        <pt x="295" y="823" on="1"/>
        <pt x="335" y="823" on="0"/>
        <pt x="388" y="769" on="0"/>
        <pt x="388" y="730" on="1"/>
        <pt x="388" y="705" on="0"/>
        <pt x="364" y="663" on="0"/>
        <pt x="345" y="652" on="1"/>
        <pt x="561" y="0" on="1"/>
      </contour>
    </TTGlyph>
    <TTGlyph name="Aringacute" xMin="31" yMin="-6" xMax="558" yMax="990">
      <component glyphName="acute" x="141" y="308" flags="0x4"/>
      <component glyphName="Aring" x="0" y="0" flags="0x204"/>
    </TTGlyph>
    <TTGlyph name="Aringacute.flat" xMin="31" yMin="0" xMax="561" yMax="990">
      <component glyphName="Aring.flat" x="0" y="0" flags="0x204"/>
      <component glyphName="acute" x="141" y="308" flags="0x4"/>
    </TTGlyph>
    <TTGlyph name="Atilde" xMin="31" yMin="-6" xMax="557" yMax="867">
      <component glyphName="A" x="0" y="0" flags="0x204"/>
      <component glyphName="tilde" x="93" y="213" flags="0x4"/>
    </TTGlyph>
    <TTGlyph name="Atilde.flat" xMin="31" yMin="0" xMax="559" yMax="867">
      <component glyphName="A.flat" x="0" y="0" flags="0x204"/>
      <component glyphName="tilde" x="94" y="213" flags="0x4"/>
    </TTGlyph>
    <TTGlyph name="B" xMin="77" yMin="0" xMax="456" yMax="690">
      <contour>
        <pt x="456" y="196" on="1"/>
        <pt x="456" y="101" on="0"/>
        <pt x="325" y="0" on="0"/>
        <pt x="221" y="0" on="1"/>
        <pt x="77" y="0" on="1"/>
        <pt x="77" y="690" on="1"/>
        <pt x="222" y="690" on="1"/>
        <pt x="323" y="690" on="0"/>
        <pt x="429" y="597" on="0"/>
        <pt x="429" y="520" on="1"/>
        <pt x="429" y="464" on="0"/>
        <pt x="369" y="386" on="0"/>
        <pt x="324" y="367" on="1"/>
        <pt x="384" y="349" on="0"/>
        <pt x="456" y="266" on="0"/>
      </contour>
      <contour>
        <pt x="362" y="515" on="1"/>
        <pt x="362" y="569" on="0"/>
        <pt x="292" y="631" on="0"/>
        <pt x="220" y="631" on="1"/>
        <pt x="143" y="631" on="1"/>
        <pt x="143" y="390" on="1"/>
        <pt x="217" y="390" on="1"/>
        <pt x="287" y="390" on="0"/>
        <pt x="362" y="463" on="0"/>
      </contour>
      <contour>
        <pt x="389" y="194" on="1"/>
        <pt x="389" y="263" on="0"/>
        <pt x="299" y="333" on="0"/>
        <pt x="220" y="333" on="1"/>
        <pt x="143" y="333" on="1"/>
        <pt x="143" y="59" on="1"/>
        <pt x="224" y="59" on="1"/>
        <pt x="302" y="59" on="0"/>
        <pt x="389" y="131" on="0"/>
      </contour>
    </TTGlyph>
    <TTGlyph name="C" xMin="48" yMin="-11" xMax="496" yMax="701">
      <contour>
        <pt x="496" y="49" on="1"/>
        <pt x="462" y="24" on="0"/>
        <pt x="371" y="-11" on="0"/>
        <pt x="319" y="-11" on="1"/>
        <pt x="257" y="-11" on="0"/>
        <pt x="156" y="39" on="0"/>
        <pt x="86" y="132" on="0"/>
        <pt x="48" y="263" on="0"/>
        <pt x="48" y="344" on="1"/>
        <pt x="48" y="423" on="0"/>
        <pt x="87" y="556" on="0"/>
        <pt x="159" y="649" on="0"/>
        <pt x="262" y="701" on="0"/>
        <pt x="324" y="701" on="1"/>
        <pt x="375" y="701" on="0"/>
        <pt x="453" y="673" on="0"/>
        <pt x="486" y="650" on="1"/>
        <pt x="475" y="581" on="1"/>
        <pt x="441" y="608" on="0"/>
        <pt x="368" y="640" on="0"/>
        <pt x="323" y="640" on="1"/>
        <pt x="275" y="640" on="0"/>
        <pt x="198" y="596" on="0"/>
        <pt x="145" y="518" on="0"/>
        <pt x="117" y="410" on="0"/>
        <pt x="117" y="345" on="1"/>
        <pt x="117" y="279" on="0"/>
        <pt x="145" y="170" on="0"/>
        <pt x="198" y="93" on="0"/>
        <pt x="274" y="50" on="0"/>
        <pt x="322" y="50" on="1"/>
        <pt x="368" y="50" on="0"/>
        <pt x="450" y="86" on="0"/>
        <pt x="487" y="114" on="1"/>
      </contour>
    </TTGlyph>
    <TTGlyph name="Cacute" xMin="48" yMin="-11" xMax="496" yMax="895">
      <component glyphName="C" x="0" y="0" flags="0x204"/>
      <component glyphName="acute" x="162" y="213" flags="0x4"/>
    </TTGlyph>
    <TTGlyph name="Ccaron" xMin="48" yMin="-11" xMax="496" yMax="891">
      <component glyphName="C" x="0" y="0" flags="0x204"/>
      <component glyphName="caron" x="110" y="213" flags="0x4"/>
    </TTGlyph>
    <TTGlyph name="Ccedilla" xMin="48" yMin="-187" xMax="496" yMax="701">
      <component glyphName="C" x="0" y="0" flags="0x204"/>
      <component glyphName="cedilla" x="94" y="-1" flags="0x4"/>
    </TTGlyph>
    <TTGlyph name="Cdotaccent" xMin="48" yMin="-11" xMax="496" yMax="845">
      <component glyphName="C" x="0" y="0" flags="0x204"/>
      <component glyphName="dotaccent" x="111" y="213" flags="0x4"/>
    </TTGlyph>
    <TTGlyph name="D" xMin="77" yMin="0" xMax="545" yMax="690">
      <contour>
        <pt x="545" y="346" on="1"/>
        <pt x="545" y="267" on="0"/>
        <pt x="501" y="138" on="0"/>
        <pt x="418" y="49" on="0"/>
        <pt x="296" y="0" on="0"/>
        <pt x="219" y="0" on="1"/>
        <pt x="77" y="0" on="1"/>
        <pt x="77" y="690" on="1"/>
        <pt x="222" y="690" on="1"/>
        <pt x="300" y="690" on="0"/>
        <pt x="422" y="640" on="0"/>
        <pt x="503" y="551" on="0"/>
        <pt x="545" y="423" on="0"/>
      </contour>
      <contour>
        <pt x="476" y="345" on="1"/>
        <pt x="476" y="483" on="0"/>
        <pt x="339" y="630" on="0"/>
        <pt x="226" y="630" on="1"/>
        <pt x="144" y="630" on="1"/>
        <pt x="144" y="60" on="1"/>
        <pt x="226" y="60" on="1"/>
        <pt x="340" y="60" on="0"/>
        <pt x="476" y="204" on="0"/>
      </contour>
    </TTGlyph>
    <TTGlyph name="Dcaron" xMin="77" yMin="0" xMax="545" yMax="882">
      <component glyphName="D" x="0" y="0" flags="0x204"/>
      <component glyphName="caron" x="76" y="204" flags="0x4"/>
    </TTGlyph>
    <TTGlyph name="Dcroat" xMin="11" yMin="0" xMax="553" yMax="690">
      <component glyphName="Eth" x="0" y="0" flags="0x204"/>
    </TTGlyph>
    <TTGlyph name="Dcroat.flat" xMin="15" yMin="0" xMax="553" yMax="690">
      <component glyphName="Eth.flat" x="0" y="0" flags="0x204"/>
    </TTGlyph>
    <TTGlyph name="E" xMin="77" yMin="0" xMax="414" yMax="690">
      <contour>
        <pt x="414" y="0" on="1"/>
        <pt x="77" y="0" on="1"/>
        <pt x="77" y="690" on="1"/>
        <pt x="404" y="690" on="1"/>
        <pt x="404" y="629" on="1"/>
        <pt x="144" y="629" on="1"/>
        <pt x="144" y="392" on="1"/>
        <pt x="349" y="392" on="1"/>
        <pt x="359" y="331" on="1"/>
        <pt x="144" y="331" on="1"/>
        <pt x="144" y="61" on="1"/>
        <pt x="414" y="61" on="1"/>
      </contour>
    </TTGlyph>
    <TTGlyph name="E.flat" xMin="77" yMin="0" xMax="414" yMax="690">
      <contour>
        <pt x="414" y="0" on="1"/>
        <pt x="77" y="0" on="1"/>
        <pt x="77" y="690" on="1"/>
        <pt x="404" y="690" on="1"/>
        <pt x="404" y="629" on="1"/>
        <pt x="144" y="629" on="1"/>
        <pt x="144" y="392" on="1"/>
        <pt x="354" y="392" on="1"/>
        <pt x="354" y="331" on="1"/>
        <pt x="144" y="331" on="1"/>
        <pt x="144" y="61" on="1"/>
        <pt x="414" y="61" on="1"/>
      </contour>
    </TTGlyph>
    <TTGlyph name="Eacute" xMin="77" yMin="0" xMax="414" yMax="886">
      <component glyphName="E" x="0" y="0" flags="0x4"/>
      <component glyphName="acute" x="90" y="204" flags="0x4"/>
    </TTGlyph>
    <TTGlyph name="Eacute.flat" xMin="77" yMin="0" xMax="414" yMax="886">
      <component glyphName="E.flat" x="0" y="0" flags="0x4"/>
      <component glyphName="acute" x="90" y="204" flags="0x4"/>
    </TTGlyph>
    <TTGlyph name="Ebreve" xMin="77" yMin="0" xMax="414" yMax="863">
      <component glyphName="E" x="0" y="0" flags="0x4"/>
      <component glyphName="breve" x="39" y="204" flags="0x4"/>
    </TTGlyph>
    <TTGlyph name="Ebreve.flat" xMin="77" yMin="0" xMax="414" yMax="863">
      <component glyphName="E.flat" x="0" y="0" flags="0x4"/>
      <component glyphName="breve" x="39" y="204" flags="0x4"/>
    </TTGlyph>
    <TTGlyph name="Ecaron" xMin="77" yMin="0" xMax="414" yMax="882">
      <component glyphName="E" x="0" y="0" flags="0x4"/>
      <component glyphName="caron" x="38" y="204" flags="0x4"/>
    </TTGlyph>
    <TTGlyph name="Ecaron.flat" xMin="77" yMin="0" xMax="414" yMax="882">
      <component glyphName="E.flat" x="0" y="0" flags="0x4"/>
      <component glyphName="caron" x="38" y="204" flags="0x4"/>
    </TTGlyph>
    <TTGlyph name="Ecircumflex" xMin="77" yMin="0" xMax="414" yMax="882">
      <component glyphName="E" x="0" y="0" flags="0x4"/>
      <component glyphName="circumflex" x="39" y="204" flags="0x4"/>
    </TTGlyph>
    <TTGlyph name="Ecircumflex.flat" xMin="77" yMin="0" xMax="414" yMax="882">
      <component glyphName="E.flat" x="0" y="0" flags="0x4"/>
      <component glyphName="circumflex" x="39" y="204" flags="0x4"/>
    </TTGlyph>
    <TTGlyph name="Edieresis" xMin="77" yMin="0" xMax="414" yMax="836">
      <component glyphName="E" x="0" y="0" flags="0x4"/>
      <component glyphName="dieresis" x="39" y="204" flags="0x4"/>
    </TTGlyph>
    <TTGlyph name="Edieresis.flat" xMin="77" yMin="0" xMax="414" yMax="836">
      <component glyphName="E.flat" x="0" y="0" flags="0x4"/>
      <component glyphName="dieresis" x="39" y="204" flags="0x4"/>
    </TTGlyph>
    <TTGlyph name="Edotaccent" xMin="77" yMin="0" xMax="414" yMax="836">
      <component glyphName="E" x="0" y="0" flags="0x4"/>
      <component glyphName="dotaccent" x="39" y="204" flags="0x4"/>
    </TTGlyph>
    <TTGlyph name="Edotaccent.flat" xMin="77" yMin="0" xMax="414" yMax="836">
      <component glyphName="E.flat" x="0" y="0" flags="0x4"/>
      <component glyphName="dotaccent" x="39" y="204" flags="0x4"/>
    </TTGlyph>
    <TTGlyph name="Egrave" xMin="77" yMin="0" xMax="414" yMax="886">
      <component glyphName="E" x="0" y="0" flags="0x4"/>
      <component glyphName="grave" x="-14" y="204" flags="0x4"/>
    </TTGlyph>
    <TTGlyph name="Egrave.flat" xMin="77" yMin="0" xMax="414" yMax="886">
      <component glyphName="E.flat" x="0" y="0" flags="0x4"/>
      <component glyphName="grave" x="-14" y="204" flags="0x4"/>
    </TTGlyph>
    <TTGlyph name="Emacron" xMin="77" yMin="0" xMax="414" yMax="824">
      <component glyphName="E" x="0" y="0" flags="0x4"/>
      <component glyphName="macron" x="39" y="204" flags="0x4"/>
    </TTGlyph>
    <TTGlyph name="Emacron.flat" xMin="77" yMin="0" xMax="414" yMax="824">
      <component glyphName="E.flat" x="0" y="0" flags="0x4"/>
      <component glyphName="macron" x="39" y="204" flags="0x4"/>
    </TTGlyph>
    <TTGlyph name="Eogonek" xMin="77" yMin="-170" xMax="422" yMax="690">
      <component glyphName="E" x="0" y="0" flags="0x204"/>
      <component glyphName="ogonek" x="156" y="0" flags="0x4"/>
    </TTGlyph>
    <TTGlyph name="Eogonek.flat" xMin="77" yMin="-170" xMax="422" yMax="690">
      <component glyphName="E.flat" x="0" y="0" flags="0x204"/>
      <component glyphName="ogonek" x="156" y="0" flags="0x4"/>
    </TTGlyph>
    <TTGlyph name="Eth" xMin="11" yMin="0" xMax="553" yMax="690">
      <contour>
        <pt x="228" y="0" on="1"/>
        <pt x="85" y="0" on="1"/>
        <pt x="85" y="332" on="1"/>
        <pt x="21" y="332" on="1"/>
        <pt x="11" y="391" on="1"/>
        <pt x="85" y="391" on="1"/>
        <pt x="85" y="690" on="1"/>
        <pt x="230" y="690" on="1"/>
        <pt x="308" y="690" on="0"/>
        <pt x="430" y="640" on="0"/>
        <pt x="511" y="551" on="0"/>
        <pt x="553" y="423" on="0"/>
        <pt x="553" y="346" on="1"/>
        <pt x="553" y="267" on="0"/>
        <pt x="509" y="138" on="0"/>
        <pt x="426" y="49" on="0"/>
        <pt x="304" y="0" on="0"/>
      </contour>
      <contour>
        <pt x="152" y="60" on="1"/>
        <pt x="234" y="60" on="1"/>
        <pt x="348" y="60" on="0"/>
        <pt x="484" y="204" on="0"/>
        <pt x="484" y="345" on="1"/>
        <pt x="484" y="483" on="0"/>
        <pt x="347" y="630" on="0"/>
        <pt x="234" y="630" on="1"/>
        <pt x="152" y="630" on="1"/>
        <pt x="152" y="390" on="1"/>
        <pt x="298" y="390" on="1"/>
        <pt x="298" y="332" on="1"/>
        <pt x="152" y="332" on="1"/>
      </contour>
    </TTGlyph>
    <TTGlyph name="Eth.flat" xMin="15" yMin="0" xMax="553" yMax="690">
      <contour>
        <pt x="228" y="0" on="1"/>
        <pt x="85" y="0" on="1"/>
        <pt x="85" y="332" on="1"/>
        <pt x="15" y="332" on="1"/>
        <pt x="15" y="391" on="1"/>
        <pt x="85" y="391" on="1"/>
        <pt x="85" y="690" on="1"/>
        <pt x="230" y="690" on="1"/>
        <pt x="308" y="690" on="0"/>
        <pt x="430" y="640" on="0"/>
        <pt x="511" y="551" on="0"/>
        <pt x="553" y="423" on="0"/>
        <pt x="553" y="346" on="1"/>
        <pt x="553" y="267" on="0"/>
        <pt x="509" y="138" on="0"/>
        <pt x="426" y="49" on="0"/>
        <pt x="304" y="0" on="0"/>
      </contour>
      <contour>
        <pt x="152" y="60" on="1"/>
        <pt x="234" y="60" on="1"/>
        <pt x="348" y="60" on="0"/>
        <pt x="484" y="204" on="0"/>
        <pt x="484" y="345" on="1"/>
        <pt x="484" y="483" on="0"/>
        <pt x="347" y="630" on="0"/>
        <pt x="234" y="630" on="1"/>
        <pt x="152" y="630" on="1"/>
        <pt x="152" y="390" on="1"/>
        <pt x="298" y="390" on="1"/>
        <pt x="298" y="332" on="1"/>
        <pt x="152" y="332" on="1"/>
      </contour>
    </TTGlyph>
    <TTGlyph name="Euro" xMin="23" yMin="-12" xMax="504" yMax="695">
      <contour>
        <pt x="504" y="42" on="1"/>
        <pt x="470" y="17" on="0"/>
        <pt x="391" y="-12" on="0"/>
        <pt x="343" y="-12" on="1"/>
        <pt x="250" y="-12" on="0"/>
        <pt x="129" y="122" on="0"/>
        <pt x="111" y="239" on="1"/>
        <pt x="31" y="239" on="1"/>
        <pt x="23" y="292" on="1"/>
        <pt x="105" y="292" on="1"/>
        <pt x="104" y="304" on="0"/>
        <pt x="103" y="328" on="0"/>
        <pt x="103" y="341" on="1"/>
        <pt x="103" y="358" on="0"/>
        <pt x="105" y="390" on="0"/>
        <pt x="106" y="406" on="1"/>
        <pt x="27" y="406" on="1"/>
        <pt x="27" y="459" on="1"/>
        <pt x="114" y="459" on="1"/>
        <pt x="135" y="568" on="0"/>
        <pt x="257" y="695" on="0"/>
        <pt x="347" y="695" on="1"/>
        <pt x="393" y="695" on="0"/>
        <pt x="463" y="670" on="0"/>
        <pt x="493" y="648" on="1"/>
        <pt x="482" y="585" on="1"/>
        <pt x="449" y="610" on="0"/>
        <pt x="386" y="638" on="0"/>
        <pt x="346" y="638" on="1"/>
        <pt x="282" y="638" on="0"/>
        <pt x="194" y="540" on="0"/>
        <pt x="178" y="459" on="1"/>
        <pt x="397" y="459" on="1"/>
        <pt x="406" y="406" on="1"/>
        <pt x="169" y="406" on="1"/>
        <pt x="168" y="391" on="0"/>
        <pt x="166" y="359" on="0"/>
        <pt x="166" y="342" on="1"/>
        <pt x="166" y="329" on="0"/>
        <pt x="167" y="304" on="0"/>
        <pt x="168" y="292" on="1"/>
        <pt x="402" y="292" on="1"/>
        <pt x="402" y="239" on="1"/>
        <pt x="175" y="239" on="1"/>
        <pt x="190" y="149" on="0"/>
        <pt x="280" y="45" on="0"/>
        <pt x="346" y="45" on="1"/>
        <pt x="386" y="45" on="0"/>
        <pt x="456" y="74" on="0"/>
        <pt x="495" y="102" on="1"/>
      </contour>
    </TTGlyph>
    <TTGlyph name="Euro.flat" xMin="27" yMin="-12" xMax="504" yMax="695">
      <contour>
        <pt x="504" y="42" on="1"/>
        <pt x="470" y="17" on="0"/>
        <pt x="391" y="-12" on="0"/>
        <pt x="343" y="-12" on="1"/>
        <pt x="250" y="-12" on="0"/>
        <pt x="129" y="122" on="0"/>
        <pt x="111" y="239" on="1"/>
        <pt x="27" y="239" on="1"/>
        <pt x="27" y="292" on="1"/>
        <pt x="105" y="292" on="1"/>
        <pt x="104" y="304" on="0"/>
        <pt x="103" y="328" on="0"/>
        <pt x="103" y="341" on="1"/>
        <pt x="103" y="358" on="0"/>
        <pt x="105" y="390" on="0"/>
        <pt x="106" y="406" on="1"/>
        <pt x="27" y="406" on="1"/>
        <pt x="27" y="459" on="1"/>
        <pt x="114" y="459" on="1"/>
        <pt x="135" y="568" on="0"/>
        <pt x="257" y="695" on="0"/>
        <pt x="347" y="695" on="1"/>
        <pt x="393" y="695" on="0"/>
        <pt x="463" y="670" on="0"/>
        <pt x="493" y="648" on="1"/>
        <pt x="482" y="585" on="1"/>
        <pt x="449" y="610" on="0"/>
        <pt x="386" y="638" on="0"/>
        <pt x="346" y="638" on="1"/>
        <pt x="282" y="638" on="0"/>
        <pt x="194" y="540" on="0"/>
        <pt x="178" y="459" on="1"/>
        <pt x="402" y="459" on="1"/>
        <pt x="402" y="406" on="1"/>
        <pt x="169" y="406" on="1"/>
        <pt x="168" y="391" on="0"/>
        <pt x="166" y="359" on="0"/>
        <pt x="166" y="342" on="1"/>
        <pt x="166" y="329" on="0"/>
        <pt x="167" y="304" on="0"/>
        <pt x="168" y="292" on="1"/>
        <pt x="402" y="292" on="1"/>
        <pt x="402" y="239" on="1"/>
        <pt x="175" y="239" on="1"/>
        <pt x="190" y="149" on="0"/>
        <pt x="280" y="45" on="0"/>
        <pt x="346" y="45" on="1"/>
        <pt x="386" y="45" on="0"/>
        <pt x="456" y="74" on="0"/>
        <pt x="495" y="102" on="1"/>
      </contour>
    </TTGlyph>
    <TTGlyph name="Euro.tab" xMin="24" yMin="-11" xMax="468" yMax="694">
      <contour>
        <pt x="468" y="41" on="1"/>
        <pt x="436" y="16" on="0"/>
        <pt x="364" y="-11" on="0"/>
        <pt x="318" y="-11" on="1"/>
        <pt x="229" y="-11" on="0"/>
        <pt x="119" y="124" on="0"/>
        <pt x="103" y="240" on="1"/>
        <pt x="33" y="240" on="1"/>
        <pt x="24" y="292" on="1"/>
        <pt x="98" y="292" on="1"/>
        <pt x="97" y="304" on="0"/>
        <pt x="97" y="328" on="0"/>
        <pt x="97" y="341" on="1"/>
        <pt x="97" y="357" on="0"/>
        <pt x="99" y="390" on="0"/>
        <pt x="100" y="406" on="1"/>
        <pt x="28" y="406" on="1"/>
        <pt x="28" y="458" on="1"/>
        <pt x="107" y="458" on="1"/>
        <pt x="126" y="564" on="0"/>
        <pt x="235" y="694" on="0"/>
        <pt x="322" y="694" on="1"/>
        <pt x="364" y="694" on="0"/>
        <pt x="431" y="671" on="0"/>
        <pt x="459" y="649" on="1"/>
        <pt x="448" y="587" on="1"/>
        <pt x="417" y="612" on="0"/>
        <pt x="358" y="639" on="0"/>
        <pt x="321" y="639" on="1"/>
        <pt x="261" y="639" on="0"/>
        <pt x="183" y="539" on="0"/>
        <pt x="168" y="458" on="1"/>
        <pt x="370" y="458" on="1"/>
        <pt x="378" y="406" on="1"/>
        <pt x="161" y="406" on="1"/>
        <pt x="160" y="391" on="0"/>
        <pt x="158" y="358" on="0"/>
        <pt x="158" y="342" on="1"/>
        <pt x="158" y="329" on="0"/>
        <pt x="159" y="304" on="0"/>
        <pt x="160" y="292" on="1"/>
        <pt x="375" y="292" on="1"/>
        <pt x="375" y="240" on="1"/>
        <pt x="165" y="240" on="1"/>
        <pt x="179" y="149" on="0"/>
        <pt x="261" y="44" on="0"/>
        <pt x="323" y="44" on="1"/>
        <pt x="361" y="44" on="0"/>
        <pt x="423" y="70" on="0"/>
        <pt x="459" y="99" on="1"/>
      </contour>
    </TTGlyph>
    <TTGlyph name="Euro.tab_flat" xMin="28" yMin="-11" xMax="468" yMax="694">
      <contour>
        <pt x="468" y="41" on="1"/>
        <pt x="436" y="16" on="0"/>
        <pt x="364" y="-11" on="0"/>
        <pt x="318" y="-11" on="1"/>
        <pt x="229" y="-11" on="0"/>
        <pt x="119" y="124" on="0"/>
        <pt x="103" y="240" on="1"/>
        <pt x="28" y="240" on="1"/>
        <pt x="28" y="292" on="1"/>
        <pt x="98" y="292" on="1"/>
        <pt x="97" y="304" on="0"/>
        <pt x="97" y="328" on="0"/>
        <pt x="97" y="341" on="1"/>
        <pt x="97" y="357" on="0"/>
        <pt x="99" y="390" on="0"/>
        <pt x="100" y="406" on="1"/>
        <pt x="28" y="406" on="1"/>
        <pt x="28" y="458" on="1"/>
        <pt x="107" y="458" on="1"/>
        <pt x="126" y="564" on="0"/>
        <pt x="235" y="694" on="0"/>
        <pt x="322" y="694" on="1"/>
        <pt x="364" y="694" on="0"/>
        <pt x="431" y="671" on="0"/>
        <pt x="459" y="649" on="1"/>
        <pt x="448" y="587" on="1"/>
        <pt x="417" y="612" on="0"/>
        <pt x="358" y="639" on="0"/>
        <pt x="321" y="639" on="1"/>
        <pt x="261" y="639" on="0"/>
        <pt x="183" y="539" on="0"/>
        <pt x="168" y="458" on="1"/>
        <pt x="375" y="458" on="1"/>
        <pt x="375" y="406" on="1"/>
        <pt x="161" y="406" on="1"/>
        <pt x="160" y="391" on="0"/>
        <pt x="158" y="358" on="0"/>
        <pt x="158" y="342" on="1"/>
        <pt x="158" y="329" on="0"/>
        <pt x="159" y="304" on="0"/>
        <pt x="160" y="292" on="1"/>
        <pt x="375" y="292" on="1"/>
        <pt x="375" y="240" on="1"/>
        <pt x="165" y="240" on="1"/>
        <pt x="179" y="149" on="0"/>
        <pt x="261" y="44" on="0"/>
        <pt x="323" y="44" on="1"/>
        <pt x="361" y="44" on="0"/>
        <pt x="423" y="70" on="0"/>
        <pt x="459" y="99" on="1"/>
      </contour>
    </TTGlyph>
    <TTGlyph name="F" xMin="77" yMin="0" xMax="393" yMax="690">
      <contour>
        <pt x="393" y="629" on="1"/>
        <pt x="144" y="629" on="1"/>
        <pt x="144" y="381" on="1"/>
        <pt x="341" y="381" on="1"/>
        <pt x="351" y="320" on="1"/>
        <pt x="144" y="320" on="1"/>
        <pt x="144" y="0" on="1"/>
        <pt x="77" y="0" on="1"/>
        <pt x="77" y="690" on="1"/>
        <pt x="393" y="690" on="1"/>
      </contour>
    </TTGlyph>
    <TTGlyph name="F.flat" xMin="77" yMin="0" xMax="393" yMax="690">
      <contour>
        <pt x="393" y="629" on="1"/>
        <pt x="144" y="629" on="1"/>
        <pt x="144" y="381" on="1"/>
        <pt x="346" y="381" on="1"/>
        <pt x="346" y="320" on="1"/>
        <pt x="144" y="320" on="1"/>
        <pt x="144" y="0" on="1"/>
        <pt x="77" y="0" on="1"/>
        <pt x="77" y="690" on="1"/>
        <pt x="393" y="690" on="1"/>
      </contour>
    </TTGlyph>
    <TTGlyph name="G" xMin="48" yMin="-11" xMax="521" yMax="702">
      <contour>
        <pt x="521" y="52" on="1"/>
        <pt x="479" y="24" on="0"/>
        <pt x="382" y="-11" on="0"/>
        <pt x="325" y="-11" on="1"/>
        <pt x="259" y="-11" on="0"/>
        <pt x="155" y="41" on="0"/>
        <pt x="85" y="134" on="0"/>
        <pt x="48" y="265" on="0"/>
        <pt x="48" y="344" on="1"/>
        <pt x="48" y="422" on="0"/>
        <pt x="86" y="555" on="0"/>
        <pt x="158" y="649" on="0"/>
        <pt x="262" y="702" on="0"/>
        <pt x="327" y="702" on="1"/>
        <pt x="379" y="702" on="0"/>
        <pt x="464" y="674" on="0"/>
        <pt x="499" y="649" on="1"/>
        <pt x="489" y="580" on="1"/>
        <pt x="453" y="608" on="0"/>
        <pt x="374" y="641" on="0"/>
        <pt x="326" y="641" on="1"/>
        <pt x="276" y="641" on="0"/>
        <pt x="198" y="598" on="0"/>
        <pt x="145" y="520" on="0"/>
        <pt x="117" y="410" on="0"/>
        <pt x="117" y="345" on="1"/>
        <pt x="117" y="281" on="0"/>
        <pt x="144" y="172" on="0"/>
        <pt x="196" y="94" on="0"/>
        <pt x="276" y="50" on="0"/>
        <pt x="328" y="50" on="1"/>
        <pt x="367" y="50" on="0"/>
        <pt x="427" y="69" on="0"/>
        <pt x="455" y="86" on="1"/>
        <pt x="455" y="302" on="1"/>
        <pt x="316" y="302" on="1"/>
        <pt x="307" y="363" on="1"/>
        <pt x="521" y="363" on="1"/>
      </contour>
    </TTGlyph>
    <TTGlyph name="G.flat" xMin="48" yMin="-11" xMax="521" yMax="702">
      <contour>
        <pt x="521" y="52" on="1"/>
        <pt x="479" y="24" on="0"/>
        <pt x="382" y="-11" on="0"/>
        <pt x="325" y="-11" on="1"/>
        <pt x="259" y="-11" on="0"/>
        <pt x="155" y="41" on="0"/>
        <pt x="85" y="134" on="0"/>
        <pt x="48" y="265" on="0"/>
        <pt x="48" y="344" on="1"/>
        <pt x="48" y="422" on="0"/>
        <pt x="86" y="555" on="0"/>
        <pt x="158" y="649" on="0"/>
        <pt x="262" y="702" on="0"/>
        <pt x="327" y="702" on="1"/>
        <pt x="379" y="702" on="0"/>
        <pt x="464" y="674" on="0"/>
        <pt x="499" y="649" on="1"/>
        <pt x="489" y="580" on="1"/>
        <pt x="453" y="608" on="0"/>
        <pt x="374" y="641" on="0"/>
        <pt x="326" y="641" on="1"/>
        <pt x="276" y="641" on="0"/>
        <pt x="198" y="598" on="0"/>
        <pt x="145" y="520" on="0"/>
        <pt x="117" y="410" on="0"/>
        <pt x="117" y="345" on="1"/>
        <pt x="117" y="281" on="0"/>
        <pt x="144" y="172" on="0"/>
        <pt x="196" y="94" on="0"/>
        <pt x="276" y="50" on="0"/>
        <pt x="328" y="50" on="1"/>
        <pt x="367" y="50" on="0"/>
        <pt x="427" y="69" on="0"/>
        <pt x="455" y="86" on="1"/>
        <pt x="455" y="302" on="1"/>
        <pt x="312" y="302" on="1"/>
        <pt x="312" y="363" on="1"/>
        <pt x="521" y="363" on="1"/>
      </contour>
    </TTGlyph>
    <TTGlyph name="Gbreve" xMin="48" yMin="-11" xMax="521" yMax="872">
      <component glyphName="G" x="0" y="0" flags="0x204"/>
      <component glyphName="breve" x="113" y="213" flags="0x4"/>
    </TTGlyph>
    <TTGlyph name="Gbreve.flat" xMin="48" yMin="-11" xMax="521" yMax="872">
      <component glyphName="G.flat" x="0" y="0" flags="0x204"/>
      <component glyphName="breve" x="113" y="213" flags="0x4"/>
    </TTGlyph>
    <TTGlyph name="Gcommaaccent" xMin="48" yMin="-230" xMax="521" yMax="702">
      <component glyphName="G" x="0" y="0" flags="0x204"/>
      <component glyphName="commaaccent" x="121" y="-3" flags="0x4"/>
    </TTGlyph>
    <TTGlyph name="Gcommaaccent.flat" xMin="48" yMin="-230" xMax="521" yMax="702">
      <component glyphName="G.flat" x="0" y="0" flags="0x204"/>
      <component glyphName="commaaccent" x="121" y="-3" flags="0x4"/>
    </TTGlyph>
    <TTGlyph name="Gdotaccent" xMin="48" yMin="-11" xMax="521" yMax="845">
      <component glyphName="G" x="0" y="0" flags="0x204"/>
      <component glyphName="dotaccent" x="113" y="213" flags="0x4"/>
    </TTGlyph>
    <TTGlyph name="Gdotaccent.flat" xMin="48" yMin="-11" xMax="521" yMax="845">
      <component glyphName="G.flat" x="0" y="0" flags="0x204"/>
      <component glyphName="dotaccent" x="113" y="213" flags="0x4"/>
    </TTGlyph>
    <TTGlyph name="H" xMin="77" yMin="0" xMax="527" yMax="690">
      <contour>
        <pt x="527" y="0" on="1"/>
        <pt x="460" y="0" on="1"/>
        <pt x="460" y="331" on="1"/>
        <pt x="144" y="331" on="1"/>
        <pt x="144" y="0" on="1"/>
        <pt x="77" y="0" on="1"/>
        <pt x="77" y="690" on="1"/>
        <pt x="144" y="690" on="1"/>
        <pt x="144" y="392" on="1"/>
        <pt x="460" y="392" on="1"/>
        <pt x="460" y="690" on="1"/>
        <pt x="527" y="690" on="1"/>
      </contour>
    </TTGlyph>
    <TTGlyph name="Hbar" xMin="10" yMin="0" xMax="613" yMax="690">
      <contour>
        <pt x="155" y="385" on="1"/>
        <pt x="472" y="385" on="1"/>
        <pt x="472" y="524" on="1"/>
        <pt x="155" y="524" on="1"/>
      </contour>
      <contour>
        <pt x="155" y="325" on="1"/>
        <pt x="155" y="0" on="1"/>
        <pt x="88" y="0" on="1"/>
        <pt x="88" y="523" on="1"/>
        <pt x="20" y="523" on="1"/>
        <pt x="10" y="580" on="1"/>
        <pt x="88" y="580" on="1"/>
        <pt x="88" y="690" on="1"/>
        <pt x="155" y="690" on="1"/>
        <pt x="155" y="580" on="1"/>
        <pt x="472" y="580" on="1"/>
        <pt x="472" y="690" on="1"/>
        <pt x="539" y="690" on="1"/>
        <pt x="539" y="580" on="1"/>
        <pt x="613" y="580" on="1"/>
        <pt x="613" y="523" on="1"/>
        <pt x="539" y="523" on="1"/>
        <pt x="539" y="0" on="1"/>
        <pt x="472" y="0" on="1"/>
        <pt x="472" y="325" on="1"/>
      </contour>
    </TTGlyph>
    <TTGlyph name="Hbar.flat" xMin="14" yMin="0" xMax="613" yMax="690">
      <contour>
        <pt x="155" y="385" on="1"/>
        <pt x="472" y="385" on="1"/>
        <pt x="472" y="524" on="1"/>
        <pt x="155" y="524" on="1"/>
      </contour>
      <contour>
        <pt x="155" y="325" on="1"/>
        <pt x="155" y="0" on="1"/>
        <pt x="88" y="0" on="1"/>
        <pt x="88" y="523" on="1"/>
        <pt x="14" y="523" on="1"/>
        <pt x="14" y="580" on="1"/>
        <pt x="88" y="580" on="1"/>
        <pt x="88" y="690" on="1"/>
        <pt x="155" y="690" on="1"/>
        <pt x="155" y="580" on="1"/>
        <pt x="472" y="580" on="1"/>
        <pt x="472" y="690" on="1"/>
        <pt x="539" y="690" on="1"/>
        <pt x="539" y="580" on="1"/>
        <pt x="613" y="580" on="1"/>
        <pt x="613" y="523" on="1"/>
        <pt x="539" y="523" on="1"/>
        <pt x="539" y="0" on="1"/>
        <pt x="472" y="0" on="1"/>
        <pt x="472" y="325" on="1"/>
      </contour>
    </TTGlyph>
    <TTGlyph name="I" xMin="84" yMin="0" xMax="151" yMax="690">
      <contour>
        <pt x="151" y="0" on="1"/>
        <pt x="84" y="0" on="1"/>
        <pt x="84" y="690" on="1"/>
        <pt x="151" y="690" on="1"/>
      </contour>
    </TTGlyph>
    <TTGlyph name="Iacute" xMin="84" yMin="0" xMax="252" yMax="886">
      <component glyphName="I" x="0" y="0" flags="0x204"/>
      <component glyphName="acute" x="-35" y="204" flags="0x4"/>
    </TTGlyph>
    <TTGlyph name="Ibreve" xMin="1" yMin="0" xMax="234" yMax="863">
      <component glyphName="I" x="0" y="0" flags="0x204"/>
      <component glyphName="breve" x="-86" y="204" flags="0x4"/>
    </TTGlyph>
    <TTGlyph name="Icircumflex" xMin="0" yMin="0" xMax="235" yMax="882">
      <component glyphName="I" x="0" y="0" flags="0x204"/>
      <component glyphName="circumflex" x="-86" y="204" flags="0x4"/>
    </TTGlyph>
    <TTGlyph name="Idieresis" xMin="5" yMin="0" xMax="231" yMax="836">
      <component glyphName="I" x="0" y="0" flags="0x204"/>
      <component glyphName="dieresis" x="-86" y="204" flags="0x4"/>
    </TTGlyph>
    <TTGlyph name="Idotaccent" xMin="79" yMin="0" xMax="157" yMax="836">
      <component glyphName="I" x="0" y="0" flags="0x204"/>
      <component glyphName="dotaccent" x="-86" y="204" flags="0x4"/>
    </TTGlyph>
    <TTGlyph name="Igrave" xMin="-16" yMin="0" xMax="151" yMax="886">
      <component glyphName="I" x="0" y="0" flags="0x204"/>
      <component glyphName="grave" x="-139" y="204" flags="0x4"/>
    </TTGlyph>
    <TTGlyph name="Imacron" xMin="-1" yMin="0" xMax="237" yMax="824">
      <component glyphName="I" x="0" y="0" flags="0x204"/>
      <component glyphName="macron" x="-86" y="204" flags="0x4"/>
    </TTGlyph>
    <TTGlyph name="Iogonek" xMin="40" yMin="-170" xMax="173" yMax="690">
      <component glyphName="I" x="0" y="0" flags="0x204"/>
      <component glyphName="ogonek" x="-93" y="0" flags="0x4"/>
    </TTGlyph>
    <TTGlyph name="J" xMin="20" yMin="-6" xMax="246" yMax="690">
      <contour>
        <pt x="246" y="152" on="1"/>
        <pt x="246" y="71" on="0"/>
        <pt x="158" y="-6" on="0"/>
        <pt x="89" y="-6" on="1"/>
        <pt x="73" y="-6" on="0"/>
        <pt x="41" y="-3" on="0"/>
        <pt x="30" y="0" on="1"/>
        <pt x="20" y="63" on="1"/>
        <pt x="35" y="59" on="0"/>
        <pt x="68" y="54" on="0"/>
        <pt x="86" y="54" on="1"/>
        <pt x="130" y="54" on="0"/>
        <pt x="179" y="103" on="0"/>
        <pt x="179" y="154" on="1"/>
        <pt x="179" y="690" on="1"/>
        <pt x="246" y="690" on="1"/>
      </contour>
    </TTGlyph>
    <TTGlyph name="K" xMin="77" yMin="-7" xMax="512" yMax="690">
      <contour>
        <pt x="512" y="8" on="1"/>
        <pt x="439" y="-7" on="1"/>
        <pt x="144" y="353" on="1"/>
        <pt x="144" y="0" on="1"/>
        <pt x="77" y="0" on="1"/>
        <pt x="77" y="690" on="1"/>
        <pt x="144" y="690" on="1"/>
        <pt x="144" y="378" on="1"/>
        <pt x="415" y="690" on="1"/>
        <pt x="497" y="690" on="1"/>
        <pt x="213" y="368" on="1"/>
      </contour>
    </TTGlyph>
    <TTGlyph name="K.flat" xMin="77" yMin="0" xMax="519" yMax="690">
      <contour>
        <pt x="519" y="0" on="1"/>
        <pt x="434" y="0" on="1"/>
        <pt x="144" y="353" on="1"/>
        <pt x="144" y="0" on="1"/>
        <pt x="77" y="0" on="1"/>
        <pt x="77" y="690" on="1"/>
        <pt x="144" y="690" on="1"/>
        <pt x="144" y="378" on="1"/>
        <pt x="415" y="690" on="1"/>
        <pt x="497" y="690" on="1"/>
        <pt x="213" y="368" on="1"/>
      </contour>
    </TTGlyph>
    <TTGlyph name="Kcommaaccent" xMin="77" yMin="-224" xMax="512" yMax="690">
      <component glyphName="K" x="0" y="0" flags="0x4"/>
      <component glyphName="commaaccent" x="71" y="3" flags="0x4"/>
    </TTGlyph>
    <TTGlyph name="Kcommaaccent.flat" xMin="77" yMin="-224" xMax="519" yMax="690">
      <component glyphName="K.flat" x="0" y="0" flags="0x4"/>
      <component glyphName="commaaccent" x="71" y="3" flags="0x4"/>
    </TTGlyph>
    <TTGlyph name="L" xMin="77" yMin="0" xMax="391" yMax="690">
      <contour>
        <pt x="391" y="0" on="1"/>
        <pt x="77" y="0" on="1"/>
        <pt x="77" y="690" on="1"/>
        <pt x="144" y="690" on="1"/>
        <pt x="144" y="62" on="1"/>
        <pt x="381" y="62" on="1"/>
      </contour>
    </TTGlyph>
    <TTGlyph name="L.flat" xMin="77" yMin="0" xMax="386" yMax="690">
      <contour>
        <pt x="386" y="0" on="1"/>
        <pt x="77" y="0" on="1"/>
        <pt x="77" y="690" on="1"/>
        <pt x="144" y="690" on="1"/>
        <pt x="144" y="62" on="1"/>
        <pt x="386" y="62" on="1"/>
      </contour>
    </TTGlyph>
    <TTGlyph name="Lacute" xMin="77" yMin="0" xMax="391" yMax="885">
      <component glyphName="L" x="0" y="0" flags="0x204"/>
      <component glyphName="acute" x="-29" y="203" flags="0x4"/>
    </TTGlyph>
    <TTGlyph name="Lacute.flat" xMin="77" yMin="0" xMax="386" yMax="885">
      <component glyphName="L.flat" x="0" y="0" flags="0x204"/>
      <component glyphName="acute" x="-29" y="203" flags="0x4"/>
    </TTGlyph>
    <TTGlyph name="Lcaron" xMin="77" yMin="0" xMax="391" yMax="694">
      <component glyphName="L" x="0" y="0" flags="0x204"/>
      <component glyphName="caron.alt" x="50" y="-23" flags="0x4"/>
    </TTGlyph>
    <TTGlyph name="Lcaron.flat" xMin="77" yMin="0" xMax="386" yMax="694">
      <component glyphName="L.flat" x="0" y="0" flags="0x204"/>
      <component glyphName="caron.alt" x="50" y="-23" flags="0x4"/>
    </TTGlyph>
    <TTGlyph name="Lcommaaccent" xMin="77" yMin="-227" xMax="391" yMax="690">
      <component glyphName="L" x="0" y="0" flags="0x204"/>
      <component glyphName="commaaccent" x="33" y="0" flags="0x4"/>
    </TTGlyph>
    <TTGlyph name="Lcommaaccent.flat" xMin="77" yMin="-227" xMax="386" yMax="690">
      <component glyphName="L.flat" x="0" y="0" flags="0x204"/>
      <component glyphName="commaaccent" x="33" y="0" flags="0x4"/>
    </TTGlyph>
    <TTGlyph name="Ldot" xMin="77" yMin="0" xMax="391" yMax="690">
      <contour>
        <pt x="391" y="0" on="1"/>
        <pt x="77" y="0" on="1"/>
        <pt x="77" y="690" on="1"/>
        <pt x="144" y="690" on="1"/>
        <pt x="144" y="62" on="1"/>
        <pt x="381" y="62" on="1"/>
      </contour>
      <contour>
        <pt x="351" y="309" on="1"/>
        <pt x="277" y="309" on="1"/>
        <pt x="277" y="397" on="1"/>
        <pt x="351" y="397" on="1"/>
      </contour>
    </TTGlyph>
    <TTGlyph name="Ldot.flat" xMin="77" yMin="0" xMax="386" yMax="690">
      <contour>
        <pt x="386" y="0" on="1"/>
        <pt x="77" y="0" on="1"/>
        <pt x="77" y="690" on="1"/>
        <pt x="144" y="690" on="1"/>
        <pt x="144" y="62" on="1"/>
        <pt x="386" y="62" on="1"/>
      </contour>
      <contour>
        <pt x="351" y="309" on="1"/>
        <pt x="277" y="309" on="1"/>
        <pt x="277" y="397" on="1"/>
        <pt x="351" y="397" on="1"/>
      </contour>
    </TTGlyph>
    <TTGlyph name="Lslash" xMin="11" yMin="0" xMax="403" yMax="690">
      <contour>
        <pt x="403" y="0" on="1"/>
        <pt x="89" y="0" on="1"/>
        <pt x="89" y="279" on="1"/>
        <pt x="21" y="241" on="1"/>
        <pt x="11" y="302" on="1"/>
        <pt x="89" y="345" on="1"/>
        <pt x="89" y="690" on="1"/>
        <pt x="156" y="690" on="1"/>
        <pt x="156" y="381" on="1"/>
        <pt x="292" y="458" on="1"/>
        <pt x="292" y="392" on="1"/>
        <pt x="156" y="316" on="1"/>
        <pt x="156" y="61" on="1"/>
        <pt x="394" y="61" on="1"/>
      </contour>
    </TTGlyph>
    <TTGlyph name="Lslash.flat" xMin="16" yMin="0" xMax="400" yMax="690">
      <contour>
        <pt x="400" y="0" on="1"/>
        <pt x="89" y="0" on="1"/>
        <pt x="89" y="280" on="1"/>
        <pt x="16" y="239" on="1"/>
        <pt x="16" y="305" on="1"/>
        <pt x="89" y="345" on="1"/>
        <pt x="89" y="690" on="1"/>
        <pt x="156" y="690" on="1"/>
        <pt x="156" y="381" on="1"/>
        <pt x="292" y="458" on="1"/>
        <pt x="292" y="392" on="1"/>
        <pt x="156" y="316" on="1"/>
        <pt x="156" y="61" on="1"/>
        <pt x="397" y="61" on="1"/>
      </contour>
    </TTGlyph>
    <TTGlyph name="M" xMin="62" yMin="-4" xMax="723" yMax="690">
      <contour>
        <pt x="723" y="0" on="1"/>
        <pt x="658" y="0" on="1"/>
        <pt x="622" y="585" on="1"/>
        <pt x="418" y="-4" on="1"/>
        <pt x="363" y="-4" on="1"/>
        <pt x="159" y="585" on="1"/>
        <pt x="124" y="0" on="1"/>
        <pt x="62" y="0" on="1"/>
        <pt x="107" y="690" on="1"/>
        <pt x="187" y="690" on="1"/>
        <pt x="393" y="92" on="1"/>
        <pt x="598" y="690" on="1"/>
        <pt x="679" y="690" on="1"/>
      </contour>
    </TTGlyph>
    <TTGlyph name="M.alt" xMin="77" yMin="-3" xMax="696" yMax="690">
      <contour>
        <pt x="696" y="0" on="1"/>
        <pt x="632" y="0" on="1"/>
        <pt x="632" y="585" on="1"/>
        <pt x="413" y="-3" on="1"/>
        <pt x="357" y="-3" on="1"/>
        <pt x="138" y="585" on="1"/>
        <pt x="139" y="0" on="1"/>
        <pt x="77" y="0" on="1"/>
        <pt x="77" y="690" on="1"/>
        <pt x="165" y="690" on="1"/>
        <pt x="387" y="89" on="1"/>
        <pt x="609" y="690" on="1"/>
        <pt x="696" y="690" on="1"/>
      </contour>
    </TTGlyph>
    <TTGlyph name="N" xMin="77" yMin="0" xMax="527" yMax="690">
      <contour>
        <pt x="527" y="0" on="1"/>
        <pt x="471" y="0" on="1"/>
        <pt x="139" y="573" on="1"/>
        <pt x="140" y="0" on="1"/>
        <pt x="77" y="0" on="1"/>
        <pt x="77" y="690" on="1"/>
        <pt x="142" y="690" on="1"/>
        <pt x="465" y="134" on="1"/>
        <pt x="464" y="690" on="1"/>
        <pt x="527" y="690" on="1"/>
      </contour>
    </TTGlyph>
    <TTGlyph name="Nacute" xMin="77" yMin="0" xMax="527" yMax="881">
      <component glyphName="N" x="0" y="0" flags="0x204"/>
      <component glyphName="acute" x="151" y="199" flags="0x4"/>
    </TTGlyph>
    <TTGlyph name="Ncaron" xMin="77" yMin="0" xMax="527" yMax="877">
      <component glyphName="N" x="0" y="0" flags="0x204"/>
      <component glyphName="caron" x="99" y="199" flags="0x4"/>
    </TTGlyph>
    <TTGlyph name="Ncommaaccent" xMin="77" yMin="-224" xMax="527" yMax="690">
      <component glyphName="N" x="0" y="0" flags="0x204"/>
      <component glyphName="commaaccent" x="108" y="3" flags="0x4"/>
    </TTGlyph>
    <TTGlyph name="Ntilde" xMin="77" yMin="0" xMax="527" yMax="853">
      <component glyphName="N" x="0" y="0" flags="0x204"/>
      <component glyphName="tilde" x="103" y="199" flags="0x4"/>
    </TTGlyph>
    <TTGlyph name="O" xMin="48" yMin="-12" xMax="583" yMax="702">
      <contour>
        <pt x="583" y="346" on="1"/>
        <pt x="583" y="266" on="0"/>
        <pt x="544" y="134" on="0"/>
        <pt x="474" y="40" on="0"/>
        <pt x="375" y="-12" on="0"/>
        <pt x="315" y="-12" on="1"/>
        <pt x="255" y="-12" on="0"/>
        <pt x="155" y="40" on="0"/>
        <pt x="86" y="133" on="0"/>
        <pt x="48" y="265" on="0"/>
        <pt x="48" y="344" on="1"/>
        <pt x="48" y="424" on="0"/>
        <pt x="87" y="556" on="0"/>
        <pt x="157" y="650" on="0"/>
        <pt x="257" y="702" on="0"/>
        <pt x="317" y="702" on="1"/>
        <pt x="377" y="702" on="0"/>
        <pt x="476" y="650" on="0"/>
        <pt x="545" y="557" on="0"/>
        <pt x="583" y="425" on="0"/>
      </contour>
      <contour>
        <pt x="514" y="344" on="1"/>
        <pt x="514" y="409" on="0"/>
        <pt x="486" y="519" on="0"/>
        <pt x="435" y="598" on="0"/>
        <pt x="362" y="642" on="0"/>
        <pt x="316" y="642" on="1"/>
        <pt x="270" y="642" on="0"/>
        <pt x="196" y="598" on="0"/>
        <pt x="144" y="520" on="0"/>
        <pt x="117" y="411" on="0"/>
        <pt x="117" y="346" on="1"/>
        <pt x="117" y="281" on="0"/>
        <pt x="145" y="171" on="0"/>
        <pt x="196" y="93" on="0"/>
        <pt x="270" y="49" on="0"/>
        <pt x="316" y="49" on="1"/>
        <pt x="362" y="49" on="0"/>
        <pt x="436" y="92" on="0"/>
        <pt x="487" y="170" on="0"/>
        <pt x="514" y="279" on="0"/>
      </contour>
    </TTGlyph>
    <TTGlyph name="OE" xMin="48" yMin="0" xMax="740" yMax="690">
      <contour>
        <pt x="740" y="0" on="1"/>
        <pt x="370" y="0" on="1"/>
        <pt x="292" y="0" on="0"/>
        <pt x="171" y="50" on="0"/>
        <pt x="90" y="139" on="0"/>
        <pt x="48" y="267" on="0"/>
        <pt x="48" y="344" on="1"/>
        <pt x="48" y="423" on="0"/>
        <pt x="92" y="552" on="0"/>
        <pt x="175" y="641" on="0"/>
        <pt x="297" y="690" on="0"/>
        <pt x="374" y="690" on="1"/>
        <pt x="730" y="690" on="1"/>
        <pt x="730" y="629" on="1"/>
        <pt x="475" y="629" on="1"/>
        <pt x="475" y="392" on="1"/>
        <pt x="676" y="392" on="1"/>
        <pt x="686" y="331" on="1"/>
        <pt x="475" y="331" on="1"/>
        <pt x="475" y="61" on="1"/>
        <pt x="740" y="61" on="1"/>
      </contour>
      <contour>
        <pt x="408" y="60" on="1"/>
        <pt x="408" y="630" on="1"/>
        <pt x="366" y="630" on="1"/>
        <pt x="253" y="630" on="0"/>
        <pt x="117" y="486" on="0"/>
        <pt x="117" y="345" on="1"/>
        <pt x="117" y="207" on="0"/>
        <pt x="254" y="60" on="0"/>
        <pt x="367" y="60" on="1"/>
      </contour>
    </TTGlyph>
    <TTGlyph name="OE.flat" xMin="48" yMin="0" xMax="740" yMax="690">
      <contour>
        <pt x="740" y="0" on="1"/>
        <pt x="370" y="0" on="1"/>
        <pt x="292" y="0" on="0"/>
        <pt x="171" y="50" on="0"/>
        <pt x="90" y="139" on="0"/>
        <pt x="48" y="267" on="0"/>
        <pt x="48" y="344" on="1"/>
        <pt x="48" y="423" on="0"/>
        <pt x="92" y="552" on="0"/>
        <pt x="175" y="641" on="0"/>
        <pt x="297" y="690" on="0"/>
        <pt x="374" y="690" on="1"/>
        <pt x="730" y="690" on="1"/>
        <pt x="730" y="629" on="1"/>
        <pt x="475" y="629" on="1"/>
        <pt x="475" y="392" on="1"/>
        <pt x="681" y="392" on="1"/>
        <pt x="681" y="331" on="1"/>
        <pt x="475" y="331" on="1"/>
        <pt x="475" y="61" on="1"/>
        <pt x="740" y="61" on="1"/>
      </contour>
      <contour>
        <pt x="408" y="60" on="1"/>
        <pt x="408" y="630" on="1"/>
        <pt x="366" y="630" on="1"/>
        <pt x="253" y="630" on="0"/>
        <pt x="117" y="486" on="0"/>
        <pt x="117" y="345" on="1"/>
        <pt x="117" y="207" on="0"/>
        <pt x="254" y="60" on="0"/>
        <pt x="367" y="60" on="1"/>
      </contour>
    </TTGlyph>
    <TTGlyph name="Oacute" xMin="48" yMin="-12" xMax="583" yMax="895">
      <component glyphName="O" x="0" y="0" flags="0x4"/>
      <component glyphName="acute" x="164" y="213" flags="0x4"/>
    </TTGlyph>
    <TTGlyph name="Obreve" xMin="48" yMin="-12" xMax="583" yMax="872">
      <component glyphName="O" x="0" y="0" flags="0x4"/>
      <component glyphName="breve" x="112" y="213" flags="0x4"/>
    </TTGlyph>
    <TTGlyph name="Ocircumflex" xMin="48" yMin="-12" xMax="583" yMax="891">
      <component glyphName="O" x="0" y="0" flags="0x4"/>
      <component glyphName="circumflex" x="112" y="213" flags="0x4"/>
    </TTGlyph>
    <TTGlyph name="Odieresis" xMin="48" yMin="-12" xMax="583" yMax="845">
      <component glyphName="O" x="0" y="0" flags="0x4"/>
      <component glyphName="dieresis" x="112" y="213" flags="0x4"/>
    </TTGlyph>
    <TTGlyph name="Ograve" xMin="48" yMin="-12" xMax="583" yMax="895">
      <component glyphName="O" x="0" y="0" flags="0x4"/>
      <component glyphName="grave" x="59" y="213" flags="0x4"/>
    </TTGlyph>
    <TTGlyph name="Ohungarumlaut" xMin="48" yMin="-12" xMax="583" yMax="896">
      <component glyphName="O" x="0" y="0" flags="0x4"/>
      <component glyphName="hungarumlaut" x="161" y="213" flags="0x4"/>
    </TTGlyph>
    <TTGlyph name="Omacron" xMin="48" yMin="-12" xMax="583" yMax="833">
      <component glyphName="O" x="0" y="0" flags="0x4"/>
      <component glyphName="macron" x="112" y="213" flags="0x4"/>
    </TTGlyph>
    <TTGlyph name="Oslash" xMin="42" yMin="-12" xMax="589" yMax="702">
      <contour>
        <pt x="315" y="-12" on="1"/>
        <pt x="265" y="-12" on="0"/>
        <pt x="180" y="23" on="0"/>
        <pt x="147" y="56" on="1"/>
        <pt x="102" y="-8" on="1"/>
        <pt x="42" y="5" on="1"/>
        <pt x="110" y="101" on="1"/>
        <pt x="80" y="147" on="0"/>
        <pt x="48" y="271" on="0"/>
        <pt x="48" y="344" on="1"/>
        <pt x="48" y="424" on="0"/>
        <pt x="86" y="556" on="0"/>
        <pt x="156" y="650" on="0"/>
        <pt x="256" y="702" on="0"/>
        <pt x="317" y="702" on="1"/>
        <pt x="367" y="702" on="0"/>
        <pt x="452" y="667" on="0"/>
        <pt x="485" y="634" on="1"/>
        <pt x="530" y="698" on="1"/>
        <pt x="589" y="684" on="1"/>
        <pt x="522" y="589" on="1"/>
        <pt x="552" y="543" on="0"/>
        <pt x="584" y="419" on="0"/>
        <pt x="584" y="346" on="1"/>
        <pt x="584" y="266" on="0"/>
        <pt x="546" y="134" on="0"/>
        <pt x="476" y="40" on="0"/>
        <pt x="376" y="-12" on="0"/>
      </contour>
      <contour>
        <pt x="117" y="346" on="1"/>
        <pt x="117" y="291" on="0"/>
        <pt x="136" y="196" on="0"/>
        <pt x="154" y="159" on="1"/>
        <pt x="447" y="579" on="1"/>
        <pt x="422" y="609" on="0"/>
        <pt x="355" y="642" on="0"/>
        <pt x="315" y="642" on="1"/>
        <pt x="269" y="642" on="0"/>
        <pt x="195" y="598" on="0"/>
        <pt x="144" y="520" on="0"/>
        <pt x="117" y="411" on="0"/>
      </contour>
      <contour>
        <pt x="317" y="48" on="1"/>
        <pt x="363" y="48" on="0"/>
        <pt x="437" y="92" on="0"/>
        <pt x="489" y="170" on="0"/>
        <pt x="516" y="279" on="0"/>
        <pt x="516" y="344" on="1"/>
        <pt x="516" y="399" on="0"/>
        <pt x="497" y="495" on="0"/>
        <pt x="478" y="532" on="1"/>
        <pt x="185" y="111" on="1"/>
        <pt x="210" y="81" on="0"/>
        <pt x="277" y="48" on="0"/>
      </contour>
    </TTGlyph>
    <TTGlyph name="Oslashacute" xMin="42" yMin="-12" xMax="589" yMax="895">
      <component glyphName="Oslash" x="0" y="0" flags="0x204"/>
      <component glyphName="acute" x="166" y="213" flags="0x4"/>
    </TTGlyph>
    <TTGlyph name="Otilde" xMin="48" yMin="-12" xMax="583" yMax="867">
      <component glyphName="O" x="0" y="0" flags="0x4"/>
      <component glyphName="tilde" x="115" y="213" flags="0x4"/>
    </TTGlyph>
    <TTGlyph name="P" xMin="77" yMin="0" xMax="441" yMax="690">
      <contour>
        <pt x="77" y="0" on="1"/>
        <pt x="77" y="690" on="1"/>
        <pt x="220" y="690" on="1"/>
        <pt x="324" y="690" on="0"/>
        <pt x="441" y="587" on="0"/>
        <pt x="441" y="492" on="1"/>
        <pt x="441" y="391" on="0"/>
        <pt x="312" y="285" on="0"/>
        <pt x="208" y="285" on="1"/>
        <pt x="144" y="285" on="1"/>
        <pt x="144" y="0" on="1"/>
      </contour>
      <contour>
        <pt x="373" y="490" on="1"/>
        <pt x="373" y="558" on="0"/>
        <pt x="295" y="630" on="0"/>
        <pt x="217" y="630" on="1"/>
        <pt x="144" y="630" on="1"/>
        <pt x="144" y="345" on="1"/>
        <pt x="210" y="345" on="1"/>
        <pt x="290" y="345" on="0"/>
        <pt x="373" y="420" on="0"/>
      </contour>
    </TTGlyph>
    <TTGlyph name="Q" xMin="48" yMin="-136" xMax="584" yMax="702">
      <contour>
        <pt x="554" y="-136" on="1"/>
        <pt x="245" y="-6" on="1"/>
        <pt x="153" y="34" on="0"/>
        <pt x="48" y="198" on="0"/>
        <pt x="48" y="344" on="1"/>
        <pt x="48" y="424" on="0"/>
        <pt x="87" y="556" on="0"/>
        <pt x="157" y="650" on="0"/>
        <pt x="257" y="702" on="0"/>
        <pt x="317" y="702" on="1"/>
        <pt x="377" y="702" on="0"/>
        <pt x="477" y="650" on="0"/>
        <pt x="546" y="557" on="0"/>
        <pt x="584" y="425" on="0"/>
        <pt x="584" y="346" on="1"/>
        <pt x="584" y="202" on="0"/>
        <pt x="470" y="24" on="0"/>
        <pt x="376" y="1" on="1"/>
        <pt x="567" y="-72" on="1"/>
      </contour>
      <contour>
        <pt x="514" y="344" on="1"/>
        <pt x="514" y="409" on="0"/>
        <pt x="486" y="519" on="0"/>
        <pt x="435" y="598" on="0"/>
        <pt x="362" y="642" on="0"/>
        <pt x="316" y="642" on="1"/>
        <pt x="270" y="642" on="0"/>
        <pt x="196" y="598" on="0"/>
        <pt x="144" y="521" on="0"/>
        <pt x="117" y="411" on="0"/>
        <pt x="117" y="345" on="1"/>
        <pt x="117" y="280" on="0"/>
        <pt x="145" y="170" on="0"/>
        <pt x="196" y="91" on="0"/>
        <pt x="270" y="46" on="0"/>
        <pt x="316" y="46" on="1"/>
        <pt x="362" y="46" on="0"/>
        <pt x="436" y="91" on="0"/>
        <pt x="487" y="170" on="0"/>
        <pt x="514" y="279" on="0"/>
      </contour>
    </TTGlyph>
    <TTGlyph name="Q.alt" xMin="48" yMin="-14" xMax="597" yMax="702">
      <contour>
        <pt x="585" y="-14" on="1"/>
        <pt x="493" y="68" on="1"/>
        <pt x="459" y="30" on="0"/>
        <pt x="368" y="-12" on="0"/>
        <pt x="315" y="-12" on="1"/>
        <pt x="255" y="-12" on="0"/>
        <pt x="155" y="40" on="0"/>
        <pt x="86" y="133" on="0"/>
        <pt x="48" y="265" on="0"/>
        <pt x="48" y="344" on="1"/>
        <pt x="48" y="424" on="0"/>
        <pt x="87" y="556" on="0"/>
        <pt x="157" y="650" on="0"/>
        <pt x="257" y="702" on="0"/>
        <pt x="317" y="702" on="1"/>
        <pt x="377" y="702" on="0"/>
        <pt x="477" y="650" on="0"/>
        <pt x="546" y="557" on="0"/>
        <pt x="584" y="425" on="0"/>
        <pt x="584" y="346" on="1"/>
        <pt x="584" y="278" on="0"/>
        <pt x="555" y="160" on="0"/>
        <pt x="528" y="115" on="1"/>
        <pt x="597" y="56" on="1"/>
      </contour>
      <contour>
        <pt x="316" y="49" on="1"/>
        <pt x="356" y="49" on="0"/>
        <pt x="421" y="80" on="0"/>
        <pt x="446" y="109" on="1"/>
        <pt x="299" y="234" on="1"/>
        <pt x="375" y="250" on="1"/>
        <pt x="478" y="158" on="1"/>
        <pt x="496" y="195" on="0"/>
        <pt x="515" y="289" on="0"/>
        <pt x="515" y="344" on="1"/>
        <pt x="515" y="409" on="0"/>
        <pt x="487" y="519" on="0"/>
        <pt x="436" y="598" on="0"/>
        <pt x="362" y="642" on="0"/>
        <pt x="316" y="642" on="1"/>
        <pt x="270" y="642" on="0"/>
        <pt x="196" y="598" on="0"/>
        <pt x="144" y="520" on="0"/>
        <pt x="117" y="411" on="0"/>
        <pt x="117" y="346" on="1"/>
        <pt x="117" y="281" on="0"/>
        <pt x="145" y="171" on="0"/>
        <pt x="196" y="93" on="0"/>
        <pt x="270" y="49" on="0"/>
      </contour>
    </TTGlyph>
    <TTGlyph name="Q.alt_flat" xMin="48" yMin="-18" xMax="592" yMax="702">
      <contour>
        <pt x="592" y="-18" on="1"/>
        <pt x="493" y="68" on="1"/>
        <pt x="459" y="30" on="0"/>
        <pt x="368" y="-12" on="0"/>
        <pt x="315" y="-12" on="1"/>
        <pt x="255" y="-12" on="0"/>
        <pt x="155" y="40" on="0"/>
        <pt x="86" y="133" on="0"/>
        <pt x="48" y="265" on="0"/>
        <pt x="48" y="344" on="1"/>
        <pt x="48" y="424" on="0"/>
        <pt x="87" y="556" on="0"/>
        <pt x="157" y="650" on="0"/>
        <pt x="257" y="702" on="0"/>
        <pt x="317" y="702" on="1"/>
        <pt x="377" y="702" on="0"/>
        <pt x="477" y="650" on="0"/>
        <pt x="546" y="557" on="0"/>
        <pt x="584" y="425" on="0"/>
        <pt x="584" y="346" on="1"/>
        <pt x="584" y="278" on="0"/>
        <pt x="555" y="161" on="0"/>
        <pt x="528" y="116" on="1"/>
        <pt x="592" y="62" on="1"/>
      </contour>
      <contour>
        <pt x="316" y="49" on="1"/>
        <pt x="356" y="49" on="0"/>
        <pt x="421" y="80" on="0"/>
        <pt x="446" y="108" on="1"/>
        <pt x="333" y="201" on="1"/>
        <pt x="333" y="282" on="1"/>
        <pt x="478" y="158" on="1"/>
        <pt x="496" y="194" on="0"/>
        <pt x="515" y="289" on="0"/>
        <pt x="515" y="344" on="1"/>
        <pt x="515" y="409" on="0"/>
        <pt x="487" y="519" on="0"/>
        <pt x="436" y="598" on="0"/>
        <pt x="362" y="642" on="0"/>
        <pt x="316" y="642" on="1"/>
        <pt x="270" y="642" on="0"/>
        <pt x="196" y="598" on="0"/>
        <pt x="144" y="520" on="0"/>
        <pt x="117" y="411" on="0"/>
        <pt x="117" y="346" on="1"/>
        <pt x="117" y="281" on="0"/>
        <pt x="145" y="171" on="0"/>
        <pt x="196" y="93" on="0"/>
        <pt x="270" y="49" on="0"/>
      </contour>
    </TTGlyph>
    <TTGlyph name="R" xMin="77" yMin="-7" xMax="490" yMax="690">
      <contour>
        <pt x="421" y="-7" on="1"/>
        <pt x="222" y="303" on="1"/>
        <pt x="144" y="303" on="1"/>
        <pt x="144" y="0" on="1"/>
        <pt x="77" y="0" on="1"/>
        <pt x="77" y="690" on="1"/>
        <pt x="227" y="690" on="1"/>
        <pt x="328" y="690" on="0"/>
        <pt x="443" y="588" on="0"/>
        <pt x="443" y="500" on="1"/>
        <pt x="443" y="423" on="0"/>
        <pt x="357" y="328" on="0"/>
        <pt x="293" y="312" on="1"/>
        <pt x="490" y="8" on="1"/>
      </contour>
      <contour>
        <pt x="375" y="497" on="1"/>
        <pt x="375" y="560" on="0"/>
        <pt x="299" y="630" on="0"/>
        <pt x="224" y="630" on="1"/>
        <pt x="144" y="630" on="1"/>
        <pt x="144" y="360" on="1"/>
        <pt x="214" y="360" on="1"/>
        <pt x="291" y="360" on="0"/>
        <pt x="375" y="433" on="0"/>
      </contour>
    </TTGlyph>
    <TTGlyph name="R.flat" xMin="77" yMin="0" xMax="496" yMax="690">
      <contour>
        <pt x="375" y="497" on="1"/>
        <pt x="375" y="560" on="0"/>
        <pt x="299" y="630" on="0"/>
        <pt x="224" y="630" on="1"/>
        <pt x="144" y="630" on="1"/>
        <pt x="144" y="360" on="1"/>
        <pt x="214" y="360" on="1"/>
        <pt x="291" y="360" on="0"/>
        <pt x="375" y="433" on="0"/>
      </contour>
      <contour>
        <pt x="144" y="0" on="1"/>
        <pt x="77" y="0" on="1"/>
        <pt x="77" y="690" on="1"/>
        <pt x="227" y="690" on="1"/>
        <pt x="328" y="690" on="0"/>
        <pt x="443" y="588" on="0"/>
        <pt x="443" y="500" on="1"/>
        <pt x="443" y="423" on="0"/>
        <pt x="357" y="328" on="0"/>
        <pt x="293" y="312" on="1"/>
        <pt x="496" y="0" on="1"/>
        <pt x="417" y="0" on="1"/>
        <pt x="222" y="303" on="1"/>
        <pt x="144" y="303" on="1"/>
      </contour>
    </TTGlyph>
    <TTGlyph name="R_p" xMin="82" yMin="-183" xMax="892" yMax="683">
      <contour>
        <pt x="416" y="-7" on="1"/>
        <pt x="224" y="302" on="1"/>
        <pt x="148" y="302" on="1"/>
        <pt x="148" y="0" on="1"/>
        <pt x="82" y="0" on="1"/>
        <pt x="82" y="683" on="1"/>
        <pt x="229" y="683" on="1"/>
        <pt x="330" y="683" on="0"/>
        <pt x="445" y="582" on="0"/>
        <pt x="445" y="495" on="1"/>
        <pt x="445" y="420" on="0"/>
        <pt x="359" y="327" on="0"/>
        <pt x="294" y="311" on="1"/>
        <pt x="483" y="8" on="1"/>
      </contour>
      <contour>
        <pt x="379" y="492" on="1"/>
        <pt x="379" y="555" on="0"/>
        <pt x="301" y="625" on="0"/>
        <pt x="226" y="625" on="1"/>
        <pt x="147" y="625" on="1"/>
        <pt x="147" y="358" on="1"/>
        <pt x="217" y="358" on="1"/>
        <pt x="294" y="358" on="0"/>
        <pt x="379" y="430" on="0"/>
      </contour>
      <contour>
        <pt x="827" y="247" on="1"/>
        <pt x="827" y="337" on="0"/>
        <pt x="765" y="426" on="0"/>
        <pt x="716" y="426" on="1"/>
        <pt x="684" y="426" on="0"/>
        <pt x="626" y="386" on="0"/>
        <pt x="596" y="352" on="1"/>
        <pt x="596" y="73" on="1"/>
        <pt x="619" y="62" on="0"/>
        <pt x="664" y="50" on="0"/>
        <pt x="692" y="50" on="1"/>
        <pt x="749" y="50" on="0"/>
        <pt x="827" y="147" on="0"/>
      </contour>
      <contour>
        <pt x="892" y="249" on="1"/>
        <pt x="892" y="184" on="0"/>
        <pt x="860" y="88" on="0"/>
        <pt x="806" y="25" on="0"/>
        <pt x="734" y="-6" on="0"/>
        <pt x="695" y="-6" on="1"/>
        <pt x="667" y="-6" on="0"/>
        <pt x="618" y="6" on="0"/>
        <pt x="596" y="14" on="1"/>
        <pt x="596" y="-172" on="1"/>
        <pt x="532" y="-183" on="1"/>
        <pt x="532" y="475" on="1"/>
        <pt x="581" y="475" on="1"/>
        <pt x="591" y="412" on="1"/>
        <pt x="619" y="443" on="0"/>
        <pt x="681" y="485" on="0"/>
        <pt x="724" y="485" on="1"/>
        <pt x="794" y="485" on="0"/>
        <pt x="892" y="368" on="0"/>
      </contour>
    </TTGlyph>
    <TTGlyph name="R_p.flat" xMin="82" yMin="-183" xMax="892" yMax="683">
      <contour>
        <pt x="379" y="492" on="1"/>
        <pt x="379" y="555" on="0"/>
        <pt x="301" y="625" on="0"/>
        <pt x="226" y="625" on="1"/>
        <pt x="147" y="625" on="1"/>
        <pt x="147" y="358" on="1"/>
        <pt x="217" y="358" on="1"/>
        <pt x="294" y="358" on="0"/>
        <pt x="379" y="430" on="0"/>
      </contour>
      <contour>
        <pt x="827" y="247" on="1"/>
        <pt x="827" y="337" on="0"/>
        <pt x="765" y="426" on="0"/>
        <pt x="716" y="426" on="1"/>
        <pt x="684" y="426" on="0"/>
        <pt x="626" y="386" on="0"/>
        <pt x="596" y="352" on="1"/>
        <pt x="596" y="73" on="1"/>
        <pt x="619" y="62" on="0"/>
        <pt x="664" y="50" on="0"/>
        <pt x="692" y="50" on="1"/>
        <pt x="749" y="50" on="0"/>
        <pt x="827" y="147" on="0"/>
      </contour>
      <contour>
        <pt x="411" y="0" on="1"/>
        <pt x="224" y="302" on="1"/>
        <pt x="148" y="302" on="1"/>
        <pt x="148" y="0" on="1"/>
        <pt x="82" y="0" on="1"/>
        <pt x="82" y="683" on="1"/>
        <pt x="229" y="683" on="1"/>
        <pt x="330" y="683" on="0"/>
        <pt x="445" y="582" on="0"/>
        <pt x="445" y="495" on="1"/>
        <pt x="445" y="420" on="0"/>
        <pt x="359" y="327" on="0"/>
        <pt x="294" y="311" on="1"/>
        <pt x="489" y="0" on="1"/>
      </contour>
      <contour>
        <pt x="892" y="249" on="1"/>
        <pt x="892" y="184" on="0"/>
        <pt x="860" y="88" on="0"/>
        <pt x="806" y="25" on="0"/>
        <pt x="734" y="-6" on="0"/>
        <pt x="695" y="-6" on="1"/>
        <pt x="667" y="-6" on="0"/>
        <pt x="618" y="6" on="0"/>
        <pt x="596" y="14" on="1"/>
        <pt x="596" y="-172" on="1"/>
        <pt x="532" y="-183" on="1"/>
        <pt x="532" y="475" on="1"/>
        <pt x="581" y="475" on="1"/>
        <pt x="591" y="412" on="1"/>
        <pt x="619" y="443" on="0"/>
        <pt x="681" y="485" on="0"/>
        <pt x="724" y="485" on="1"/>
        <pt x="794" y="485" on="0"/>
        <pt x="892" y="368" on="0"/>
      </contour>
    </TTGlyph>
    <TTGlyph name="Racute" xMin="77" yMin="-7" xMax="490" yMax="886">
      <component glyphName="R" x="0" y="0" flags="0x204"/>
      <component glyphName="acute" x="87" y="204" flags="0x4"/>
    </TTGlyph>
    <TTGlyph name="Racute.flat" xMin="77" yMin="0" xMax="496" yMax="886">
      <component glyphName="R.flat" x="0" y="0" flags="0x204"/>
      <component glyphName="acute" x="87" y="204" flags="0x4"/>
    </TTGlyph>
    <TTGlyph name="Rcaron" xMin="77" yMin="-7" xMax="490" yMax="882">
      <component glyphName="R" x="0" y="0" flags="0x204"/>
      <component glyphName="caron" x="35" y="204" flags="0x4"/>
    </TTGlyph>
    <TTGlyph name="Rcaron.flat" xMin="77" yMin="0" xMax="496" yMax="882">
      <component glyphName="R.flat" x="0" y="0" flags="0x204"/>
      <component glyphName="caron" x="35" y="204" flags="0x4"/>
    </TTGlyph>
    <TTGlyph name="Rcommaaccent" xMin="77" yMin="-224" xMax="490" yMax="690">
      <component glyphName="R" x="0" y="0" flags="0x204"/>
      <component glyphName="commaaccent" x="63" y="3" flags="0x4"/>
    </TTGlyph>
    <TTGlyph name="Rcommaaccent.flat" xMin="77" yMin="-224" xMax="496" yMax="690">
      <component glyphName="R.flat" x="0" y="0" flags="0x204"/>
      <component glyphName="commaaccent" x="63" y="3" flags="0x4"/>
    </TTGlyph>
    <TTGlyph name="S" xMin="45" yMin="-7" xMax="410" yMax="697">
      <contour>
        <pt x="410" y="177" on="1"/>
        <pt x="410" y="94" on="0"/>
        <pt x="297" y="-7" on="0"/>
        <pt x="210" y="-7" on="1"/>
        <pt x="161" y="-7" on="0"/>
        <pt x="78" y="16" on="0"/>
        <pt x="45" y="34" on="1"/>
        <pt x="55" y="102" on="1"/>
        <pt x="86" y="82" on="0"/>
        <pt x="168" y="53" on="0"/>
        <pt x="213" y="53" on="1"/>
        <pt x="270" y="53" on="0"/>
        <pt x="342" y="118" on="0"/>
        <pt x="342" y="172" on="1"/>
        <pt x="342" y="220" on="0"/>
        <pt x="286" y="287" on="0"/>
        <pt x="217" y="327" on="1"/>
        <pt x="134" y="374" on="0"/>
        <pt x="57" y="460" on="0"/>
        <pt x="57" y="529" on="1"/>
        <pt x="57" y="604" on="0"/>
        <pt x="162" y="697" on="0"/>
        <pt x="241" y="697" on="1"/>
        <pt x="284" y="697" on="0"/>
        <pt x="352" y="678" on="0"/>
        <pt x="378" y="662" on="1"/>
        <pt x="368" y="595" on="1"/>
        <pt x="340" y="614" on="0"/>
        <pt x="276" y="637" on="0"/>
        <pt x="239" y="637" on="1"/>
        <pt x="186" y="637" on="0"/>
        <pt x="125" y="577" on="0"/>
        <pt x="125" y="533" on="1"/>
        <pt x="125" y="487" on="0"/>
        <pt x="181" y="427" on="0"/>
        <pt x="250" y="387" on="1"/>
        <pt x="334" y="338" on="0"/>
        <pt x="410" y="247" on="0"/>
      </contour>
    </TTGlyph>
    <TTGlyph name="Sacute" xMin="45" yMin="-7" xMax="410" yMax="895">
      <component glyphName="S" x="0" y="0" flags="0x4"/>
      <component glyphName="acute" x="80" y="213" flags="0x4"/>
    </TTGlyph>
    <TTGlyph name="Scaron" xMin="45" yMin="-7" xMax="410" yMax="891">
      <component glyphName="S" x="0" y="0" flags="0x4"/>
      <component glyphName="caron" x="28" y="213" flags="0x4"/>
    </TTGlyph>
    <TTGlyph name="Scedilla" xMin="45" yMin="-187" xMax="410" yMax="697">
      <component glyphName="S" x="0" y="0" flags="0x4"/>
      <component glyphName="cedilla" x="11" y="-1" flags="0x4"/>
    </TTGlyph>
    <TTGlyph name="Scommaaccent" xMin="45" yMin="-229" xMax="410" yMax="697">
      <component glyphName="S" x="0" y="0" flags="0x4"/>
      <component glyphName="commaaccent" x="35" y="-2" flags="0x4"/>
    </TTGlyph>
    <TTGlyph name="T" xMin="23" yMin="0" xMax="473" yMax="690">
      <contour>
        <pt x="473" y="629" on="1"/>
        <pt x="279" y="629" on="1"/>
        <pt x="279" y="0" on="1"/>
        <pt x="212" y="0" on="1"/>
        <pt x="212" y="629" on="1"/>
        <pt x="23" y="629" on="1"/>
        <pt x="23" y="690" on="1"/>
        <pt x="463" y="690" on="1"/>
      </contour>
    </TTGlyph>
    <TTGlyph name="T.flat" xMin="23" yMin="0" xMax="468" yMax="690">
      <contour>
        <pt x="468" y="629" on="1"/>
        <pt x="279" y="629" on="1"/>
        <pt x="279" y="0" on="1"/>
        <pt x="212" y="0" on="1"/>
        <pt x="212" y="629" on="1"/>
        <pt x="23" y="629" on="1"/>
        <pt x="23" y="690" on="1"/>
        <pt x="468" y="690" on="1"/>
      </contour>
    </TTGlyph>
    <TTGlyph name="Tcaron" xMin="23" yMin="0" xMax="473" yMax="882">
      <component glyphName="T" x="0" y="0" flags="0x204"/>
      <component glyphName="caron" x="43" y="204" flags="0x4"/>
    </TTGlyph>
    <TTGlyph name="Tcaron.flat" xMin="23" yMin="0" xMax="468" yMax="882">
      <component glyphName="T.flat" x="0" y="0" flags="0x204"/>
      <component glyphName="caron" x="43" y="204" flags="0x4"/>
    </TTGlyph>
    <TTGlyph name="Tcommaaccent" xMin="23" yMin="-227" xMax="473" yMax="690">
      <component glyphName="T" x="0" y="0" flags="0x204"/>
      <component glyphName="commaaccent" x="52" y="0" flags="0x4"/>
    </TTGlyph>
    <TTGlyph name="Tcommaaccent.flat" xMin="23" yMin="-227" xMax="468" yMax="690">
      <component glyphName="T.flat" x="0" y="0" flags="0x204"/>
      <component glyphName="commaaccent" x="52" y="0" flags="0x4"/>
    </TTGlyph>
    <TTGlyph name="Thorn" xMin="77" yMin="0" xMax="443" yMax="690">
      <contour>
        <pt x="443" y="357" on="1"/>
        <pt x="443" y="256" on="0"/>
        <pt x="313" y="151" on="0"/>
        <pt x="209" y="151" on="1"/>
        <pt x="144" y="151" on="1"/>
        <pt x="144" y="0" on="1"/>
        <pt x="77" y="0" on="1"/>
        <pt x="77" y="690" on="1"/>
        <pt x="144" y="690" on="1"/>
        <pt x="144" y="556" on="1"/>
        <pt x="222" y="556" on="1"/>
        <pt x="326" y="556" on="0"/>
        <pt x="443" y="452" on="0"/>
      </contour>
      <contour>
        <pt x="375" y="356" on="1"/>
        <pt x="375" y="424" on="0"/>
        <pt x="296" y="496" on="0"/>
        <pt x="218" y="496" on="1"/>
        <pt x="144" y="496" on="1"/>
        <pt x="144" y="211" on="1"/>
        <pt x="211" y="211" on="1"/>
        <pt x="291" y="211" on="0"/>
        <pt x="375" y="285" on="0"/>
      </contour>
    </TTGlyph>
    <TTGlyph name="U" xMin="69" yMin="-10" xMax="519" yMax="690">
      <contour>
        <pt x="519" y="237" on="1"/>
        <pt x="519" y="124" on="0"/>
        <pt x="400" y="-10" on="0"/>
        <pt x="293" y="-10" on="1"/>
        <pt x="185" y="-10" on="0"/>
        <pt x="69" y="123" on="0"/>
        <pt x="69" y="233" on="1"/>
        <pt x="69" y="690" on="1"/>
        <pt x="137" y="690" on="1"/>
        <pt x="137" y="240" on="1"/>
        <pt x="137" y="156" on="0"/>
        <pt x="213" y="51" on="0"/>
        <pt x="294" y="51" on="1"/>
        <pt x="373" y="51" on="0"/>
        <pt x="452" y="152" on="0"/>
        <pt x="452" y="237" on="1"/>
        <pt x="452" y="690" on="1"/>
        <pt x="519" y="690" on="1"/>
      </contour>
    </TTGlyph>
    <TTGlyph name="U.alt" xMin="73" yMin="-8" xMax="519" yMax="690">
      <contour>
        <pt x="468" y="0" on="1"/>
        <pt x="457" y="73" on="1"/>
        <pt x="412" y="37" on="0"/>
        <pt x="315" y="-8" on="0"/>
        <pt x="264" y="-8" on="1"/>
        <pt x="177" y="-8" on="0"/>
        <pt x="73" y="89" on="0"/>
        <pt x="73" y="191" on="1"/>
        <pt x="73" y="690" on="1"/>
        <pt x="140" y="690" on="1"/>
        <pt x="140" y="196" on="1"/>
        <pt x="140" y="124" on="0"/>
        <pt x="208" y="52" on="0"/>
        <pt x="269" y="52" on="1"/>
        <pt x="316" y="52" on="0"/>
        <pt x="405" y="97" on="0"/>
        <pt x="451" y="136" on="1"/>
        <pt x="451" y="690" on="1"/>
        <pt x="519" y="690" on="1"/>
        <pt x="519" y="0" on="1"/>
      </contour>
    </TTGlyph>
    <TTGlyph name="Uacute" xMin="69" yMin="-10" xMax="519" yMax="881">
      <component glyphName="U" x="0" y="0" flags="0x204"/>
      <component glyphName="acute" x="142" y="199" flags="0x4"/>
    </TTGlyph>
    <TTGlyph name="Uacute.alt" xMin="73" yMin="-8" xMax="519" yMax="881">
      <component glyphName="U.alt" x="0" y="0" flags="0x4"/>
      <component glyphName="acute" x="143" y="199" flags="0x4"/>
    </TTGlyph>
    <TTGlyph name="Ubreve" xMin="69" yMin="-10" xMax="519" yMax="852">
      <component glyphName="U" x="0" y="0" flags="0x204"/>
      <component glyphName="breve" x="90" y="193" flags="0x4"/>
    </TTGlyph>
    <TTGlyph name="Ubreve.alt" xMin="73" yMin="-8" xMax="519" yMax="852">
      <component glyphName="U.alt" x="0" y="0" flags="0x4"/>
      <component glyphName="breve" x="92" y="193" flags="0x4"/>
    </TTGlyph>
    <TTGlyph name="Ucircumflex" xMin="69" yMin="-10" xMax="519" yMax="877">
      <component glyphName="U" x="0" y="0" flags="0x204"/>
      <component glyphName="circumflex" x="90" y="199" flags="0x4"/>
    </TTGlyph>
    <TTGlyph name="Ucircumflex.alt" xMin="73" yMin="-8" xMax="519" yMax="877">
      <component glyphName="U.alt" x="0" y="0" flags="0x4"/>
      <component glyphName="circumflex" x="92" y="199" flags="0x4"/>
    </TTGlyph>
    <TTGlyph name="Udieresis" xMin="69" yMin="-10" xMax="519" yMax="831">
      <component glyphName="U" x="0" y="0" flags="0x204"/>
      <component glyphName="dieresis" x="90" y="199" flags="0x4"/>
    </TTGlyph>
    <TTGlyph name="Udieresis.alt" xMin="73" yMin="-8" xMax="519" yMax="831">
      <component glyphName="U.alt" x="0" y="0" flags="0x4"/>
      <component glyphName="dieresis" x="92" y="199" flags="0x4"/>
    </TTGlyph>
    <TTGlyph name="Ugrave" xMin="69" yMin="-10" xMax="519" yMax="881">
      <component glyphName="U" x="0" y="0" flags="0x204"/>
      <component glyphName="grave" x="37" y="199" flags="0x4"/>
    </TTGlyph>
    <TTGlyph name="Ugrave.alt" xMin="73" yMin="-8" xMax="519" yMax="881">
      <component glyphName="U.alt" x="0" y="0" flags="0x4"/>
      <component glyphName="grave" x="39" y="199" flags="0x4"/>
    </TTGlyph>
    <TTGlyph name="Uhungarumlaut" xMin="69" yMin="-10" xMax="519" yMax="882">
      <component glyphName="U" x="0" y="0" flags="0x204"/>
      <component glyphName="hungarumlaut" x="138" y="199" flags="0x4"/>
    </TTGlyph>
    <TTGlyph name="Uhungarumlaut.alt" xMin="73" yMin="-8" xMax="519" yMax="882">
      <component glyphName="U.alt" x="0" y="0" flags="0x4"/>
      <component glyphName="hungarumlaut" x="140" y="199" flags="0x4"/>
    </TTGlyph>
    <TTGlyph name="Umacron" xMin="69" yMin="-10" xMax="519" yMax="819">
      <component glyphName="U" x="0" y="0" flags="0x204"/>
      <component glyphName="macron" x="90" y="199" flags="0x4"/>
    </TTGlyph>
    <TTGlyph name="Umacron.alt" xMin="73" yMin="-8" xMax="519" yMax="819">
      <component glyphName="U.alt" x="0" y="0" flags="0x4"/>
      <component glyphName="macron" x="92" y="199" flags="0x4"/>
    </TTGlyph>
    <TTGlyph name="Uogonek" xMin="69" yMin="-170" xMax="519" yMax="690">
      <component glyphName="U" x="0" y="0" flags="0x204"/>
      <component glyphName="ogonek" x="94" y="0" flags="0x4"/>
    </TTGlyph>
    <TTGlyph name="Uogonek.alt" xMin="73" yMin="-170" xMax="536" yMax="690">
      <component glyphName="U.alt" x="0" y="0" flags="0x4"/>
      <component glyphName="ogonek" x="270" y="0" flags="0x4"/>
    </TTGlyph>
    <TTGlyph name="Uring" xMin="69" yMin="-10" xMax="519" yMax="910">
      <component glyphName="U" x="0" y="0" flags="0x204"/>
      <component glyphName="ring" x="89" y="188" flags="0x4"/>
    </TTGlyph>
    <TTGlyph name="Uring.alt" xMin="73" yMin="-8" xMax="519" yMax="910">
      <component glyphName="U.alt" x="0" y="0" flags="0x4"/>
      <component glyphName="ring" x="91" y="188" flags="0x4"/>
    </TTGlyph>
    <TTGlyph name="V" xMin="31" yMin="-4" xMax="548" yMax="696">
      <contour>
        <pt x="548" y="690" on="1"/>
        <pt x="320" y="-4" on="1"/>
        <pt x="256" y="-4" on="1"/>
        <pt x="31" y="682" on="1"/>
        <pt x="97" y="696" on="1"/>
        <pt x="289" y="89" on="1"/>
        <pt x="478" y="690" on="1"/>
      </contour>
    </TTGlyph>
    <TTGlyph name="V.flat" xMin="30" yMin="-4" xMax="549" yMax="690">
      <contour>
        <pt x="549" y="690" on="1"/>
        <pt x="322" y="-4" on="1"/>
        <pt x="258" y="-4" on="1"/>
        <pt x="30" y="690" on="1"/>
        <pt x="101" y="690" on="1"/>
        <pt x="291" y="89" on="1"/>
        <pt x="480" y="690" on="1"/>
      </contour>
    </TTGlyph>
    <TTGlyph name="W" xMin="37" yMin="-2" xMax="845" yMax="696">
      <contour>
        <pt x="845" y="690" on="1"/>
        <pt x="668" y="-2" on="1"/>
        <pt x="607" y="-2" on="1"/>
        <pt x="439" y="590" on="1"/>
        <pt x="273" y="-2" on="1"/>
        <pt x="213" y="-2" on="1"/>
        <pt x="37" y="682" on="1"/>
        <pt x="104" y="696" on="1"/>
        <pt x="246" y="109" on="1"/>
        <pt x="406" y="690" on="1"/>
        <pt x="474" y="690" on="1"/>
        <pt x="638" y="109" on="1"/>
        <pt x="777" y="690" on="1"/>
      </contour>
    </TTGlyph>
    <TTGlyph name="W.alt" xMin="32" yMin="-3" xMax="834" yMax="696">
      <contour>
        <pt x="559" y="-3" on="1"/>
        <pt x="434" y="398" on="1"/>
        <pt x="306" y="-3" on="1"/>
        <pt x="243" y="-3" on="1"/>
        <pt x="32" y="682" on="1"/>
        <pt x="99" y="696" on="1"/>
        <pt x="277" y="95" on="1"/>
        <pt x="403" y="492" on="1"/>
        <pt x="344" y="682" on="1"/>
        <pt x="411" y="696" on="1"/>
        <pt x="592" y="95" on="1"/>
        <pt x="765" y="690" on="1"/>
        <pt x="834" y="690" on="1"/>
        <pt x="622" y="-3" on="1"/>
      </contour>
    </TTGlyph>
    <TTGlyph name="W.alt_flat" xMin="30" yMin="-3" xMax="835" yMax="690">
      <contour>
        <pt x="560" y="-3" on="1"/>
        <pt x="435" y="399" on="1"/>
        <pt x="307" y="-3" on="1"/>
        <pt x="244" y="-3" on="1"/>
        <pt x="30" y="690" on="1"/>
        <pt x="102" y="690" on="1"/>
        <pt x="278" y="95" on="1"/>
        <pt x="405" y="493" on="1"/>
        <pt x="343" y="690" on="1"/>
        <pt x="414" y="690" on="1"/>
        <pt x="593" y="95" on="1"/>
        <pt x="766" y="690" on="1"/>
        <pt x="835" y="690" on="1"/>
        <pt x="623" y="-3" on="1"/>
      </contour>
    </TTGlyph>
    <TTGlyph name="W.flat" xMin="35" yMin="-2" xMax="845" yMax="690">
      <contour>
        <pt x="845" y="690" on="1"/>
        <pt x="668" y="-2" on="1"/>
        <pt x="607" y="-2" on="1"/>
        <pt x="439" y="590" on="1"/>
        <pt x="273" y="-2" on="1"/>
        <pt x="213" y="-2" on="1"/>
        <pt x="35" y="690" on="1"/>
        <pt x="105" y="690" on="1"/>
        <pt x="246" y="109" on="1"/>
        <pt x="406" y="690" on="1"/>
        <pt x="474" y="690" on="1"/>
        <pt x="638" y="109" on="1"/>
        <pt x="777" y="690" on="1"/>
      </contour>
    </TTGlyph>
    <TTGlyph name="Wacute" xMin="37" yMin="-2" xMax="845" yMax="886">
      <component glyphName="W" x="0" y="0" flags="0x204"/>
      <component glyphName="acute" x="287" y="204" flags="0x4"/>
    </TTGlyph>
    <TTGlyph name="Wacute.alt" xMin="32" yMin="-3" xMax="834" yMax="886">
      <component glyphName="W.alt" x="0" y="0" flags="0x204"/>
      <component glyphName="acute" x="269" y="204" flags="0x4"/>
    </TTGlyph>
    <TTGlyph name="Wacute.alt_flat" xMin="30" yMin="-3" xMax="835" yMax="886">
      <component glyphName="W.alt_flat" x="0" y="0" flags="0x204"/>
      <component glyphName="acute" x="270" y="204" flags="0x4"/>
    </TTGlyph>
    <TTGlyph name="Wacute.flat" xMin="35" yMin="-2" xMax="845" yMax="886">
      <component glyphName="W.flat" x="0" y="0" flags="0x204"/>
      <component glyphName="acute" x="287" y="204" flags="0x4"/>
    </TTGlyph>
    <TTGlyph name="Wcircumflex" xMin="37" yMin="-2" xMax="845" yMax="881">
      <component glyphName="W" x="0" y="0" flags="0x204"/>
      <component glyphName="circumflex" x="236" y="203" flags="0x4"/>
    </TTGlyph>
    <TTGlyph name="Wcircumflex.alt" xMin="32" yMin="-3" xMax="834" yMax="882">
      <component glyphName="W.alt" x="0" y="0" flags="0x204"/>
      <component glyphName="circumflex" x="218" y="204" flags="0x4"/>
    </TTGlyph>
    <TTGlyph name="Wcircumflex.alt_flat" xMin="30" yMin="-3" xMax="835" yMax="882">
      <component glyphName="W.alt_flat" x="0" y="0" flags="0x204"/>
      <component glyphName="circumflex" x="218" y="204" flags="0x4"/>
    </TTGlyph>
    <TTGlyph name="Wcircumflex.flat" xMin="35" yMin="-2" xMax="845" yMax="881">
      <component glyphName="W.flat" x="0" y="0" flags="0x204"/>
      <component glyphName="circumflex" x="236" y="203" flags="0x4"/>
    </TTGlyph>
    <TTGlyph name="Wdieresis" xMin="37" yMin="-2" xMax="845" yMax="836">
      <component glyphName="W" x="0" y="0" flags="0x204"/>
      <component glyphName="dieresis" x="236" y="204" flags="0x4"/>
    </TTGlyph>
    <TTGlyph name="Wdieresis.alt" xMin="32" yMin="-3" xMax="834" yMax="836">
      <component glyphName="W.alt" x="0" y="0" flags="0x204"/>
      <component glyphName="dieresis" x="218" y="204" flags="0x4"/>
    </TTGlyph>
    <TTGlyph name="Wdieresis.alt_flat" xMin="30" yMin="-3" xMax="835" yMax="836">
      <component glyphName="W.alt_flat" x="0" y="0" flags="0x204"/>
      <component glyphName="dieresis" x="218" y="204" flags="0x4"/>
    </TTGlyph>
    <TTGlyph name="Wdieresis.flat" xMin="35" yMin="-2" xMax="845" yMax="836">
      <component glyphName="W.flat" x="0" y="0" flags="0x204"/>
      <component glyphName="dieresis" x="236" y="204" flags="0x4"/>
    </TTGlyph>
    <TTGlyph name="Wgrave" xMin="37" yMin="-2" xMax="845" yMax="886">
      <component glyphName="W" x="0" y="0" flags="0x204"/>
      <component glyphName="grave" x="183" y="204" flags="0x4"/>
    </TTGlyph>
    <TTGlyph name="Wgrave.alt" xMin="32" yMin="-3" xMax="834" yMax="886">
      <component glyphName="W.alt" x="0" y="0" flags="0x204"/>
      <component glyphName="grave" x="165" y="204" flags="0x4"/>
    </TTGlyph>
    <TTGlyph name="Wgrave.alt_flat" xMin="30" yMin="-3" xMax="835" yMax="886">
      <component glyphName="W.alt_flat" x="0" y="0" flags="0x204"/>
      <component glyphName="grave" x="165" y="204" flags="0x4"/>
    </TTGlyph>
    <TTGlyph name="Wgrave.flat" xMin="35" yMin="-2" xMax="845" yMax="886">
      <component glyphName="W.flat" x="0" y="0" flags="0x204"/>
      <component glyphName="grave" x="183" y="204" flags="0x4"/>
    </TTGlyph>
    <TTGlyph name="X" xMin="25" yMin="-6" xMax="517" yMax="696">
      <contour>
        <pt x="450" y="-6" on="1"/>
        <pt x="271" y="305" on="1"/>
        <pt x="98" y="0" on="1"/>
        <pt x="25" y="0" on="1"/>
        <pt x="235" y="357" on="1"/>
        <pt x="44" y="682" on="1"/>
        <pt x="111" y="696" on="1"/>
        <pt x="273" y="412" on="1"/>
        <pt x="429" y="690" on="1"/>
        <pt x="502" y="690" on="1"/>
        <pt x="309" y="361" on="1"/>
        <pt x="517" y="8" on="1"/>
      </contour>
    </TTGlyph>
    <TTGlyph name="X.flat" xMin="25" yMin="0" xMax="518" yMax="690">
      <contour>
        <pt x="443" y="0" on="1"/>
        <pt x="270" y="304" on="1"/>
        <pt x="98" y="0" on="1"/>
        <pt x="25" y="0" on="1"/>
        <pt x="234" y="356" on="1"/>
        <pt x="40" y="690" on="1"/>
        <pt x="115" y="690" on="1"/>
        <pt x="273" y="412" on="1"/>
        <pt x="430" y="690" on="1"/>
        <pt x="502" y="690" on="1"/>
        <pt x="309" y="359" on="1"/>
        <pt x="518" y="0" on="1"/>
      </contour>
    </TTGlyph>
    <TTGlyph name="Y" xMin="22" yMin="0" xMax="515" yMax="696">
      <contour>
        <pt x="515" y="690" on="1"/>
        <pt x="300" y="284" on="1"/>
        <pt x="300" y="0" on="1"/>
        <pt x="233" y="0" on="1"/>
        <pt x="233" y="284" on="1"/>
        <pt x="22" y="682" on="1"/>
        <pt x="91" y="696" on="1"/>
        <pt x="268" y="350" on="1"/>
        <pt x="441" y="690" on="1"/>
      </contour>
    </TTGlyph>
    <TTGlyph name="Y.flat" xMin="21" yMin="0" xMax="517" yMax="690">
      <contour>
        <pt x="517" y="690" on="1"/>
        <pt x="302" y="284" on="1"/>
        <pt x="302" y="0" on="1"/>
        <pt x="235" y="0" on="1"/>
        <pt x="235" y="284" on="1"/>
        <pt x="21" y="690" on="1"/>
        <pt x="97" y="690" on="1"/>
        <pt x="270" y="350" on="1"/>
        <pt x="442" y="690" on="1"/>
      </contour>
    </TTGlyph>
    <TTGlyph name="Yacute" xMin="22" yMin="0" xMax="515" yMax="879">
      <component glyphName="Y" x="0" y="0" flags="0x204"/>
      <component glyphName="acute" x="116" y="197" flags="0x4"/>
    </TTGlyph>
    <TTGlyph name="Yacute.flat" xMin="21" yMin="0" xMax="517" yMax="879">
      <component glyphName="Y.flat" x="0" y="0" flags="0x204"/>
      <component glyphName="acute" x="117" y="197" flags="0x4"/>
    </TTGlyph>
    <TTGlyph name="Ycircumflex" xMin="22" yMin="0" xMax="515" yMax="877">
      <component glyphName="Y" x="0" y="0" flags="0x204"/>
      <component glyphName="circumflex" x="64" y="199" flags="0x4"/>
    </TTGlyph>
    <TTGlyph name="Ycircumflex.flat" xMin="21" yMin="0" xMax="517" yMax="877">
      <component glyphName="Y.flat" x="0" y="0" flags="0x204"/>
      <component glyphName="circumflex" x="65" y="199" flags="0x4"/>
    </TTGlyph>
    <TTGlyph name="Ydieresis" xMin="22" yMin="0" xMax="515" yMax="831">
      <component glyphName="Y" x="0" y="0" flags="0x204"/>
      <component glyphName="dieresis" x="64" y="199" flags="0x4"/>
    </TTGlyph>
    <TTGlyph name="Ydieresis.flat" xMin="21" yMin="0" xMax="517" yMax="831">
      <component glyphName="Y.flat" x="0" y="0" flags="0x204"/>
      <component glyphName="dieresis" x="65" y="199" flags="0x4"/>
    </TTGlyph>
    <TTGlyph name="Ygrave" xMin="22" yMin="0" xMax="515" yMax="879">
      <component glyphName="Y" x="0" y="0" flags="0x204"/>
      <component glyphName="grave" x="11" y="197" flags="0x4"/>
    </TTGlyph>
    <TTGlyph name="Ygrave.flat" xMin="21" yMin="0" xMax="517" yMax="879">
      <component glyphName="Y.flat" x="0" y="0" flags="0x204"/>
      <component glyphName="grave" x="12" y="197" flags="0x4"/>
    </TTGlyph>
    <TTGlyph name="Z" xMin="43" yMin="0" xMax="473" yMax="690">
      <contour>
        <pt x="473" y="0" on="1"/>
        <pt x="43" y="0" on="1"/>
        <pt x="43" y="48" on="1"/>
        <pt x="389" y="631" on="1"/>
        <pt x="70" y="631" on="1"/>
        <pt x="61" y="690" on="1"/>
        <pt x="468" y="690" on="1"/>
        <pt x="468" y="642" on="1"/>
        <pt x="122" y="59" on="1"/>
        <pt x="464" y="59" on="1"/>
      </contour>
    </TTGlyph>
    <TTGlyph name="Z.flat" xMin="43" yMin="0" xMax="468" yMax="690">
      <contour>
        <pt x="468" y="0" on="1"/>
        <pt x="43" y="0" on="1"/>
        <pt x="43" y="48" on="1"/>
        <pt x="389" y="631" on="1"/>
        <pt x="65" y="631" on="1"/>
        <pt x="65" y="690" on="1"/>
        <pt x="468" y="690" on="1"/>
        <pt x="468" y="642" on="1"/>
        <pt x="122" y="59" on="1"/>
        <pt x="468" y="59" on="1"/>
      </contour>
    </TTGlyph>
    <TTGlyph name="Zacute" xMin="43" yMin="0" xMax="473" yMax="886">
      <component glyphName="Z" x="0" y="0" flags="0x204"/>
      <component glyphName="acute" x="108" y="204" flags="0x4"/>
    </TTGlyph>
    <TTGlyph name="Zacute.flat" xMin="43" yMin="0" xMax="468" yMax="886">
      <component glyphName="Z.flat" x="0" y="0" flags="0x204"/>
      <component glyphName="acute" x="108" y="204" flags="0x4"/>
    </TTGlyph>
    <TTGlyph name="Zcaron" xMin="43" yMin="0" xMax="473" yMax="882">
      <component glyphName="Z" x="0" y="0" flags="0x204"/>
      <component glyphName="caron" x="56" y="204" flags="0x4"/>
    </TTGlyph>
    <TTGlyph name="Zcaron.flat" xMin="43" yMin="0" xMax="468" yMax="882">
      <component glyphName="Z.flat" x="0" y="0" flags="0x204"/>
      <component glyphName="caron" x="56" y="204" flags="0x4"/>
    </TTGlyph>
    <TTGlyph name="Zdotaccent" xMin="43" yMin="0" xMax="473" yMax="836">
      <component glyphName="Z" x="0" y="0" flags="0x204"/>
      <component glyphName="dotaccent" x="56" y="204" flags="0x4"/>
    </TTGlyph>
    <TTGlyph name="Zdotaccent.flat" xMin="43" yMin="0" xMax="468" yMax="836">
      <component glyphName="Z.flat" x="0" y="0" flags="0x204"/>
      <component glyphName="dotaccent" x="56" y="204" flags="0x4"/>
    </TTGlyph>
    <TTGlyph name="a" xMin="36" yMin="-9" xMax="367" yMax="484">
      <contour>
        <pt x="304" y="113" on="1"/>
        <pt x="304" y="251" on="1"/>
        <pt x="190" y="238" on="0"/>
        <pt x="99" y="172" on="0"/>
        <pt x="99" y="123" on="1"/>
        <pt x="99" y="86" on="0"/>
        <pt x="142" y="46" on="0"/>
        <pt x="173" y="46" on="1"/>
        <pt x="204" y="46" on="0"/>
        <pt x="270" y="80" on="0"/>
      </contour>
      <contour>
        <pt x="367" y="0" on="1"/>
        <pt x="319" y="0" on="1"/>
        <pt x="309" y="59" on="1"/>
        <pt x="278" y="28" on="0"/>
        <pt x="206" y="-9" on="0"/>
        <pt x="163" y="-9" on="1"/>
        <pt x="109" y="-9" on="0"/>
        <pt x="36" y="57" on="0"/>
        <pt x="36" y="119" on="1"/>
        <pt x="36" y="200" on="0"/>
        <pt x="166" y="287" on="0"/>
        <pt x="304" y="303" on="1"/>
        <pt x="304" y="339" on="1"/>
        <pt x="304" y="384" on="0"/>
        <pt x="257" y="426" on="0"/>
        <pt x="215" y="426" on="1"/>
        <pt x="180" y="426" on="0"/>
        <pt x="107" y="404" on="0"/>
        <pt x="73" y="386" on="1"/>
        <pt x="64" y="444" on="1"/>
        <pt x="100" y="462" on="0"/>
        <pt x="177" y="484" on="0"/>
        <pt x="221" y="484" on="1"/>
        <pt x="293" y="484" on="0"/>
        <pt x="367" y="413" on="0"/>
        <pt x="367" y="342" on="1"/>
      </contour>
    </TTGlyph>
    <TTGlyph name="aacute" xMin="36" yMin="-9" xMax="367" yMax="683">
      <component glyphName="a" x="0" y="0" flags="0x204"/>
      <component glyphName="acute" x="61" y="1" flags="0x4"/>
    </TTGlyph>
    <TTGlyph name="abreve" xMin="36" yMin="-9" xMax="367" yMax="660">
      <component glyphName="a" x="0" y="0" flags="0x204"/>
      <component glyphName="breve" x="10" y="1" flags="0x4"/>
    </TTGlyph>
    <TTGlyph name="acircumflex" xMin="36" yMin="-9" xMax="367" yMax="679">
      <component glyphName="a" x="0" y="0" flags="0x204"/>
      <component glyphName="circumflex" x="10" y="1" flags="0x4"/>
    </TTGlyph>
    <TTGlyph name="acute" xMin="126" yMin="539" xMax="287" yMax="682">
      <contour>
        <pt x="287" y="664" on="1"/>
        <pt x="172" y="539" on="1"/>
        <pt x="126" y="539" on="1"/>
        <pt x="209" y="682" on="1"/>
      </contour>
    </TTGlyph>
    <TTGlyph name="adieresis" xMin="36" yMin="-9" xMax="367" yMax="633">
      <component glyphName="a" x="0" y="0" flags="0x204"/>
      <component glyphName="dieresis" x="9" y="1" flags="0x4"/>
    </TTGlyph>
    <TTGlyph name="ae" xMin="36" yMin="-9" xMax="656" yMax="485">
      <contour>
        <pt x="171" y="-9" on="1"/>
        <pt x="114" y="-9" on="0"/>
        <pt x="36" y="58" on="0"/>
        <pt x="36" y="119" on="1"/>
        <pt x="36" y="198" on="0"/>
        <pt x="164" y="286" on="0"/>
        <pt x="302" y="302" on="1"/>
        <pt x="302" y="339" on="1"/>
        <pt x="302" y="384" on="0"/>
        <pt x="257" y="426" on="0"/>
        <pt x="215" y="426" on="1"/>
        <pt x="180" y="426" on="0"/>
        <pt x="107" y="404" on="0"/>
        <pt x="73" y="386" on="1"/>
        <pt x="64" y="444" on="1"/>
        <pt x="100" y="462" on="0"/>
        <pt x="177" y="484" on="0"/>
        <pt x="220" y="484" on="1"/>
        <pt x="274" y="484" on="0"/>
        <pt x="337" y="445" on="0"/>
        <pt x="350" y="405" on="1"/>
        <pt x="373" y="443" on="0"/>
        <pt x="442" y="485" on="0"/>
        <pt x="486" y="485" on="1"/>
        <pt x="530" y="485" on="0"/>
        <pt x="595" y="448" on="0"/>
        <pt x="636" y="383" on="0"/>
        <pt x="656" y="296" on="0"/>
        <pt x="656" y="247" on="1"/>
        <pt x="656" y="228" on="1"/>
        <pt x="365" y="228" on="1"/>
        <pt x="367" y="144" on="0"/>
        <pt x="439" y="47" on="0"/>
        <pt x="499" y="47" on="1"/>
        <pt x="539" y="47" on="0"/>
        <pt x="610" y="79" on="0"/>
        <pt x="645" y="107" on="1"/>
        <pt x="655" y="49" on="1"/>
        <pt x="623" y="24" on="0"/>
        <pt x="543" y="-9" on="0"/>
        <pt x="494" y="-9" on="1"/>
        <pt x="446" y="-9" on="0"/>
        <pt x="368" y="32" on="0"/>
        <pt x="343" y="71" on="1"/>
        <pt x="306" y="36" on="0"/>
        <pt x="222" y="-9" on="0"/>
      </contour>
      <contour>
        <pt x="367" y="280" on="1"/>
        <pt x="591" y="280" on="1"/>
        <pt x="587" y="347" on="0"/>
        <pt x="534" y="432" on="0"/>
        <pt x="486" y="432" on="1"/>
        <pt x="437" y="432" on="0"/>
        <pt x="374" y="349" on="0"/>
      </contour>
      <contour>
        <pt x="177" y="46" on="1"/>
        <pt x="213" y="46" on="0"/>
        <pt x="284" y="83" on="0"/>
        <pt x="320" y="118" on="1"/>
        <pt x="311" y="143" on="0"/>
        <pt x="301" y="204" on="0"/>
        <pt x="301" y="238" on="1"/>
        <pt x="301" y="251" on="1"/>
        <pt x="189" y="237" on="0"/>
        <pt x="99" y="172" on="0"/>
        <pt x="99" y="123" on="1"/>
        <pt x="99" y="87" on="0"/>
        <pt x="143" y="46" on="0"/>
      </contour>
    </TTGlyph>
    <TTGlyph name="aeacute" xMin="36" yMin="-9" xMax="656" yMax="682">
      <component glyphName="ae" x="0" y="0" flags="0x204"/>
      <component glyphName="acute" x="199" y="0" flags="0x4"/>
    </TTGlyph>
    <TTGlyph name="agrave" xMin="36" yMin="-9" xMax="367" yMax="683">
      <component glyphName="a" x="0" y="0" flags="0x204"/>
      <component glyphName="grave" x="-44" y="1" flags="0x4"/>
    </TTGlyph>
    <TTGlyph name="amacron" xMin="36" yMin="-9" xMax="367" yMax="621">
      <component glyphName="a" x="0" y="0" flags="0x204"/>
      <component glyphName="macron" x="10" y="1" flags="0x4"/>
    </TTGlyph>
    <TTGlyph name="ampersand" xMin="39" yMin="-10" xMax="594" yMax="700">
      <contour>
        <pt x="237" y="49" on="1"/>
        <pt x="282" y="49" on="0"/>
        <pt x="361" y="98" on="0"/>
        <pt x="393" y="149" on="1"/>
        <pt x="225" y="343" on="1"/>
        <pt x="171" y="315" on="0"/>
        <pt x="106" y="231" on="0"/>
        <pt x="106" y="178" on="1"/>
        <pt x="106" y="122" on="0"/>
        <pt x="181" y="49" on="0"/>
      </contour>
      <contour>
        <pt x="527" y="-6" on="1"/>
        <pt x="433" y="101" on="1"/>
        <pt x="396" y="47" on="0"/>
        <pt x="296" y="-10" on="0"/>
        <pt x="236" y="-10" on="1"/>
        <pt x="145" y="-10" on="0"/>
        <pt x="39" y="96" on="0"/>
        <pt x="39" y="174" on="1"/>
        <pt x="39" y="249" on="0"/>
        <pt x="126" y="353" on="0"/>
        <pt x="188" y="387" on="1"/>
        <pt x="156" y="427" on="0"/>
        <pt x="123" y="500" on="0"/>
        <pt x="123" y="543" on="1"/>
        <pt x="123" y="607" on="0"/>
        <pt x="212" y="700" on="0"/>
        <pt x="290" y="700" on="1"/>
        <pt x="330" y="700" on="0"/>
        <pt x="400" y="679" on="0"/>
        <pt x="431" y="660" on="1"/>
        <pt x="417" y="593" on="1"/>
        <pt x="383" y="617" on="0"/>
        <pt x="320" y="641" on="0"/>
        <pt x="289" y="641" on="1"/>
        <pt x="244" y="641" on="0"/>
        <pt x="190" y="588" on="0"/>
        <pt x="190" y="545" on="1"/>
        <pt x="190" y="510" on="0"/>
        <pt x="223" y="444" on="0"/>
        <pt x="259" y="401" on="1"/>
        <pt x="423" y="210" on="1"/>
        <pt x="439" y="248" on="0"/>
        <pt x="465" y="345" on="0"/>
        <pt x="473" y="403" on="1"/>
        <pt x="534" y="389" on="1"/>
        <pt x="523" y="321" on="0"/>
        <pt x="489" y="205" on="0"/>
        <pt x="467" y="159" on="1"/>
        <pt x="594" y="11" on="1"/>
      </contour>
    </TTGlyph>
    <TTGlyph name="ampersand.flat" xMin="39" yMin="-10" xMax="602" yMax="700">
      <contour>
        <pt x="237" y="49" on="1"/>
        <pt x="281" y="49" on="0"/>
        <pt x="361" y="98" on="0"/>
        <pt x="393" y="149" on="1"/>
        <pt x="225" y="343" on="1"/>
        <pt x="171" y="315" on="0"/>
        <pt x="106" y="231" on="0"/>
        <pt x="106" y="178" on="1"/>
        <pt x="106" y="122" on="0"/>
        <pt x="181" y="49" on="0"/>
      </contour>
      <contour>
        <pt x="521" y="0" on="1"/>
        <pt x="433" y="101" on="1"/>
        <pt x="396" y="47" on="0"/>
        <pt x="296" y="-10" on="0"/>
        <pt x="236" y="-10" on="1"/>
        <pt x="145" y="-10" on="0"/>
        <pt x="39" y="96" on="0"/>
        <pt x="39" y="174" on="1"/>
        <pt x="39" y="249" on="0"/>
        <pt x="126" y="353" on="0"/>
        <pt x="188" y="387" on="1"/>
        <pt x="156" y="427" on="0"/>
        <pt x="123" y="500" on="0"/>
        <pt x="123" y="543" on="1"/>
        <pt x="123" y="607" on="0"/>
        <pt x="212" y="700" on="0"/>
        <pt x="290" y="700" on="1"/>
        <pt x="330" y="700" on="0"/>
        <pt x="400" y="679" on="0"/>
        <pt x="431" y="660" on="1"/>
        <pt x="417" y="593" on="1"/>
        <pt x="383" y="617" on="0"/>
        <pt x="320" y="641" on="0"/>
        <pt x="289" y="641" on="1"/>
        <pt x="244" y="641" on="0"/>
        <pt x="190" y="588" on="0"/>
        <pt x="190" y="545" on="1"/>
        <pt x="190" y="510" on="0"/>
        <pt x="223" y="444" on="0"/>
        <pt x="259" y="401" on="1"/>
        <pt x="423" y="209" on="1"/>
        <pt x="439" y="247" on="0"/>
        <pt x="465" y="344" on="0"/>
        <pt x="473" y="403" on="1"/>
        <pt x="534" y="389" on="1"/>
        <pt x="522" y="320" on="0"/>
        <pt x="488" y="205" on="0"/>
        <pt x="466" y="159" on="1"/>
        <pt x="602" y="0" on="1"/>
      </contour>
    </TTGlyph>
    <TTGlyph name="aogonek" xMin="36" yMin="-170" xMax="387" yMax="484">
      <component glyphName="a" x="0" y="0" flags="0x204"/>
      <component glyphName="ogonek" x="121" y="0" flags="0x4"/>
    </TTGlyph>
    <TTGlyph name="aring" xMin="36" yMin="-9" xMax="367" yMax="723">
      <component glyphName="a" x="0" y="0" flags="0x204"/>
      <component glyphName="ring" x="9" y="1" flags="0x4"/>
    </TTGlyph>
    <TTGlyph name="aringacute" xMin="36" yMin="-9" xMax="367" yMax="900">
      <component glyphName="a" x="0" y="0" flags="0x204"/>
      <component glyphName="ring" x="11" y="1" flags="0x4"/>
      <component glyphName="acute" x="60" y="218" flags="0x4"/>
    </TTGlyph>
    <TTGlyph name="asciicircum" xMin="63" yMin="510" xMax="334" yMax="696">
      <contour>
        <pt x="334" y="510" on="1"/>
        <pt x="284" y="510" on="1"/>
        <pt x="198" y="634" on="1"/>
        <pt x="112" y="510" on="1"/>
        <pt x="63" y="510" on="1"/>
        <pt x="171" y="696" on="1"/>
        <pt x="226" y="696" on="1"/>
      </contour>
    </TTGlyph>
    <TTGlyph name="asciitilde" xMin="52" yMin="250" xMax="362" yMax="376">
      <contour>
        <pt x="362" y="367" on="1"/>
        <pt x="354" y="307" on="0"/>
        <pt x="314" y="252" on="0"/>
        <pt x="284" y="252" on="1"/>
        <pt x="265" y="252" on="0"/>
        <pt x="228" y="268" on="0"/>
        <pt x="200" y="284" on="1"/>
        <pt x="175" y="299" on="0"/>
        <pt x="146" y="314" on="0"/>
        <pt x="135" y="314" on="1"/>
        <pt x="122" y="314" on="0"/>
        <pt x="105" y="284" on="0"/>
        <pt x="98" y="250" on="1"/>
        <pt x="52" y="258" on="1"/>
        <pt x="61" y="318" on="0"/>
        <pt x="100" y="374" on="0"/>
        <pt x="130" y="374" on="1"/>
        <pt x="149" y="374" on="0"/>
        <pt x="186" y="357" on="0"/>
        <pt x="214" y="341" on="1"/>
        <pt x="239" y="327" on="0"/>
        <pt x="268" y="311" on="0"/>
        <pt x="279" y="311" on="1"/>
        <pt x="292" y="311" on="0"/>
        <pt x="309" y="342" on="0"/>
        <pt x="316" y="376" on="1"/>
      </contour>
    </TTGlyph>
    <TTGlyph name="asterisk" xMin="34" yMin="426" xMax="315" yMax="695">
      <contour>
        <pt x="315" y="584" on="1"/>
        <pt x="210" y="539" on="1"/>
        <pt x="269" y="438" on="1"/>
        <pt x="251" y="426" on="1"/>
        <pt x="174" y="512" on="1"/>
        <pt x="98" y="426" on="1"/>
        <pt x="80" y="438" on="1"/>
        <pt x="138" y="539" on="1"/>
        <pt x="34" y="584" on="1"/>
        <pt x="40" y="605" on="1"/>
        <pt x="152" y="581" on="1"/>
        <pt x="163" y="695" on="1"/>
        <pt x="186" y="695" on="1"/>
        <pt x="196" y="581" on="1"/>
        <pt x="309" y="605" on="1"/>
      </contour>
    </TTGlyph>
    <TTGlyph name="at" xMin="45" yMin="-138" xMax="720" yMax="626">
      <contour>
        <pt x="339" y="-138" on="1"/>
        <pt x="273" y="-138" on="0"/>
        <pt x="164" y="-98" on="0"/>
        <pt x="87" y="-20" on="0"/>
        <pt x="45" y="98" on="0"/>
        <pt x="45" y="174" on="1"/>
        <pt x="45" y="266" on="0"/>
        <pt x="106" y="431" on="0"/>
        <pt x="212" y="554" on="0"/>
        <pt x="356" y="626" on="0"/>
        <pt x="437" y="626" on="1"/>
        <pt x="567" y="626" on="0"/>
        <pt x="720" y="468" on="0"/>
        <pt x="720" y="328" on="1"/>
        <pt x="720" y="266" on="0"/>
        <pt x="693" y="162" on="0"/>
        <pt x="647" y="87" on="0"/>
        <pt x="584" y="45" on="0"/>
        <pt x="547" y="45" on="1"/>
        <pt x="500" y="45" on="0"/>
        <pt x="449" y="96" on="0"/>
        <pt x="447" y="137" on="1"/>
        <pt x="411" y="93" on="0"/>
        <pt x="348" y="47" on="0"/>
        <pt x="313" y="47" on="1"/>
        <pt x="273" y="47" on="0"/>
        <pt x="216" y="113" on="0"/>
        <pt x="216" y="174" on="1"/>
        <pt x="216" y="231" on="0"/>
        <pt x="252" y="330" on="0"/>
        <pt x="312" y="404" on="0"/>
        <pt x="392" y="446" on="0"/>
        <pt x="436" y="446" on="1"/>
        <pt x="466" y="446" on="0"/>
        <pt x="517" y="432" on="0"/>
        <pt x="540" y="422" on="1"/>
        <pt x="504" y="186" on="1"/>
        <pt x="503" y="176" on="0"/>
        <pt x="499" y="153" on="0"/>
        <pt x="499" y="143" on="1"/>
        <pt x="499" y="115" on="0"/>
        <pt x="526" y="82" on="0"/>
        <pt x="554" y="82" on="1"/>
        <pt x="605" y="82" on="0"/>
        <pt x="684" y="219" on="0"/>
        <pt x="684" y="328" on="1"/>
        <pt x="684" y="456" on="0"/>
        <pt x="549" y="594" on="0"/>
        <pt x="435" y="594" on="1"/>
        <pt x="362" y="594" on="0"/>
        <pt x="233" y="527" on="0"/>
        <pt x="137" y="413" on="0"/>
        <pt x="82" y="260" on="0"/>
        <pt x="82" y="175" on="1"/>
        <pt x="82" y="104" on="0"/>
        <pt x="120" y="-2" on="0"/>
        <pt x="189" y="-71" on="0"/>
        <pt x="285" y="-106" on="0"/>
        <pt x="342" y="-106" on="1"/>
        <pt x="396" y="-106" on="0"/>
        <pt x="496" y="-80" on="0"/>
        <pt x="537" y="-58" on="1"/>
        <pt x="542" y="-91" on="1"/>
        <pt x="502" y="-111" on="0"/>
        <pt x="397" y="-138" on="0"/>
      </contour>
      <contour>
        <pt x="326" y="97" on="1"/>
        <pt x="351" y="97" on="0"/>
        <pt x="409" y="146" on="0"/>
        <pt x="448" y="195" on="1"/>
        <pt x="479" y="387" on="1"/>
        <pt x="468" y="392" on="0"/>
        <pt x="445" y="397" on="0"/>
        <pt x="430" y="397" on="1"/>
        <pt x="399" y="397" on="0"/>
        <pt x="342" y="363" on="0"/>
        <pt x="299" y="304" on="0"/>
        <pt x="273" y="225" on="0"/>
        <pt x="273" y="180" on="1"/>
        <pt x="273" y="138" on="0"/>
        <pt x="301" y="97" on="0"/>
      </contour>
    </TTGlyph>
    <TTGlyph name="atilde" xMin="36" yMin="-9" xMax="367" yMax="655">
      <component glyphName="a" x="0" y="0" flags="0x204"/>
      <component glyphName="tilde" x="13" y="1" flags="0x4"/>
    </TTGlyph>
    <TTGlyph name="b" xMin="66" yMin="-6" xMax="428" yMax="718">
      <contour>
        <pt x="428" y="249" on="1"/>
        <pt x="428" y="184" on="0"/>
        <pt x="395" y="88" on="0"/>
        <pt x="339" y="25" on="0"/>
        <pt x="263" y="-6" on="0"/>
        <pt x="219" y="-6" on="1"/>
        <pt x="176" y="-6" on="0"/>
        <pt x="101" y="12" on="0"/>
        <pt x="66" y="26" on="1"/>
        <pt x="66" y="707" on="1"/>
        <pt x="130" y="718" on="1"/>
        <pt x="130" y="419" on="1"/>
        <pt x="155" y="447" on="0"/>
        <pt x="217" y="485" on="0"/>
        <pt x="259" y="485" on="1"/>
        <pt x="329" y="485" on="0"/>
        <pt x="428" y="368" on="0"/>
      </contour>
      <contour>
        <pt x="362" y="247" on="1"/>
        <pt x="362" y="337" on="0"/>
        <pt x="300" y="426" on="0"/>
        <pt x="251" y="426" on="1"/>
        <pt x="218" y="426" on="0"/>
        <pt x="160" y="387" on="0"/>
        <pt x="130" y="353" on="1"/>
        <pt x="130" y="68" on="1"/>
        <pt x="150" y="60" on="0"/>
        <pt x="193" y="50" on="0"/>
        <pt x="220" y="50" on="1"/>
        <pt x="282" y="50" on="0"/>
        <pt x="362" y="146" on="0"/>
      </contour>
    </TTGlyph>
    <TTGlyph name="backslash" xMin="14" yMin="-124" xMax="432" yMax="697">
      <contour>
        <pt x="432" y="-113" on="1"/>
        <pt x="377" y="-124" on="1"/>
        <pt x="14" y="685" on="1"/>
        <pt x="69" y="697" on="1"/>
      </contour>
    </TTGlyph>
    <TTGlyph name="baht" xMin="-8" yMin="-126" xMax="458" yMax="739">
      <contour>
        <pt x="219" y="627" on="1"/>
        <pt x="136" y="627" on="1"/>
        <pt x="136" y="384" on="1"/>
        <pt x="217" y="384" on="1"/>
        <pt x="287" y="384" on="0"/>
        <pt x="360" y="458" on="0"/>
        <pt x="360" y="511" on="1"/>
        <pt x="360" y="564" on="0"/>
        <pt x="291" y="627" on="0"/>
      </contour>
      <contour>
        <pt x="218" y="331" on="1"/>
        <pt x="136" y="331" on="1"/>
        <pt x="136" y="56" on="1"/>
        <pt x="222" y="56" on="1"/>
        <pt x="299" y="56" on="0"/>
        <pt x="387" y="129" on="0"/>
        <pt x="387" y="192" on="1"/>
        <pt x="387" y="261" on="0"/>
        <pt x="296" y="331" on="0"/>
      </contour>
      <contour>
        <pt x="218" y="0" on="1"/>
        <pt x="108" y="0" on="1"/>
        <pt x="45" y="-126" on="1"/>
        <pt x="-8" y="-114" on="1"/>
        <pt x="72" y="46" on="1"/>
        <pt x="72" y="683" on="1"/>
        <pt x="221" y="683" on="1"/>
        <pt x="263" y="683" on="0"/>
        <pt x="333" y="664" on="0"/>
        <pt x="359" y="647" on="1"/>
        <pt x="405" y="739" on="1"/>
        <pt x="458" y="726" on="1"/>
        <pt x="399" y="608" on="1"/>
        <pt x="412" y="589" on="0"/>
        <pt x="425" y="542" on="0"/>
        <pt x="425" y="515" on="1"/>
        <pt x="425" y="459" on="0"/>
        <pt x="366" y="381" on="0"/>
        <pt x="321" y="363" on="1"/>
        <pt x="380" y="346" on="0"/>
        <pt x="452" y="263" on="0"/>
        <pt x="452" y="194" on="1"/>
        <pt x="452" y="100" on="0"/>
        <pt x="322" y="0" on="0"/>
      </contour>
    </TTGlyph>
    <TTGlyph name="bar" xMin="92" yMin="-189" xMax="148" yMax="722">
      <contour>
        <pt x="148" y="-180" on="1"/>
        <pt x="92" y="-189" on="1"/>
        <pt x="92" y="713" on="1"/>
        <pt x="148" y="722" on="1"/>
      </contour>
    </TTGlyph>
    <TTGlyph name="bar.tab" xMin="92" yMin="-131" xMax="148" yMax="811">
      <contour>
        <pt x="148" y="-122" on="1"/>
        <pt x="92" y="-131" on="1"/>
        <pt x="92" y="802" on="1"/>
        <pt x="148" y="811" on="1"/>
      </contour>
    </TTGlyph>
    <TTGlyph name="braceleft" xMin="33" yMin="-101" xMax="370" yMax="695">
      <contour>
        <pt x="370" y="-101" on="1"/>
        <pt x="295" y="-101" on="1"/>
        <pt x="222" y="-101" on="0"/>
        <pt x="153" y="-36" on="0"/>
        <pt x="153" y="26" on="1"/>
        <pt x="153" y="60" on="0"/>
        <pt x="168" y="132" on="0"/>
        <pt x="168" y="168" on="1"/>
        <pt x="168" y="226" on="0"/>
        <pt x="108" y="272" on="0"/>
        <pt x="63" y="272" on="1"/>
        <pt x="41" y="272" on="1"/>
        <pt x="33" y="322" on="1"/>
        <pt x="64" y="322" on="1"/>
        <pt x="109" y="322" on="0"/>
        <pt x="168" y="367" on="0"/>
        <pt x="168" y="425" on="1"/>
        <pt x="168" y="461" on="0"/>
        <pt x="153" y="531" on="0"/>
        <pt x="153" y="565" on="1"/>
        <pt x="153" y="628" on="0"/>
        <pt x="223" y="695" on="0"/>
        <pt x="295" y="695" on="1"/>
        <pt x="365" y="695" on="1"/>
        <pt x="365" y="644" on="1"/>
        <pt x="296" y="644" on="1"/>
        <pt x="253" y="644" on="0"/>
        <pt x="215" y="603" on="0"/>
        <pt x="215" y="567" on="1"/>
        <pt x="215" y="536" on="0"/>
        <pt x="230" y="459" on="0"/>
        <pt x="230" y="426" on="1"/>
        <pt x="230" y="365" on="0"/>
        <pt x="175" y="308" on="0"/>
        <pt x="130" y="298" on="1"/>
        <pt x="130" y="296" on="1"/>
        <pt x="175" y="286" on="0"/>
        <pt x="230" y="229" on="0"/>
        <pt x="230" y="167" on="1"/>
        <pt x="230" y="135" on="0"/>
        <pt x="215" y="56" on="0"/>
        <pt x="215" y="26" on="1"/>
        <pt x="215" y="-10" on="0"/>
        <pt x="252" y="-50" on="0"/>
        <pt x="295" y="-50" on="1"/>
        <pt x="362" y="-50" on="1"/>
      </contour>
    </TTGlyph>
    <TTGlyph name="braceleft.flat" xMin="37" yMin="-101" xMax="365" yMax="695">
      <contour>
        <pt x="365" y="-101" on="1"/>
        <pt x="295" y="-101" on="1"/>
        <pt x="222" y="-101" on="0"/>
        <pt x="153" y="-36" on="0"/>
        <pt x="153" y="26" on="1"/>
        <pt x="153" y="60" on="0"/>
        <pt x="168" y="132" on="0"/>
        <pt x="168" y="168" on="1"/>
        <pt x="168" y="226" on="0"/>
        <pt x="108" y="272" on="0"/>
        <pt x="63" y="272" on="1"/>
        <pt x="37" y="272" on="1"/>
        <pt x="37" y="322" on="1"/>
        <pt x="64" y="322" on="1"/>
        <pt x="109" y="322" on="0"/>
        <pt x="168" y="367" on="0"/>
        <pt x="168" y="425" on="1"/>
        <pt x="168" y="461" on="0"/>
        <pt x="153" y="531" on="0"/>
        <pt x="153" y="565" on="1"/>
        <pt x="153" y="628" on="0"/>
        <pt x="223" y="695" on="0"/>
        <pt x="295" y="695" on="1"/>
        <pt x="365" y="695" on="1"/>
        <pt x="365" y="644" on="1"/>
        <pt x="296" y="644" on="1"/>
        <pt x="253" y="644" on="0"/>
        <pt x="215" y="603" on="0"/>
        <pt x="215" y="567" on="1"/>
        <pt x="215" y="536" on="0"/>
        <pt x="230" y="459" on="0"/>
        <pt x="230" y="426" on="1"/>
        <pt x="230" y="365" on="0"/>
        <pt x="175" y="308" on="0"/>
        <pt x="130" y="298" on="1"/>
        <pt x="130" y="296" on="1"/>
        <pt x="175" y="286" on="0"/>
        <pt x="230" y="229" on="0"/>
        <pt x="230" y="167" on="1"/>
        <pt x="230" y="135" on="0"/>
        <pt x="215" y="56" on="0"/>
        <pt x="215" y="26" on="1"/>
        <pt x="215" y="-10" on="0"/>
        <pt x="252" y="-50" on="0"/>
        <pt x="295" y="-50" on="1"/>
        <pt x="365" y="-50" on="1"/>
      </contour>
    </TTGlyph>
    <TTGlyph name="braceright" xMin="38" yMin="-101" xMax="375" yMax="695">
      <contour>
        <pt x="38" y="695" on="1"/>
        <pt x="114" y="695" on="1"/>
        <pt x="186" y="695" on="0"/>
        <pt x="255" y="630" on="0"/>
        <pt x="255" y="567" on="1"/>
        <pt x="255" y="533" on="0"/>
        <pt x="240" y="462" on="0"/>
        <pt x="240" y="426" on="1"/>
        <pt x="240" y="367" on="0"/>
        <pt x="300" y="322" on="0"/>
        <pt x="345" y="322" on="1"/>
        <pt x="367" y="322" on="1"/>
        <pt x="375" y="272" on="1"/>
        <pt x="344" y="272" on="1"/>
        <pt x="299" y="272" on="0"/>
        <pt x="240" y="227" on="0"/>
        <pt x="240" y="169" on="1"/>
        <pt x="240" y="133" on="0"/>
        <pt x="255" y="62" on="0"/>
        <pt x="255" y="28" on="1"/>
        <pt x="255" y="-34" on="0"/>
        <pt x="186" y="-101" on="0"/>
        <pt x="114" y="-101" on="1"/>
        <pt x="43" y="-101" on="1"/>
        <pt x="43" y="-50" on="1"/>
        <pt x="112" y="-50" on="1"/>
        <pt x="155" y="-50" on="0"/>
        <pt x="193" y="-9" on="0"/>
        <pt x="193" y="27" on="1"/>
        <pt x="193" y="57" on="0"/>
        <pt x="178" y="135" on="0"/>
        <pt x="178" y="168" on="1"/>
        <pt x="178" y="229" on="0"/>
        <pt x="233" y="286" on="0"/>
        <pt x="278" y="296" on="1"/>
        <pt x="278" y="298" on="1"/>
        <pt x="233" y="308" on="0"/>
        <pt x="178" y="365" on="0"/>
        <pt x="178" y="427" on="1"/>
        <pt x="178" y="459" on="0"/>
        <pt x="193" y="538" on="0"/>
        <pt x="193" y="568" on="1"/>
        <pt x="193" y="604" on="0"/>
        <pt x="156" y="644" on="0"/>
        <pt x="113" y="644" on="1"/>
        <pt x="47" y="644" on="1"/>
      </contour>
    </TTGlyph>
    <TTGlyph name="braceright.flat" xMin="43" yMin="-101" xMax="371" yMax="695">
      <contour>
        <pt x="43" y="695" on="1"/>
        <pt x="114" y="695" on="1"/>
        <pt x="186" y="695" on="0"/>
        <pt x="255" y="630" on="0"/>
        <pt x="255" y="567" on="1"/>
        <pt x="255" y="533" on="0"/>
        <pt x="240" y="462" on="0"/>
        <pt x="240" y="426" on="1"/>
        <pt x="240" y="367" on="0"/>
        <pt x="300" y="322" on="0"/>
        <pt x="345" y="322" on="1"/>
        <pt x="371" y="322" on="1"/>
        <pt x="371" y="272" on="1"/>
        <pt x="344" y="272" on="1"/>
        <pt x="299" y="272" on="0"/>
        <pt x="240" y="227" on="0"/>
        <pt x="240" y="169" on="1"/>
        <pt x="240" y="133" on="0"/>
        <pt x="255" y="62" on="0"/>
        <pt x="255" y="28" on="1"/>
        <pt x="255" y="-34" on="0"/>
        <pt x="186" y="-101" on="0"/>
        <pt x="114" y="-101" on="1"/>
        <pt x="43" y="-101" on="1"/>
        <pt x="43" y="-50" on="1"/>
        <pt x="112" y="-50" on="1"/>
        <pt x="155" y="-50" on="0"/>
        <pt x="193" y="-9" on="0"/>
        <pt x="193" y="27" on="1"/>
        <pt x="193" y="57" on="0"/>
        <pt x="178" y="135" on="0"/>
        <pt x="178" y="168" on="1"/>
        <pt x="178" y="229" on="0"/>
        <pt x="233" y="286" on="0"/>
        <pt x="278" y="296" on="1"/>
        <pt x="278" y="298" on="1"/>
        <pt x="233" y="308" on="0"/>
        <pt x="178" y="365" on="0"/>
        <pt x="178" y="427" on="1"/>
        <pt x="178" y="459" on="0"/>
        <pt x="193" y="538" on="0"/>
        <pt x="193" y="568" on="1"/>
        <pt x="193" y="604" on="0"/>
        <pt x="156" y="644" on="0"/>
        <pt x="113" y="644" on="1"/>
        <pt x="43" y="644" on="1"/>
      </contour>
    </TTGlyph>
    <TTGlyph name="bracketleft" xMin="88" yMin="-101" xMax="315" yMax="695">
      <contour>
        <pt x="315" y="-101" on="1"/>
        <pt x="88" y="-101" on="1"/>
        <pt x="88" y="695" on="1"/>
        <pt x="310" y="695" on="1"/>
        <pt x="310" y="644" on="1"/>
        <pt x="149" y="644" on="1"/>
        <pt x="149" y="-50" on="1"/>
        <pt x="306" y="-50" on="1"/>
      </contour>
    </TTGlyph>
    <TTGlyph name="bracketleft.flat" xMin="88" yMin="-101" xMax="310" yMax="695">
      <contour>
        <pt x="310" y="-101" on="1"/>
        <pt x="88" y="-101" on="1"/>
        <pt x="88" y="695" on="1"/>
        <pt x="310" y="695" on="1"/>
        <pt x="310" y="644" on="1"/>
        <pt x="149" y="644" on="1"/>
        <pt x="149" y="-50" on="1"/>
        <pt x="310" y="-50" on="1"/>
      </contour>
    </TTGlyph>
    <TTGlyph name="bracketright" xMin="38" yMin="-101" xMax="265" yMax="695">
      <contour>
        <pt x="38" y="695" on="1"/>
        <pt x="265" y="695" on="1"/>
        <pt x="265" y="-101" on="1"/>
        <pt x="43" y="-101" on="1"/>
        <pt x="43" y="-50" on="1"/>
        <pt x="204" y="-50" on="1"/>
        <pt x="204" y="644" on="1"/>
        <pt x="47" y="644" on="1"/>
      </contour>
    </TTGlyph>
    <TTGlyph name="bracketright.flat" xMin="43" yMin="-101" xMax="265" yMax="695">
      <contour>
        <pt x="43" y="695" on="1"/>
        <pt x="265" y="695" on="1"/>
        <pt x="265" y="-101" on="1"/>
        <pt x="43" y="-101" on="1"/>
        <pt x="43" y="-50" on="1"/>
        <pt x="204" y="-50" on="1"/>
        <pt x="204" y="644" on="1"/>
        <pt x="43" y="644" on="1"/>
      </contour>
    </TTGlyph>
    <TTGlyph name="breve" xMin="87" yMin="541" xMax="320" yMax="659">
      <contour>
        <pt x="320" y="651" on="1"/>
        <pt x="315" y="600" on="0"/>
        <pt x="256" y="541" on="0"/>
        <pt x="204" y="541" on="1"/>
        <pt x="152" y="541" on="0"/>
        <pt x="93" y="600" on="0"/>
        <pt x="87" y="651" on="1"/>
        <pt x="132" y="659" on="1"/>
        <pt x="138" y="627" on="0"/>
        <pt x="176" y="595" on="0"/>
        <pt x="204" y="595" on="1"/>
        <pt x="232" y="595" on="0"/>
        <pt x="269" y="627" on="0"/>
        <pt x="276" y="659" on="1"/>
      </contour>
    </TTGlyph>
    <TTGlyph name="bullet" xMin="85" yMin="223" xMax="305" yMax="472">
      <contour>
        <pt x="305" y="348" on="1"/>
        <pt x="288" y="240" on="1"/>
        <pt x="195" y="223" on="1"/>
        <pt x="102" y="240" on="1"/>
        <pt x="85" y="348" on="1"/>
        <pt x="102" y="456" on="1"/>
        <pt x="195" y="472" on="1"/>
        <pt x="288" y="456" on="1"/>
      </contour>
    </TTGlyph>
    <TTGlyph name="c" xMin="39" yMin="-9" xMax="367" yMax="485">
      <contour>
        <pt x="367" y="37" on="1"/>
        <pt x="339" y="15" on="0"/>
        <pt x="273" y="-9" on="0"/>
        <pt x="233" y="-9" on="1"/>
        <pt x="146" y="-9" on="0"/>
        <pt x="39" y="123" on="0"/>
        <pt x="39" y="237" on="1"/>
        <pt x="39" y="351" on="0"/>
        <pt x="150" y="485" on="0"/>
        <pt x="237" y="485" on="1"/>
        <pt x="276" y="485" on="0"/>
        <pt x="339" y="462" on="0"/>
        <pt x="363" y="444" on="1"/>
        <pt x="353" y="380" on="1"/>
        <pt x="324" y="404" on="0"/>
        <pt x="268" y="428" on="0"/>
        <pt x="236" y="428" on="1"/>
        <pt x="177" y="428" on="0"/>
        <pt x="104" y="325" on="0"/>
        <pt x="104" y="238" on="1"/>
        <pt x="104" y="152" on="0"/>
        <pt x="178" y="48" on="0"/>
        <pt x="238" y="48" on="1"/>
        <pt x="269" y="48" on="0"/>
        <pt x="328" y="71" on="0"/>
        <pt x="358" y="97" on="1"/>
      </contour>
    </TTGlyph>
    <TTGlyph name="cacute" xMin="39" yMin="-9" xMax="367" yMax="683">
      <component glyphName="c" x="0" y="0" flags="0x204"/>
      <component glyphName="acute" x="77" y="1" flags="0x4"/>
    </TTGlyph>
    <TTGlyph name="caron" xMin="87" yMin="539" xMax="322" yMax="678">
      <contour>
        <pt x="87" y="678" on="1"/>
        <pt x="130" y="678" on="1"/>
        <pt x="205" y="599" on="1"/>
        <pt x="279" y="678" on="1"/>
        <pt x="322" y="678" on="1"/>
        <pt x="232" y="539" on="1"/>
        <pt x="177" y="539" on="1"/>
      </contour>
    </TTGlyph>
    <TTGlyph name="caron.alt" xMin="155" yMin="535" xMax="245" yMax="717">
      <contour>
        <pt x="227" y="717" on="1"/>
        <pt x="235" y="701" on="0"/>
        <pt x="245" y="667" on="0"/>
        <pt x="245" y="649" on="1"/>
        <pt x="245" y="617" on="0"/>
        <pt x="211" y="559" on="0"/>
        <pt x="186" y="535" on="1"/>
        <pt x="155" y="542" on="1"/>
        <pt x="172" y="567" on="0"/>
        <pt x="188" y="609" on="0"/>
        <pt x="188" y="632" on="1"/>
        <pt x="188" y="651" on="0"/>
        <pt x="177" y="686" on="0"/>
        <pt x="167" y="705" on="1"/>
      </contour>
    </TTGlyph>
    <TTGlyph name="ccaron" xMin="39" yMin="-9" xMax="367" yMax="679">
      <component glyphName="c" x="0" y="0" flags="0x204"/>
      <component glyphName="caron" x="25" y="1" flags="0x4"/>
    </TTGlyph>
    <TTGlyph name="ccedilla" xMin="39" yMin="-186" xMax="367" yMax="485">
      <component glyphName="c" x="0" y="0" flags="0x204"/>
      <component glyphName="cedilla" x="8" y="0" flags="0x4"/>
    </TTGlyph>
    <TTGlyph name="cdotaccent" xMin="39" yMin="-9" xMax="367" yMax="633">
      <component glyphName="c" x="0" y="0" flags="0x204"/>
      <component glyphName="dotaccent" x="26" y="1" flags="0x4"/>
    </TTGlyph>
    <TTGlyph name="cedilla" xMin="116" yMin="-186" xMax="269" yMax="-56">
      <contour>
        <pt x="269" y="-76" on="1"/>
        <pt x="160" y="-186" on="1"/>
        <pt x="116" y="-186" on="1"/>
        <pt x="192" y="-56" on="1"/>
      </contour>
    </TTGlyph>
    <TTGlyph name="cent" xMin="45" yMin="-10" xMax="384" yMax="692">
      <contour>
        <pt x="106" y="340" on="1"/>
        <pt x="106" y="273" on="0"/>
        <pt x="149" y="181" on="0"/>
        <pt x="189" y="162" on="1"/>
        <pt x="245" y="533" on="1"/>
        <pt x="244" y="533" on="1"/>
        <pt x="182" y="533" on="0"/>
        <pt x="106" y="430" on="0"/>
      </contour>
      <contour>
        <pt x="239" y="95" on="1"/>
        <pt x="236" y="95" on="0"/>
        <pt x="229" y="95" on="0"/>
        <pt x="226" y="95" on="1"/>
        <pt x="209" y="-10" on="1"/>
        <pt x="162" y="0" on="1"/>
        <pt x="178" y="105" on="1"/>
        <pt x="120" y="124" on="0"/>
        <pt x="45" y="243" on="0"/>
        <pt x="45" y="339" on="1"/>
        <pt x="45" y="398" on="0"/>
        <pt x="76" y="490" on="0"/>
        <pt x="129" y="553" on="0"/>
        <pt x="202" y="586" on="0"/>
        <pt x="244" y="586" on="1"/>
        <pt x="246" y="586" on="0"/>
        <pt x="251" y="586" on="0"/>
        <pt x="254" y="586" on="1"/>
        <pt x="270" y="692" on="1"/>
        <pt x="318" y="682" on="1"/>
        <pt x="302" y="580" on="1"/>
        <pt x="325" y="575" on="0"/>
        <pt x="364" y="556" on="0"/>
        <pt x="381" y="544" on="1"/>
        <pt x="370" y="483" on="1"/>
        <pt x="352" y="497" on="0"/>
        <pt x="314" y="520" on="0"/>
        <pt x="292" y="526" on="1"/>
        <pt x="233" y="150" on="1"/>
        <pt x="237" y="149" on="0"/>
        <pt x="243" y="149" on="0"/>
        <pt x="247" y="149" on="1"/>
        <pt x="248" y="149" on="1"/>
        <pt x="282" y="149" on="0"/>
        <pt x="345" y="174" on="0"/>
        <pt x="375" y="199" on="1"/>
        <pt x="384" y="142" on="1"/>
        <pt x="354" y="120" on="0"/>
        <pt x="282" y="95" on="0"/>
      </contour>
    </TTGlyph>
    <TTGlyph name="cent.tab" xMin="67" yMin="-11" xMax="419" yMax="692">
      <contour>
        <pt x="127" y="340" on="1"/>
        <pt x="127" y="273" on="0"/>
        <pt x="174" y="181" on="0"/>
        <pt x="216" y="162" on="1"/>
        <pt x="273" y="532" on="1"/>
        <pt x="273" y="532" on="1"/>
        <pt x="207" y="532" on="0"/>
        <pt x="127" y="428" on="0"/>
      </contour>
      <contour>
        <pt x="269" y="96" on="1"/>
        <pt x="265" y="96" on="0"/>
        <pt x="257" y="96" on="0"/>
        <pt x="253" y="97" on="1"/>
        <pt x="237" y="-11" on="1"/>
        <pt x="189" y="0" on="1"/>
        <pt x="206" y="106" on="1"/>
        <pt x="146" y="125" on="0"/>
        <pt x="67" y="245" on="0"/>
        <pt x="67" y="339" on="1"/>
        <pt x="67" y="397" on="0"/>
        <pt x="99" y="489" on="0"/>
        <pt x="154" y="552" on="0"/>
        <pt x="230" y="586" on="0"/>
        <pt x="274" y="586" on="1"/>
        <pt x="275" y="586" on="0"/>
        <pt x="279" y="586" on="0"/>
        <pt x="280" y="586" on="1"/>
        <pt x="297" y="692" on="1"/>
        <pt x="345" y="681" on="1"/>
        <pt x="329" y="581" on="1"/>
        <pt x="355" y="576" on="0"/>
        <pt x="397" y="556" on="0"/>
        <pt x="416" y="543" on="1"/>
        <pt x="405" y="482" on="1"/>
        <pt x="385" y="498" on="0"/>
        <pt x="343" y="521" on="0"/>
        <pt x="319" y="527" on="1"/>
        <pt x="260" y="151" on="1"/>
        <pt x="264" y="150" on="0"/>
        <pt x="271" y="150" on="0"/>
        <pt x="275" y="150" on="1"/>
        <pt x="276" y="150" on="1"/>
        <pt x="313" y="150" on="0"/>
        <pt x="379" y="175" on="0"/>
        <pt x="410" y="200" on="1"/>
        <pt x="419" y="144" on="1"/>
        <pt x="388" y="122" on="0"/>
        <pt x="314" y="96" on="0"/>
      </contour>
    </TTGlyph>
    <TTGlyph name="circumflex" xMin="86" yMin="539" xMax="321" yMax="678">
      <contour>
        <pt x="321" y="539" on="1"/>
        <pt x="278" y="539" on="1"/>
        <pt x="204" y="618" on="1"/>
        <pt x="129" y="539" on="1"/>
        <pt x="86" y="539" on="1"/>
        <pt x="176" y="678" on="1"/>
        <pt x="232" y="678" on="1"/>
      </contour>
    </TTGlyph>
    <TTGlyph name="colon" xMin="58" yMin="0" xMax="133" yMax="475">
      <contour>
        <pt x="133" y="378" on="1"/>
        <pt x="58" y="378" on="1"/>
        <pt x="58" y="475" on="1"/>
        <pt x="133" y="475" on="1"/>
      </contour>
      <contour>
        <pt x="133" y="0" on="1"/>
        <pt x="58" y="0" on="1"/>
        <pt x="58" y="98" on="1"/>
        <pt x="133" y="98" on="1"/>
      </contour>
    </TTGlyph>
    <TTGlyph name="colon.tab" xMin="84" yMin="0" xMax="159" yMax="475">
      <contour>
        <pt x="159" y="378" on="1"/>
        <pt x="84" y="378" on="1"/>
        <pt x="84" y="475" on="1"/>
        <pt x="159" y="475" on="1"/>
      </contour>
      <contour>
        <pt x="159" y="0" on="1"/>
        <pt x="84" y="0" on="1"/>
        <pt x="84" y="98" on="1"/>
        <pt x="159" y="98" on="1"/>
      </contour>
    </TTGlyph>
    <TTGlyph name="colonmonetary" xMin="36" yMin="-121" xMax="468" yMax="760">
      <contour>
        <pt x="335" y="-121" on="1"/>
        <pt x="288" y="-109" on="1"/>
        <pt x="305" y="-4" on="1"/>
        <pt x="301" y="-4" on="0"/>
        <pt x="292" y="-4" on="0"/>
        <pt x="288" y="-4" on="1"/>
        <pt x="269" y="-4" on="0"/>
        <pt x="233" y="1" on="0"/>
        <pt x="217" y="6" on="1"/>
        <pt x="198" y="-121" on="1"/>
        <pt x="151" y="-109" on="1"/>
        <pt x="172" y="26" on="1"/>
        <pt x="107" y="64" on="0"/>
        <pt x="36" y="226" on="0"/>
        <pt x="36" y="336" on="1"/>
        <pt x="36" y="409" on="0"/>
        <pt x="68" y="534" on="0"/>
        <pt x="128" y="625" on="0"/>
        <pt x="217" y="681" on="0"/>
        <pt x="273" y="685" on="1"/>
        <pt x="284" y="760" on="1"/>
        <pt x="331" y="749" on="1"/>
        <pt x="321" y="685" on="1"/>
        <pt x="345" y="683" on="0"/>
        <pt x="388" y="670" on="0"/>
        <pt x="406" y="661" on="1"/>
        <pt x="421" y="760" on="1"/>
        <pt x="468" y="749" on="1"/>
        <pt x="363" y="62" on="1"/>
        <pt x="385" y="69" on="0"/>
        <pt x="429" y="94" on="0"/>
        <pt x="452" y="111" on="1"/>
        <pt x="460" y="53" on="1"/>
        <pt x="437" y="37" on="0"/>
        <pt x="384" y="11" on="0"/>
        <pt x="354" y="4" on="1"/>
      </contour>
      <contour>
        <pt x="293" y="50" on="1"/>
        <pt x="299" y="50" on="0"/>
        <pt x="310" y="50" on="0"/>
        <pt x="316" y="51" on="1"/>
        <pt x="400" y="603" on="1"/>
        <pt x="379" y="614" on="0"/>
        <pt x="336" y="629" on="0"/>
        <pt x="311" y="631" on="1"/>
        <pt x="224" y="63" on="1"/>
        <pt x="239" y="56" on="0"/>
        <pt x="274" y="50" on="0"/>
      </contour>
      <contour>
        <pt x="98" y="333" on="1"/>
        <pt x="98" y="251" on="0"/>
        <pt x="140" y="122" on="0"/>
        <pt x="183" y="87" on="1"/>
        <pt x="266" y="630" on="1"/>
        <pt x="225" y="624" on="0"/>
        <pt x="161" y="575" on="0"/>
        <pt x="119" y="497" on="0"/>
        <pt x="98" y="393" on="0"/>
      </contour>
    </TTGlyph>
    <TTGlyph name="comma" xMin="21" yMin="-129" xMax="144" yMax="98">
      <contour>
        <pt x="144" y="98" on="1"/>
        <pt x="57" y="-129" on="1"/>
        <pt x="21" y="-121" on="1"/>
        <pt x="65" y="98" on="1"/>
      </contour>
    </TTGlyph>
    <TTGlyph name="comma.alt" xMin="18" yMin="-131" xMax="134" yMax="98">
      <contour>
        <pt x="59" y="98" on="1"/>
        <pt x="128" y="98" on="1"/>
        <pt x="131" y="85" on="0"/>
        <pt x="134" y="61" on="0"/>
        <pt x="134" y="48" on="1"/>
        <pt x="134" y="3" on="0"/>
        <pt x="94" y="-85" on="0"/>
        <pt x="54" y="-131" on="1"/>
        <pt x="18" y="-117" on="1"/>
        <pt x="45" y="-72" on="0"/>
        <pt x="66" y="4" on="0"/>
        <pt x="66" y="40" on="1"/>
        <pt x="66" y="53" on="0"/>
        <pt x="63" y="80" on="0"/>
      </contour>
    </TTGlyph>
    <TTGlyph name="comma.tab" xMin="53" yMin="-139" xMax="173" yMax="98">
      <contour>
        <pt x="173" y="98" on="1"/>
        <pt x="90" y="-139" on="1"/>
        <pt x="53" y="-131" on="1"/>
        <pt x="96" y="98" on="1"/>
      </contour>
    </TTGlyph>
    <TTGlyph name="comma.tab_alt" xMin="49" yMin="-139" xMax="166" yMax="98">
      <contour>
        <pt x="91" y="98" on="1"/>
        <pt x="160" y="98" on="1"/>
        <pt x="163" y="85" on="0"/>
        <pt x="166" y="59" on="0"/>
        <pt x="166" y="46" on="1"/>
        <pt x="166" y="0" on="0"/>
        <pt x="123" y="-92" on="0"/>
        <pt x="82" y="-139" on="1"/>
        <pt x="49" y="-125" on="1"/>
        <pt x="76" y="-79" on="0"/>
        <pt x="98" y="1" on="0"/>
        <pt x="98" y="38" on="1"/>
        <pt x="98" y="51" on="0"/>
        <pt x="95" y="80" on="0"/>
      </contour>
    </TTGlyph>
    <TTGlyph name="commaaccent" xMin="137" yMin="-227" xMax="242" yMax="-58">
      <contour>
        <pt x="148" y="-77" on="1"/>
        <pt x="207" y="-58" on="1"/>
        <pt x="225" y="-75" on="0"/>
        <pt x="242" y="-109" on="0"/>
        <pt x="242" y="-128" on="1"/>
        <pt x="242" y="-153" on="0"/>
        <pt x="209" y="-201" on="0"/>
        <pt x="177" y="-227" on="1"/>
        <pt x="137" y="-220" on="1"/>
        <pt x="159" y="-193" on="0"/>
        <pt x="180" y="-154" on="0"/>
        <pt x="180" y="-136" on="1"/>
        <pt x="180" y="-121" on="0"/>
        <pt x="166" y="-94" on="0"/>
      </contour>
    </TTGlyph>
    <TTGlyph name="commaaccent.rot" xMin="163" yMin="539" xMax="268" yMax="708">
      <contour>
        <pt x="257" y="558" on="1"/>
        <pt x="198" y="539" on="1"/>
        <pt x="180" y="556" on="0"/>
        <pt x="163" y="590" on="0"/>
        <pt x="163" y="609" on="1"/>
        <pt x="163" y="634" on="0"/>
        <pt x="196" y="682" on="0"/>
        <pt x="228" y="708" on="1"/>
        <pt x="268" y="701" on="1"/>
        <pt x="246" y="674" on="0"/>
        <pt x="225" y="635" on="0"/>
        <pt x="225" y="617" on="1"/>
        <pt x="225" y="602" on="0"/>
        <pt x="239" y="575" on="0"/>
      </contour>
    </TTGlyph>
    <TTGlyph name="copyright" xMin="49" yMin="-17" xMax="669" yMax="707">
      <contour>
        <pt x="669" y="345" on="1"/>
        <pt x="669" y="266" on="0"/>
        <pt x="624" y="133" on="0"/>
        <pt x="543" y="37" on="0"/>
        <pt x="428" y="-17" on="0"/>
        <pt x="359" y="-17" on="1"/>
        <pt x="290" y="-17" on="0"/>
        <pt x="175" y="37" on="0"/>
        <pt x="94" y="132" on="0"/>
        <pt x="49" y="266" on="0"/>
        <pt x="49" y="345" on="1"/>
        <pt x="49" y="424" on="0"/>
        <pt x="94" y="558" on="0"/>
        <pt x="175" y="653" on="0"/>
        <pt x="289" y="707" on="0"/>
        <pt x="358" y="707" on="1"/>
        <pt x="427" y="707" on="0"/>
        <pt x="543" y="653" on="0"/>
        <pt x="624" y="558" on="0"/>
        <pt x="669" y="424" on="0"/>
      </contour>
      <contour>
        <pt x="634" y="345" on="1"/>
        <pt x="634" y="420" on="0"/>
        <pt x="593" y="543" on="0"/>
        <pt x="519" y="629" on="0"/>
        <pt x="418" y="676" on="0"/>
        <pt x="358" y="676" on="1"/>
        <pt x="298" y="676" on="0"/>
        <pt x="197" y="629" on="0"/>
        <pt x="125" y="542" on="0"/>
        <pt x="84" y="420" on="0"/>
        <pt x="84" y="345" on="1"/>
        <pt x="84" y="270" on="0"/>
        <pt x="125" y="147" on="0"/>
        <pt x="198" y="61" on="0"/>
        <pt x="300" y="14" on="0"/>
        <pt x="360" y="14" on="1"/>
        <pt x="420" y="14" on="0"/>
        <pt x="521" y="61" on="0"/>
        <pt x="593" y="148" on="0"/>
        <pt x="634" y="270" on="0"/>
      </contour>
      <contour>
        <pt x="474" y="181" on="1"/>
        <pt x="452" y="165" on="0"/>
        <pt x="399" y="143" on="0"/>
        <pt x="366" y="143" on="1"/>
        <pt x="296" y="143" on="0"/>
        <pt x="210" y="256" on="0"/>
        <pt x="210" y="348" on="1"/>
        <pt x="210" y="438" on="0"/>
        <pt x="297" y="553" on="0"/>
        <pt x="369" y="553" on="1"/>
        <pt x="398" y="553" on="0"/>
        <pt x="446" y="536" on="0"/>
        <pt x="468" y="522" on="1"/>
        <pt x="460" y="470" on="1"/>
        <pt x="436" y="487" on="0"/>
        <pt x="393" y="505" on="0"/>
        <pt x="368" y="505" on="1"/>
        <pt x="319" y="505" on="0"/>
        <pt x="262" y="417" on="0"/>
        <pt x="262" y="348" on="1"/>
        <pt x="262" y="278" on="0"/>
        <pt x="320" y="191" on="0"/>
        <pt x="369" y="191" on="1"/>
        <pt x="397" y="191" on="0"/>
        <pt x="443" y="212" on="0"/>
        <pt x="468" y="231" on="1"/>
      </contour>
    </TTGlyph>
    <TTGlyph name="d" xMin="40" yMin="-10" xMax="404" yMax="718">
      <contour>
        <pt x="105" y="229" on="1"/>
        <pt x="105" y="139" on="0"/>
        <pt x="168" y="49" on="0"/>
        <pt x="217" y="49" on="1"/>
        <pt x="251" y="49" on="0"/>
        <pt x="309" y="89" on="0"/>
        <pt x="340" y="124" on="1"/>
        <pt x="340" y="402" on="1"/>
        <pt x="317" y="414" on="0"/>
        <pt x="270" y="425" on="0"/>
        <pt x="242" y="425" on="1"/>
        <pt x="184" y="425" on="0"/>
        <pt x="105" y="329" on="0"/>
      </contour>
      <contour>
        <pt x="40" y="227" on="1"/>
        <pt x="40" y="292" on="0"/>
        <pt x="73" y="388" on="0"/>
        <pt x="127" y="450" on="0"/>
        <pt x="199" y="481" on="0"/>
        <pt x="239" y="481" on="1"/>
        <pt x="268" y="481" on="0"/>
        <pt x="318" y="470" on="0"/>
        <pt x="340" y="461" on="1"/>
        <pt x="340" y="707" on="1"/>
        <pt x="404" y="718" on="1"/>
        <pt x="404" y="0" on="1"/>
        <pt x="356" y="0" on="1"/>
        <pt x="345" y="63" on="1"/>
        <pt x="318" y="32" on="0"/>
        <pt x="254" y="-10" on="0"/>
        <pt x="210" y="-10" on="1"/>
        <pt x="139" y="-10" on="0"/>
        <pt x="40" y="107" on="0"/>
      </contour>
    </TTGlyph>
    <TTGlyph name="dagger" xMin="48" yMin="-97" xMax="411" yMax="690">
      <contour>
        <pt x="257" y="610" on="1"/>
        <pt x="240" y="495" on="1"/>
        <pt x="219" y="495" on="1"/>
        <pt x="202" y="610" on="1"/>
        <pt x="202" y="690" on="1"/>
        <pt x="257" y="690" on="1"/>
      </contour>
      <contour>
        <pt x="199" y="453" on="1"/>
        <pt x="92" y="436" on="1"/>
        <pt x="48" y="436" on="1"/>
        <pt x="48" y="492" on="1"/>
        <pt x="92" y="492" on="1"/>
        <pt x="199" y="473" on="1"/>
      </contour>
      <contour>
        <pt x="411" y="436" on="1"/>
        <pt x="367" y="436" on="1"/>
        <pt x="260" y="453" on="1"/>
        <pt x="260" y="473" on="1"/>
        <pt x="367" y="492" on="1"/>
        <pt x="411" y="492" on="1"/>
      </contour>
      <contour>
        <pt x="255" y="23" on="1"/>
        <pt x="238" y="-97" on="1"/>
        <pt x="221" y="-97" on="1"/>
        <pt x="204" y="23" on="1"/>
        <pt x="204" y="322" on="1"/>
        <pt x="219" y="432" on="1"/>
        <pt x="240" y="432" on="1"/>
        <pt x="255" y="322" on="1"/>
      </contour>
    </TTGlyph>
    <TTGlyph name="daggerdbl" xMin="52" yMin="-164" xMax="416" yMax="690">
      <contour>
        <pt x="262" y="610" on="1"/>
        <pt x="244" y="495" on="1"/>
        <pt x="224" y="495" on="1"/>
        <pt x="206" y="610" on="1"/>
        <pt x="206" y="690" on="1"/>
        <pt x="262" y="690" on="1"/>
      </contour>
      <contour>
        <pt x="416" y="436" on="1"/>
        <pt x="372" y="436" on="1"/>
        <pt x="264" y="453" on="1"/>
        <pt x="264" y="473" on="1"/>
        <pt x="372" y="492" on="1"/>
        <pt x="416" y="492" on="1"/>
      </contour>
      <contour>
        <pt x="204" y="453" on="1"/>
        <pt x="97" y="436" on="1"/>
        <pt x="52" y="436" on="1"/>
        <pt x="52" y="492" on="1"/>
        <pt x="97" y="492" on="1"/>
        <pt x="204" y="473" on="1"/>
      </contour>
      <contour>
        <pt x="259" y="204" on="1"/>
        <pt x="244" y="94" on="1"/>
        <pt x="224" y="94" on="1"/>
        <pt x="209" y="204" on="1"/>
        <pt x="209" y="322" on="1"/>
        <pt x="224" y="432" on="1"/>
        <pt x="244" y="432" on="1"/>
        <pt x="259" y="322" on="1"/>
      </contour>
      <contour>
        <pt x="264" y="73" on="1"/>
        <pt x="372" y="90" on="1"/>
        <pt x="416" y="90" on="1"/>
        <pt x="416" y="34" on="1"/>
        <pt x="372" y="34" on="1"/>
        <pt x="264" y="52" on="1"/>
      </contour>
      <contour>
        <pt x="52" y="90" on="1"/>
        <pt x="97" y="90" on="1"/>
        <pt x="204" y="73" on="1"/>
        <pt x="204" y="52" on="1"/>
        <pt x="97" y="34" on="1"/>
        <pt x="52" y="34" on="1"/>
      </contour>
      <contour>
        <pt x="206" y="-84" on="1"/>
        <pt x="224" y="31" on="1"/>
        <pt x="244" y="31" on="1"/>
        <pt x="262" y="-84" on="1"/>
        <pt x="262" y="-164" on="1"/>
        <pt x="206" y="-164" on="1"/>
      </contour>
    </TTGlyph>
    <TTGlyph name="dcaron" xMin="40" yMin="-10" xMax="538" yMax="719">
      <component glyphName="d" x="0" y="0" flags="0x4"/>
      <component glyphName="caron.alt" x="293" y="2" flags="0x4"/>
    </TTGlyph>
    <TTGlyph name="dcroat" xMin="40" yMin="-9" xMax="469" yMax="718">
      <contour>
        <pt x="105" y="229" on="1"/>
        <pt x="105" y="139" on="0"/>
        <pt x="168" y="49" on="0"/>
        <pt x="217" y="49" on="1"/>
        <pt x="251" y="49" on="0"/>
        <pt x="309" y="89" on="0"/>
        <pt x="340" y="124" on="1"/>
        <pt x="340" y="402" on="1"/>
        <pt x="317" y="414" on="0"/>
        <pt x="270" y="425" on="0"/>
        <pt x="242" y="425" on="1"/>
        <pt x="184" y="425" on="0"/>
        <pt x="105" y="329" on="0"/>
      </contour>
      <contour>
        <pt x="345" y="63" on="1"/>
        <pt x="317" y="32" on="0"/>
        <pt x="253" y="-9" on="0"/>
        <pt x="210" y="-9" on="1"/>
        <pt x="139" y="-9" on="0"/>
        <pt x="40" y="107" on="0"/>
        <pt x="40" y="227" on="1"/>
        <pt x="40" y="292" on="0"/>
        <pt x="73" y="388" on="0"/>
        <pt x="127" y="450" on="0"/>
        <pt x="199" y="481" on="0"/>
        <pt x="239" y="481" on="1"/>
        <pt x="268" y="481" on="0"/>
        <pt x="318" y="470" on="0"/>
        <pt x="340" y="461" on="1"/>
        <pt x="340" y="576" on="1"/>
        <pt x="213" y="576" on="1"/>
        <pt x="204" y="629" on="1"/>
        <pt x="340" y="629" on="1"/>
        <pt x="340" y="707" on="1"/>
        <pt x="404" y="718" on="1"/>
        <pt x="404" y="629" on="1"/>
        <pt x="469" y="629" on="1"/>
        <pt x="469" y="576" on="1"/>
        <pt x="404" y="576" on="1"/>
        <pt x="404" y="0" on="1"/>
        <pt x="356" y="0" on="1"/>
      </contour>
    </TTGlyph>
    <TTGlyph name="dcroat.flat" xMin="40" yMin="-9" xMax="469" yMax="718">
      <contour>
        <pt x="105" y="229" on="1"/>
        <pt x="105" y="139" on="0"/>
        <pt x="168" y="49" on="0"/>
        <pt x="217" y="49" on="1"/>
        <pt x="251" y="49" on="0"/>
        <pt x="309" y="89" on="0"/>
        <pt x="340" y="124" on="1"/>
        <pt x="340" y="402" on="1"/>
        <pt x="317" y="414" on="0"/>
        <pt x="270" y="425" on="0"/>
        <pt x="242" y="425" on="1"/>
        <pt x="184" y="425" on="0"/>
        <pt x="105" y="329" on="0"/>
      </contour>
      <contour>
        <pt x="345" y="63" on="1"/>
        <pt x="317" y="32" on="0"/>
        <pt x="253" y="-9" on="0"/>
        <pt x="210" y="-9" on="1"/>
        <pt x="139" y="-9" on="0"/>
        <pt x="40" y="107" on="0"/>
        <pt x="40" y="227" on="1"/>
        <pt x="40" y="292" on="0"/>
        <pt x="73" y="388" on="0"/>
        <pt x="127" y="450" on="0"/>
        <pt x="199" y="481" on="0"/>
        <pt x="239" y="481" on="1"/>
        <pt x="268" y="481" on="0"/>
        <pt x="318" y="470" on="0"/>
        <pt x="340" y="461" on="1"/>
        <pt x="340" y="576" on="1"/>
        <pt x="208" y="576" on="1"/>
        <pt x="208" y="629" on="1"/>
        <pt x="340" y="629" on="1"/>
        <pt x="340" y="707" on="1"/>
        <pt x="404" y="718" on="1"/>
        <pt x="404" y="629" on="1"/>
        <pt x="469" y="629" on="1"/>
        <pt x="469" y="576" on="1"/>
        <pt x="404" y="576" on="1"/>
        <pt x="404" y="0" on="1"/>
        <pt x="356" y="0" on="1"/>
      </contour>
    </TTGlyph>
    <TTGlyph name="degree" xMin="48" yMin="407" xMax="330" yMax="689">
      <contour>
        <pt x="330" y="548" on="1"/>
        <pt x="330" y="488" on="0"/>
        <pt x="249" y="407" on="0"/>
        <pt x="189" y="407" on="1"/>
        <pt x="129" y="407" on="0"/>
        <pt x="48" y="488" on="0"/>
        <pt x="48" y="548" on="1"/>
        <pt x="48" y="608" on="0"/>
        <pt x="129" y="689" on="0"/>
        <pt x="189" y="689" on="1"/>
        <pt x="249" y="689" on="0"/>
        <pt x="330" y="608" on="0"/>
      </contour>
      <contour>
        <pt x="280" y="548" on="1"/>
        <pt x="280" y="588" on="0"/>
        <pt x="229" y="643" on="0"/>
        <pt x="189" y="643" on="1"/>
        <pt x="149" y="643" on="0"/>
        <pt x="99" y="588" on="0"/>
        <pt x="99" y="548" on="1"/>
        <pt x="99" y="508" on="0"/>
        <pt x="150" y="453" on="0"/>
        <pt x="190" y="453" on="1"/>
        <pt x="230" y="453" on="0"/>
        <pt x="280" y="508" on="0"/>
      </contour>
    </TTGlyph>
    <TTGlyph name="degree.tab" xMin="80" yMin="368" xMax="405" yMax="691">
      <contour>
        <pt x="405" y="529" on="1"/>
        <pt x="405" y="460" on="0"/>
        <pt x="312" y="368" on="0"/>
        <pt x="243" y="368" on="1"/>
        <pt x="174" y="368" on="0"/>
        <pt x="80" y="460" on="0"/>
        <pt x="80" y="529" on="1"/>
        <pt x="80" y="598" on="0"/>
        <pt x="174" y="691" on="0"/>
        <pt x="243" y="691" on="1"/>
        <pt x="313" y="691" on="0"/>
        <pt x="405" y="598" on="0"/>
      </contour>
      <contour>
        <pt x="132" y="529" on="1"/>
        <pt x="132" y="480" on="0"/>
        <pt x="195" y="415" on="0"/>
        <pt x="243" y="415" on="1"/>
        <pt x="291" y="415" on="0"/>
        <pt x="353" y="480" on="0"/>
        <pt x="353" y="529" on="1"/>
        <pt x="353" y="578" on="0"/>
        <pt x="290" y="644" on="0"/>
        <pt x="242" y="644" on="1"/>
        <pt x="194" y="644" on="0"/>
        <pt x="132" y="578" on="0"/>
      </contour>
    </TTGlyph>
    <TTGlyph name="dieresis" xMin="91" yMin="546" xMax="317" yMax="632">
      <contour>
        <pt x="165" y="546" on="1"/>
        <pt x="91" y="546" on="1"/>
        <pt x="91" y="632" on="1"/>
        <pt x="165" y="632" on="1"/>
      </contour>
      <contour>
        <pt x="317" y="546" on="1"/>
        <pt x="242" y="546" on="1"/>
        <pt x="242" y="632" on="1"/>
        <pt x="317" y="632" on="1"/>
      </contour>
    </TTGlyph>
    <TTGlyph name="divide" xMin="49" yMin="132" xMax="446" yMax="551">
      <contour>
        <pt x="283" y="465" on="1"/>
        <pt x="213" y="465" on="1"/>
        <pt x="213" y="551" on="1"/>
        <pt x="283" y="551" on="1"/>
      </contour>
      <contour>
        <pt x="446" y="315" on="1"/>
        <pt x="49" y="315" on="1"/>
        <pt x="49" y="368" on="1"/>
        <pt x="446" y="368" on="1"/>
      </contour>
      <contour>
        <pt x="283" y="132" on="1"/>
        <pt x="213" y="132" on="1"/>
        <pt x="213" y="218" on="1"/>
        <pt x="283" y="218" on="1"/>
      </contour>
    </TTGlyph>
    <TTGlyph name="divide.tab" xMin="44" yMin="132" xMax="442" yMax="551">
      <contour>
        <pt x="278" y="465" on="1"/>
        <pt x="208" y="465" on="1"/>
        <pt x="208" y="551" on="1"/>
        <pt x="278" y="551" on="1"/>
      </contour>
      <contour>
        <pt x="442" y="315" on="1"/>
        <pt x="44" y="315" on="1"/>
        <pt x="44" y="368" on="1"/>
        <pt x="442" y="368" on="1"/>
      </contour>
      <contour>
        <pt x="278" y="132" on="1"/>
        <pt x="208" y="132" on="1"/>
        <pt x="208" y="218" on="1"/>
        <pt x="278" y="218" on="1"/>
      </contour>
    </TTGlyph>
    <TTGlyph name="dollar" xMin="37" yMin="-125" xMax="430" yMax="763">
      <contour>
        <pt x="118" y="522" on="1"/>
        <pt x="118" y="479" on="0"/>
        <pt x="168" y="423" on="0"/>
        <pt x="226" y="395" on="1"/>
        <pt x="263" y="631" on="1"/>
        <pt x="259" y="632" on="0"/>
        <pt x="248" y="632" on="0"/>
        <pt x="244" y="632" on="1"/>
        <pt x="183" y="632" on="0"/>
        <pt x="118" y="571" on="0"/>
      </contour>
      <contour>
        <pt x="232" y="51" on="1"/>
        <pt x="300" y="51" on="0"/>
        <pt x="370" y="121" on="0"/>
        <pt x="370" y="175" on="1"/>
        <pt x="370" y="217" on="0"/>
        <pt x="326" y="281" on="0"/>
        <pt x="260" y="312" on="1"/>
        <pt x="219" y="51" on="1"/>
        <pt x="222" y="51" on="0"/>
        <pt x="229" y="51" on="0"/>
      </contour>
      <contour>
        <pt x="226" y="-3" on="1"/>
        <pt x="222" y="-3" on="0"/>
        <pt x="215" y="-3" on="0"/>
        <pt x="212" y="-3" on="1"/>
        <pt x="192" y="-125" on="1"/>
        <pt x="146" y="-114" on="1"/>
        <pt x="164" y="2" on="1"/>
        <pt x="127" y="8" on="0"/>
        <pt x="62" y="31" on="0"/>
        <pt x="37" y="45" on="1"/>
        <pt x="46" y="106" on="1"/>
        <pt x="75" y="89" on="0"/>
        <pt x="140" y="63" on="0"/>
        <pt x="174" y="57" on="1"/>
        <pt x="217" y="332" on="1"/>
        <pt x="139" y="368" on="0"/>
        <pt x="58" y="449" on="0"/>
        <pt x="58" y="517" on="1"/>
        <pt x="58" y="595" on="0"/>
        <pt x="163" y="686" on="0"/>
        <pt x="249" y="686" on="1"/>
        <pt x="255" y="686" on="0"/>
        <pt x="266" y="686" on="0"/>
        <pt x="271" y="685" on="1"/>
        <pt x="283" y="763" on="1"/>
        <pt x="330" y="751" on="1"/>
        <pt x="318" y="679" on="1"/>
        <pt x="344" y="674" on="0"/>
        <pt x="391" y="658" on="0"/>
        <pt x="412" y="648" on="1"/>
        <pt x="402" y="587" on="1"/>
        <pt x="381" y="599" on="0"/>
        <pt x="334" y="618" on="0"/>
        <pt x="309" y="624" on="1"/>
        <pt x="270" y="374" on="1"/>
        <pt x="352" y="336" on="0"/>
        <pt x="430" y="249" on="0"/>
        <pt x="430" y="180" on="1"/>
        <pt x="430" y="96" on="0"/>
        <pt x="319" y="-3" on="0"/>
      </contour>
    </TTGlyph>
    <TTGlyph name="dollar.tab" xMin="38" yMin="-122" xMax="439" yMax="761">
      <contour>
        <pt x="118" y="518" on="1"/>
        <pt x="118" y="478" on="0"/>
        <pt x="163" y="421" on="0"/>
        <pt x="229" y="393" on="1"/>
        <pt x="264" y="632" on="1"/>
        <pt x="259" y="633" on="0"/>
        <pt x="249" y="633" on="0"/>
        <pt x="244" y="633" on="1"/>
        <pt x="242" y="633" on="1"/>
        <pt x="184" y="632" on="0"/>
        <pt x="118" y="566" on="0"/>
      </contour>
      <contour>
        <pt x="237" y="50" on="1"/>
        <pt x="239" y="50" on="1"/>
        <pt x="304" y="50" on="0"/>
        <pt x="378" y="122" on="0"/>
        <pt x="378" y="178" on="1"/>
        <pt x="378" y="220" on="0"/>
        <pt x="330" y="285" on="0"/>
        <pt x="263" y="314" on="1"/>
        <pt x="225" y="50" on="1"/>
        <pt x="228" y="50" on="0"/>
        <pt x="234" y="50" on="0"/>
      </contour>
      <contour>
        <pt x="233" y="-3" on="1"/>
        <pt x="229" y="-3" on="0"/>
        <pt x="223" y="-3" on="0"/>
        <pt x="219" y="-3" on="1"/>
        <pt x="201" y="-122" on="1"/>
        <pt x="153" y="-112" on="1"/>
        <pt x="170" y="2" on="1"/>
        <pt x="133" y="8" on="0"/>
        <pt x="67" y="31" on="0"/>
        <pt x="38" y="47" on="1"/>
        <pt x="48" y="107" on="1"/>
        <pt x="81" y="88" on="0"/>
        <pt x="145" y="61" on="0"/>
        <pt x="179" y="55" on="1"/>
        <pt x="220" y="332" on="1"/>
        <pt x="139" y="366" on="0"/>
        <pt x="58" y="447" on="0"/>
        <pt x="58" y="514" on="1"/>
        <pt x="58" y="591" on="0"/>
        <pt x="165" y="686" on="0"/>
        <pt x="246" y="686" on="1"/>
        <pt x="253" y="686" on="0"/>
        <pt x="265" y="686" on="0"/>
        <pt x="271" y="685" on="1"/>
        <pt x="282" y="761" on="1"/>
        <pt x="329" y="750" on="1"/>
        <pt x="319" y="680" on="1"/>
        <pt x="348" y="675" on="0"/>
        <pt x="399" y="656" on="0"/>
        <pt x="423" y="644" on="1"/>
        <pt x="413" y="584" on="1"/>
        <pt x="388" y="598" on="0"/>
        <pt x="336" y="620" on="0"/>
        <pt x="309" y="626" on="1"/>
        <pt x="272" y="375" on="1"/>
        <pt x="362" y="338" on="0"/>
        <pt x="439" y="249" on="0"/>
        <pt x="439" y="182" on="1"/>
        <pt x="439" y="99" on="0"/>
        <pt x="324" y="-3" on="0"/>
      </contour>
    </TTGlyph>
    <TTGlyph name="dotaccent" xMin="165" yMin="545" xMax="243" yMax="632">
      <contour>
        <pt x="243" y="545" on="1"/>
        <pt x="165" y="545" on="1"/>
        <pt x="165" y="632" on="1"/>
        <pt x="243" y="632" on="1"/>
      </contour>
    </TTGlyph>
    <TTGlyph name="dotlessi" xMin="73" yMin="0" xMax="137" yMax="475">
      <contour>
        <pt x="137" y="0" on="1"/>
        <pt x="73" y="0" on="1"/>
        <pt x="73" y="475" on="1"/>
        <pt x="137" y="475" on="1"/>
      </contour>
    </TTGlyph>
    <TTGlyph name="e" xMin="38" yMin="-9" xMax="395" yMax="485">
      <contour>
        <pt x="223" y="432" on="1"/>
        <pt x="175" y="432" on="0"/>
        <pt x="112" y="349" on="0"/>
        <pt x="105" y="280" on="1"/>
        <pt x="330" y="280" on="1"/>
        <pt x="326" y="347" on="0"/>
        <pt x="272" y="432" on="0"/>
      </contour>
      <contour>
        <pt x="393" y="49" on="1"/>
        <pt x="362" y="24" on="0"/>
        <pt x="281" y="-9" on="0"/>
        <pt x="232" y="-9" on="1"/>
        <pt x="145" y="-9" on="0"/>
        <pt x="38" y="120" on="0"/>
        <pt x="38" y="238" on="1"/>
        <pt x="38" y="292" on="0"/>
        <pt x="65" y="384" on="0"/>
        <pt x="114" y="449" on="0"/>
        <pt x="182" y="485" on="0"/>
        <pt x="223" y="485" on="1"/>
        <pt x="267" y="485" on="0"/>
        <pt x="332" y="448" on="0"/>
        <pt x="374" y="383" on="0"/>
        <pt x="395" y="296" on="0"/>
        <pt x="395" y="247" on="1"/>
        <pt x="395" y="228" on="1"/>
        <pt x="103" y="228" on="1"/>
        <pt x="105" y="144" on="0"/>
        <pt x="176" y="47" on="0"/>
        <pt x="238" y="47" on="1"/>
        <pt x="277" y="47" on="0"/>
        <pt x="349" y="79" on="0"/>
        <pt x="383" y="107" on="1"/>
      </contour>
    </TTGlyph>
    <TTGlyph name="eacute" xMin="38" yMin="-9" xMax="395" yMax="683">
      <component glyphName="e" x="0" y="0" flags="0x204"/>
      <component glyphName="acute" x="73" y="1" flags="0x4"/>
    </TTGlyph>
    <TTGlyph name="ebreve" xMin="38" yMin="-9" xMax="395" yMax="660">
      <component glyphName="e" x="0" y="0" flags="0x204"/>
      <component glyphName="breve" x="21" y="1" flags="0x4"/>
    </TTGlyph>
    <TTGlyph name="ecaron" xMin="38" yMin="-9" xMax="395" yMax="679">
      <component glyphName="e" x="0" y="0" flags="0x204"/>
      <component glyphName="caron" x="21" y="1" flags="0x4"/>
    </TTGlyph>
    <TTGlyph name="ecircumflex" xMin="38" yMin="-9" xMax="395" yMax="679">
      <component glyphName="e" x="0" y="0" flags="0x204"/>
      <component glyphName="circumflex" x="21" y="1" flags="0x4"/>
    </TTGlyph>
    <TTGlyph name="edieresis" xMin="38" yMin="-9" xMax="395" yMax="633">
      <component glyphName="e" x="0" y="0" flags="0x204"/>
      <component glyphName="dieresis" x="21" y="1" flags="0x4"/>
    </TTGlyph>
    <TTGlyph name="edotaccent" xMin="38" yMin="-9" xMax="395" yMax="633">
      <component glyphName="e" x="0" y="0" flags="0x204"/>
      <component glyphName="dotaccent" x="21" y="1" flags="0x4"/>
    </TTGlyph>
    <TTGlyph name="egrave" xMin="38" yMin="-9" xMax="395" yMax="683">
      <component glyphName="e" x="0" y="0" flags="0x204"/>
      <component glyphName="grave" x="-32" y="1" flags="0x4"/>
    </TTGlyph>
    <TTGlyph name="eight" xMin="46" yMin="-12" xMax="459" yMax="695">
      <contour>
        <pt x="252" y="-12" on="1"/>
        <pt x="204" y="-12" on="0"/>
        <pt x="127" y="17" on="0"/>
        <pt x="74" y="67" on="0"/>
        <pt x="46" y="134" on="0"/>
        <pt x="46" y="172" on="1"/>
        <pt x="46" y="233" on="0"/>
        <pt x="118" y="329" on="0"/>
        <pt x="177" y="363" on="1"/>
        <pt x="127" y="391" on="0"/>
        <pt x="66" y="471" on="0"/>
        <pt x="66" y="528" on="1"/>
        <pt x="66" y="600" on="0"/>
        <pt x="175" y="695" on="0"/>
        <pt x="256" y="695" on="1"/>
        <pt x="338" y="695" on="0"/>
        <pt x="441" y="601" on="0"/>
        <pt x="441" y="529" on="1"/>
        <pt x="441" y="470" on="0"/>
        <pt x="375" y="387" on="0"/>
        <pt x="328" y="357" on="1"/>
        <pt x="388" y="326" on="0"/>
        <pt x="459" y="240" on="0"/>
        <pt x="459" y="173" on="1"/>
        <pt x="459" y="95" on="0"/>
        <pt x="343" y="-12" on="0"/>
      </contour>
      <contour>
        <pt x="131" y="529" on="1"/>
        <pt x="131" y="480" on="0"/>
        <pt x="197" y="414" on="0"/>
        <pt x="275" y="380" on="1"/>
        <pt x="321" y="408" on="0"/>
        <pt x="376" y="481" on="0"/>
        <pt x="376" y="527" on="1"/>
        <pt x="376" y="576" on="0"/>
        <pt x="308" y="640" on="0"/>
        <pt x="254" y="640" on="1"/>
        <pt x="197" y="640" on="0"/>
        <pt x="131" y="574" on="0"/>
      </contour>
      <contour>
        <pt x="254" y="43" on="1"/>
        <pt x="314" y="43" on="0"/>
        <pt x="394" y="118" on="0"/>
        <pt x="394" y="173" on="1"/>
        <pt x="394" y="230" on="0"/>
        <pt x="321" y="300" on="0"/>
        <pt x="230" y="338" on="1"/>
        <pt x="176" y="310" on="0"/>
        <pt x="111" y="226" on="0"/>
        <pt x="111" y="176" on="1"/>
        <pt x="111" y="118" on="0"/>
        <pt x="191" y="43" on="0"/>
      </contour>
    </TTGlyph>
    <TTGlyph name="eight.den" xMin="37" yMin="-10" xMax="286" yMax="359">
      <component glyphName="eight.num" x="0" y="-334" flags="0x4"/>
    </TTGlyph>
    <TTGlyph name="eight.inf" xMin="37" yMin="-160" xMax="286" yMax="209">
      <component glyphName="eight.num" x="0" y="-484" flags="0x4"/>
    </TTGlyph>
    <TTGlyph name="eight.num" xMin="37" yMin="324" xMax="286" yMax="693">
      <contour>
        <pt x="161" y="324" on="1"/>
        <pt x="101" y="324" on="0"/>
        <pt x="37" y="382" on="0"/>
        <pt x="37" y="421" on="1"/>
        <pt x="37" y="452" on="0"/>
        <pt x="73" y="501" on="0"/>
        <pt x="107" y="520" on="1"/>
        <pt x="76" y="535" on="0"/>
        <pt x="49" y="577" on="0"/>
        <pt x="49" y="602" on="1"/>
        <pt x="49" y="641" on="0"/>
        <pt x="113" y="693" on="0"/>
        <pt x="162" y="693" on="1"/>
        <pt x="212" y="693" on="0"/>
        <pt x="275" y="643" on="0"/>
        <pt x="275" y="604" on="1"/>
        <pt x="275" y="576" on="0"/>
        <pt x="241" y="532" on="0"/>
        <pt x="214" y="516" on="1"/>
        <pt x="252" y="499" on="0"/>
        <pt x="286" y="452" on="0"/>
        <pt x="286" y="422" on="1"/>
        <pt x="286" y="381" on="0"/>
        <pt x="216" y="324" on="0"/>
      </contour>
      <contour>
        <pt x="99" y="603" on="1"/>
        <pt x="99" y="580" on="0"/>
        <pt x="132" y="549" on="0"/>
        <pt x="178" y="531" on="1"/>
        <pt x="200" y="545" on="0"/>
        <pt x="225" y="579" on="0"/>
        <pt x="225" y="601" on="1"/>
        <pt x="225" y="625" on="0"/>
        <pt x="190" y="655" on="0"/>
        <pt x="162" y="655" on="1"/>
        <pt x="132" y="655" on="0"/>
        <pt x="99" y="624" on="0"/>
      </contour>
      <contour>
        <pt x="162" y="363" on="1"/>
        <pt x="193" y="363" on="0"/>
        <pt x="235" y="396" on="0"/>
        <pt x="235" y="423" on="1"/>
        <pt x="235" y="451" on="0"/>
        <pt x="192" y="485" on="0"/>
        <pt x="145" y="504" on="1"/>
        <pt x="116" y="488" on="0"/>
        <pt x="87" y="448" on="0"/>
        <pt x="87" y="425" on="1"/>
        <pt x="87" y="397" on="0"/>
        <pt x="129" y="363" on="0"/>
      </contour>
    </TTGlyph>
    <TTGlyph name="eight.sup" xMin="37" yMin="417" xMax="286" yMax="786">
      <component glyphName="eight.num" x="0" y="93" flags="0x4"/>
    </TTGlyph>
    <TTGlyph name="eight.tab" xMin="40" yMin="-10" xMax="443" yMax="695">
      <contour>
        <pt x="243" y="-10" on="1"/>
        <pt x="195" y="-10" on="0"/>
        <pt x="119" y="20" on="0"/>
        <pt x="67" y="70" on="0"/>
        <pt x="40" y="137" on="0"/>
        <pt x="40" y="174" on="1"/>
        <pt x="40" y="236" on="0"/>
        <pt x="109" y="332" on="0"/>
        <pt x="164" y="367" on="1"/>
        <pt x="115" y="395" on="0"/>
        <pt x="61" y="474" on="0"/>
        <pt x="61" y="527" on="1"/>
        <pt x="61" y="600" on="0"/>
        <pt x="165" y="695" on="0"/>
        <pt x="244" y="695" on="1"/>
        <pt x="323" y="695" on="0"/>
        <pt x="425" y="602" on="0"/>
        <pt x="425" y="529" on="1"/>
        <pt x="425" y="469" on="0"/>
        <pt x="361" y="384" on="0"/>
        <pt x="319" y="356" on="1"/>
        <pt x="380" y="324" on="0"/>
        <pt x="443" y="237" on="0"/>
        <pt x="443" y="174" on="1"/>
        <pt x="443" y="96" on="0"/>
        <pt x="332" y="-10" on="0"/>
      </contour>
      <contour>
        <pt x="125" y="529" on="1"/>
        <pt x="125" y="481" on="0"/>
        <pt x="187" y="417" on="0"/>
        <pt x="268" y="380" on="1"/>
        <pt x="311" y="408" on="0"/>
        <pt x="360" y="482" on="0"/>
        <pt x="360" y="528" on="1"/>
        <pt x="360" y="577" on="0"/>
        <pt x="296" y="641" on="0"/>
        <pt x="243" y="641" on="1"/>
        <pt x="188" y="641" on="0"/>
        <pt x="125" y="574" on="0"/>
      </contour>
      <contour>
        <pt x="244" y="45" on="1"/>
        <pt x="302" y="45" on="0"/>
        <pt x="378" y="120" on="0"/>
        <pt x="378" y="175" on="1"/>
        <pt x="378" y="231" on="0"/>
        <pt x="309" y="301" on="0"/>
        <pt x="216" y="342" on="1"/>
        <pt x="165" y="313" on="0"/>
        <pt x="105" y="230" on="0"/>
        <pt x="105" y="179" on="1"/>
        <pt x="105" y="119" on="0"/>
        <pt x="183" y="45" on="0"/>
      </contour>
    </TTGlyph>
    <TTGlyph name="ellipsis" xMin="58" yMin="0" xMax="520" yMax="97">
      <contour>
        <pt x="520" y="0" on="1"/>
        <pt x="445" y="0" on="1"/>
        <pt x="445" y="97" on="1"/>
        <pt x="520" y="97" on="1"/>
      </contour>
      <contour>
        <pt x="326" y="0" on="1"/>
        <pt x="251" y="0" on="1"/>
        <pt x="251" y="97" on="1"/>
        <pt x="326" y="97" on="1"/>
      </contour>
      <contour>
        <pt x="132" y="0" on="1"/>
        <pt x="58" y="0" on="1"/>
        <pt x="58" y="97" on="1"/>
        <pt x="132" y="97" on="1"/>
      </contour>
    </TTGlyph>
    <TTGlyph name="emacron" xMin="38" yMin="-9" xMax="395" yMax="621">
      <component glyphName="e" x="0" y="0" flags="0x204"/>
      <component glyphName="macron" x="21" y="1" flags="0x4"/>
    </TTGlyph>
    <TTGlyph name="emdash" xMin="47" yMin="254" xMax="756" yMax="314">
      <contour>
        <pt x="756" y="254" on="1"/>
        <pt x="47" y="254" on="1"/>
        <pt x="47" y="314" on="1"/>
        <pt x="756" y="314" on="1"/>
      </contour>
    </TTGlyph>
    <TTGlyph name="endash" xMin="47" yMin="254" xMax="356" yMax="315">
      <contour>
        <pt x="356" y="254" on="1"/>
        <pt x="47" y="254" on="1"/>
        <pt x="47" y="315" on="1"/>
        <pt x="356" y="315" on="1"/>
      </contour>
    </TTGlyph>
    <TTGlyph name="eogonek" xMin="38" yMin="-170" xMax="395" yMax="485">
      <contour>
        <pt x="320" y="-170" on="1"/>
        <pt x="286" y="-170" on="0"/>
        <pt x="247" y="-137" on="0"/>
        <pt x="247" y="-106" on="1"/>
        <pt x="247" y="-84" on="0"/>
        <pt x="273" y="-36" on="0"/>
        <pt x="301" y="1" on="1"/>
        <pt x="285" y="-3" on="0"/>
        <pt x="250" y="-9" on="0"/>
        <pt x="233" y="-9" on="1"/>
        <pt x="146" y="-9" on="0"/>
        <pt x="38" y="120" on="0"/>
        <pt x="38" y="238" on="1"/>
        <pt x="38" y="292" on="0"/>
        <pt x="65" y="384" on="0"/>
        <pt x="114" y="449" on="0"/>
        <pt x="182" y="485" on="0"/>
        <pt x="223" y="485" on="1"/>
        <pt x="267" y="485" on="0"/>
        <pt x="332" y="448" on="0"/>
        <pt x="374" y="383" on="0"/>
        <pt x="395" y="296" on="0"/>
        <pt x="395" y="247" on="1"/>
        <pt x="395" y="228" on="1"/>
        <pt x="103" y="228" on="1"/>
        <pt x="104" y="144" on="0"/>
        <pt x="175" y="47" on="0"/>
        <pt x="238" y="47" on="1"/>
        <pt x="277" y="47" on="0"/>
        <pt x="349" y="79" on="0"/>
        <pt x="383" y="107" on="1"/>
        <pt x="392" y="56" on="1"/>
        <pt x="348" y="-3" on="1"/>
        <pt x="323" y="-35" on="0"/>
        <pt x="303" y="-76" on="0"/>
        <pt x="303" y="-92" on="1"/>
        <pt x="303" y="-108" on="0"/>
        <pt x="321" y="-124" on="0"/>
        <pt x="339" y="-124" on="1"/>
        <pt x="349" y="-124" on="0"/>
        <pt x="369" y="-120" on="0"/>
        <pt x="379" y="-117" on="1"/>
        <pt x="380" y="-158" on="1"/>
        <pt x="367" y="-163" on="0"/>
        <pt x="336" y="-170" on="0"/>
      </contour>
      <contour>
        <pt x="105" y="280" on="1"/>
        <pt x="330" y="280" on="1"/>
        <pt x="326" y="347" on="0"/>
        <pt x="272" y="432" on="0"/>
        <pt x="223" y="432" on="1"/>
        <pt x="174" y="432" on="0"/>
        <pt x="112" y="348" on="0"/>
      </contour>
    </TTGlyph>
    <TTGlyph name="equal" xMin="62" yMin="216" xMax="450" yMax="467">
      <contour>
        <pt x="450" y="410" on="1"/>
        <pt x="62" y="410" on="1"/>
        <pt x="62" y="467" on="1"/>
        <pt x="450" y="467" on="1"/>
      </contour>
      <contour>
        <pt x="450" y="216" on="1"/>
        <pt x="62" y="216" on="1"/>
        <pt x="62" y="273" on="1"/>
        <pt x="450" y="273" on="1"/>
      </contour>
    </TTGlyph>
    <TTGlyph name="equal.tab" xMin="49" yMin="216" xMax="437" yMax="467">
      <contour>
        <pt x="437" y="410" on="1"/>
        <pt x="49" y="410" on="1"/>
        <pt x="49" y="467" on="1"/>
        <pt x="437" y="467" on="1"/>
      </contour>
      <contour>
        <pt x="437" y="216" on="1"/>
        <pt x="49" y="216" on="1"/>
        <pt x="49" y="273" on="1"/>
        <pt x="437" y="273" on="1"/>
      </contour>
    </TTGlyph>
    <TTGlyph name="eth" xMin="39" yMin="-9" xMax="425" yMax="720">
      <contour>
        <pt x="225" y="-9" on="1"/>
        <pt x="187" y="-9" on="0"/>
        <pt x="119" y="20" on="0"/>
        <pt x="69" y="76" on="0"/>
        <pt x="39" y="161" on="0"/>
        <pt x="39" y="216" on="1"/>
        <pt x="39" y="266" on="0"/>
        <pt x="68" y="352" on="0"/>
        <pt x="118" y="414" on="0"/>
        <pt x="188" y="450" on="0"/>
        <pt x="228" y="450" on="1"/>
        <pt x="267" y="450" on="0"/>
        <pt x="328" y="424" on="0"/>
        <pt x="353" y="405" on="1"/>
        <pt x="344" y="461" on="0"/>
        <pt x="299" y="550" on="0"/>
        <pt x="265" y="583" on="1"/>
        <pt x="222" y="519" on="1"/>
        <pt x="163" y="519" on="1"/>
        <pt x="226" y="615" on="1"/>
        <pt x="204" y="630" on="0"/>
        <pt x="153" y="654" on="0"/>
        <pt x="125" y="663" on="1"/>
        <pt x="135" y="718" on="1"/>
        <pt x="169" y="708" on="0"/>
        <pt x="231" y="680" on="0"/>
        <pt x="258" y="662" on="1"/>
        <pt x="296" y="720" on="1"/>
        <pt x="349" y="709" on="1"/>
        <pt x="298" y="632" on="1"/>
        <pt x="359" y="578" on="0"/>
        <pt x="425" y="411" on="0"/>
        <pt x="425" y="298" on="1"/>
        <pt x="425" y="205" on="0"/>
        <pt x="383" y="77" on="0"/>
        <pt x="346" y="41" on="1"/>
        <pt x="321" y="16" on="0"/>
        <pt x="262" y="-9" on="0"/>
      </contour>
      <contour>
        <pt x="228" y="46" on="1"/>
        <pt x="285" y="46" on="0"/>
        <pt x="362" y="174" on="0"/>
        <pt x="362" y="296" on="1"/>
        <pt x="362" y="308" on="0"/>
        <pt x="361" y="329" on="0"/>
        <pt x="360" y="335" on="1"/>
        <pt x="360" y="335" on="0"/>
        <pt x="360" y="336" on="0"/>
        <pt x="360" y="337" on="1"/>
        <pt x="332" y="365" on="0"/>
        <pt x="268" y="394" on="0"/>
        <pt x="234" y="394" on="1"/>
        <pt x="177" y="394" on="0"/>
        <pt x="105" y="297" on="0"/>
        <pt x="105" y="219" on="1"/>
        <pt x="105" y="136" on="0"/>
        <pt x="175" y="46" on="0"/>
      </contour>
    </TTGlyph>
    <TTGlyph name="exclam" xMin="80" yMin="0" xMax="158" yMax="690">
      <contour>
        <pt x="158" y="690" on="1"/>
        <pt x="139" y="200" on="1"/>
        <pt x="98" y="190" on="1"/>
        <pt x="80" y="690" on="1"/>
      </contour>
      <contour>
        <pt x="156" y="0" on="1"/>
        <pt x="81" y="0" on="1"/>
        <pt x="81" y="98" on="1"/>
        <pt x="156" y="98" on="1"/>
      </contour>
    </TTGlyph>
    <TTGlyph name="exclam.flat" xMin="80" yMin="0" xMax="158" yMax="690">
      <contour>
        <pt x="158" y="690" on="1"/>
        <pt x="139" y="195" on="1"/>
        <pt x="98" y="195" on="1"/>
        <pt x="80" y="690" on="1"/>
      </contour>
      <contour>
        <pt x="156" y="0" on="1"/>
        <pt x="81" y="0" on="1"/>
        <pt x="81" y="98" on="1"/>
        <pt x="156" y="98" on="1"/>
      </contour>
    </TTGlyph>
    <TTGlyph name="exclamdown" xMin="80" yMin="0" xMax="158" yMax="690">
      <contour>
        <pt x="156" y="592" on="1"/>
        <pt x="81" y="592" on="1"/>
        <pt x="81" y="690" on="1"/>
        <pt x="156" y="690" on="1"/>
      </contour>
      <contour>
        <pt x="158" y="0" on="1"/>
        <pt x="80" y="0" on="1"/>
        <pt x="98" y="490" on="1"/>
        <pt x="139" y="500" on="1"/>
      </contour>
    </TTGlyph>
    <TTGlyph name="exclamdown.flat" xMin="80" yMin="0" xMax="158" yMax="690">
      <contour>
        <pt x="81" y="690" on="1"/>
        <pt x="156" y="690" on="1"/>
        <pt x="156" y="592" on="1"/>
        <pt x="81" y="592" on="1"/>
      </contour>
      <contour>
        <pt x="80" y="0" on="1"/>
        <pt x="98" y="495" on="1"/>
        <pt x="139" y="495" on="1"/>
        <pt x="158" y="0" on="1"/>
      </contour>
    </TTGlyph>
    <TTGlyph name="f" xMin="24" yMin="0" xMax="258" yMax="713">
      <contour>
        <pt x="258" y="651" on="1"/>
        <pt x="251" y="652" on="0"/>
        <pt x="230" y="655" on="0"/>
        <pt x="217" y="655" on="1"/>
        <pt x="187" y="655" on="0"/>
        <pt x="155" y="622" on="0"/>
        <pt x="155" y="587" on="1"/>
        <pt x="155" y="475" on="1"/>
        <pt x="243" y="475" on="1"/>
        <pt x="252" y="421" on="1"/>
        <pt x="155" y="421" on="1"/>
        <pt x="155" y="0" on="1"/>
        <pt x="92" y="0" on="1"/>
        <pt x="92" y="421" on="1"/>
        <pt x="24" y="421" on="1"/>
        <pt x="24" y="475" on="1"/>
        <pt x="92" y="475" on="1"/>
        <pt x="92" y="592" on="1"/>
        <pt x="92" y="655" on="0"/>
        <pt x="159" y="713" on="0"/>
        <pt x="214" y="713" on="1"/>
        <pt x="224" y="713" on="0"/>
        <pt x="241" y="711" on="0"/>
        <pt x="248" y="710" on="1"/>
      </contour>
    </TTGlyph>
    <TTGlyph name="f.flat" xMin="24" yMin="0" xMax="258" yMax="713">
      <contour>
        <pt x="258" y="651" on="1"/>
        <pt x="251" y="652" on="0"/>
        <pt x="230" y="655" on="0"/>
        <pt x="217" y="655" on="1"/>
        <pt x="187" y="655" on="0"/>
        <pt x="155" y="622" on="0"/>
        <pt x="155" y="587" on="1"/>
        <pt x="155" y="475" on="1"/>
        <pt x="248" y="475" on="1"/>
        <pt x="248" y="421" on="1"/>
        <pt x="155" y="421" on="1"/>
        <pt x="155" y="0" on="1"/>
        <pt x="92" y="0" on="1"/>
        <pt x="92" y="421" on="1"/>
        <pt x="24" y="421" on="1"/>
        <pt x="24" y="475" on="1"/>
        <pt x="92" y="475" on="1"/>
        <pt x="92" y="592" on="1"/>
        <pt x="92" y="655" on="0"/>
        <pt x="159" y="713" on="0"/>
        <pt x="214" y="713" on="1"/>
        <pt x="224" y="713" on="0"/>
        <pt x="241" y="711" on="0"/>
        <pt x="248" y="710" on="1"/>
      </contour>
    </TTGlyph>
    <TTGlyph name="f_f" xMin="24" yMin="0" xMax="527" yMax="713">
      <component glyphName="f" x="0" y="0" flags="0x4"/>
      <component glyphName="f" x="269" y="0" flags="0x4"/>
    </TTGlyph>
    <TTGlyph name="f_f.flat" xMin="24" yMin="0" xMax="525" yMax="713">
      <component glyphName="f.flat" x="0" y="0" flags="0x4"/>
      <component glyphName="f.flat" x="267" y="0" flags="0x4"/>
    </TTGlyph>
    <TTGlyph name="f_f_i" xMin="24" yMin="0" xMax="688" yMax="713">
      <component glyphName="f" x="0" y="0" flags="0x4"/>
      <component glyphName="f" x="269" y="0" flags="0x4"/>
      <component glyphName="i" x="537" y="0" flags="0x4"/>
    </TTGlyph>
    <TTGlyph name="f_f_i.flat" xMin="24" yMin="0" xMax="685" yMax="713">
      <component glyphName="f.flat" x="0" y="0" flags="0x4"/>
      <component glyphName="f.flat" x="267" y="0" flags="0x4"/>
      <component glyphName="i" x="534" y="0" flags="0x4"/>
    </TTGlyph>
    <TTGlyph name="f_f_l" xMin="24" yMin="0" xMax="674" yMax="718">
      <component glyphName="f" x="0" y="0" flags="0x4"/>
      <component glyphName="f" x="269" y="0" flags="0x4"/>
      <component glyphName="l" x="537" y="0" flags="0x4"/>
    </TTGlyph>
    <TTGlyph name="f_f_l.flat" xMin="24" yMin="0" xMax="671" yMax="718">
      <component glyphName="f.flat" x="0" y="0" flags="0x4"/>
      <component glyphName="f.flat" x="267" y="0" flags="0x4"/>
      <component glyphName="l" x="534" y="0" flags="0x4"/>
    </TTGlyph>
    <TTGlyph name="fi" xMin="24" yMin="0" xMax="420" yMax="713">
      <component glyphName="f" x="0" y="0" flags="0x4"/>
      <component glyphName="i" x="269" y="0" flags="0x4"/>
    </TTGlyph>
    <TTGlyph name="fi.flat" xMin="24" yMin="0" xMax="418" yMax="713">
      <component glyphName="f.flat" x="0" y="0" flags="0x4"/>
      <component glyphName="i" x="267" y="0" flags="0x4"/>
    </TTGlyph>
    <TTGlyph name="five" xMin="41" yMin="-11" xMax="428" yMax="683">
      <contour>
        <pt x="428" y="209" on="1"/>
        <pt x="428" y="157" on="0"/>
        <pt x="393" y="74" on="0"/>
        <pt x="332" y="19" on="0"/>
        <pt x="252" y="-11" on="0"/>
        <pt x="207" y="-11" on="1"/>
        <pt x="155" y="-11" on="0"/>
        <pt x="74" y="15" on="0"/>
        <pt x="41" y="35" on="1"/>
        <pt x="51" y="99" on="1"/>
        <pt x="87" y="75" on="0"/>
        <pt x="163" y="47" on="0"/>
        <pt x="208" y="47" on="1"/>
        <pt x="270" y="47" on="0"/>
        <pt x="362" y="129" on="0"/>
        <pt x="362" y="207" on="1"/>
        <pt x="362" y="275" on="0"/>
        <pt x="287" y="352" on="0"/>
        <pt x="224" y="352" on="1"/>
        <pt x="190" y="352" on="0"/>
        <pt x="137" y="336" on="0"/>
        <pt x="114" y="326" on="1"/>
        <pt x="69" y="337" on="1"/>
        <pt x="93" y="683" on="1"/>
        <pt x="397" y="683" on="1"/>
        <pt x="406" y="624" on="1"/>
        <pt x="148" y="624" on="1"/>
        <pt x="131" y="391" on="1"/>
        <pt x="153" y="398" on="0"/>
        <pt x="201" y="410" on="0"/>
        <pt x="233" y="410" on="1"/>
        <pt x="318" y="410" on="0"/>
        <pt x="428" y="304" on="0"/>
      </contour>
    </TTGlyph>
    <TTGlyph name="five.den" xMin="43" yMin="-8" xMax="282" yMax="349">
      <component glyphName="five.num" x="0" y="-334" flags="0x4"/>
    </TTGlyph>
    <TTGlyph name="five.den_flat" xMin="43" yMin="-8" xMax="282" yMax="349">
      <component glyphName="five.num_flat" x="0" y="-334" flags="0x4"/>
    </TTGlyph>
    <TTGlyph name="five.flat" xMin="41" yMin="-11" xMax="428" yMax="683">
      <contour>
        <pt x="428" y="209" on="1"/>
        <pt x="428" y="157" on="0"/>
        <pt x="393" y="74" on="0"/>
        <pt x="332" y="19" on="0"/>
        <pt x="252" y="-11" on="0"/>
        <pt x="207" y="-11" on="1"/>
        <pt x="155" y="-11" on="0"/>
        <pt x="74" y="15" on="0"/>
        <pt x="41" y="35" on="1"/>
        <pt x="51" y="99" on="1"/>
        <pt x="87" y="75" on="0"/>
        <pt x="163" y="47" on="0"/>
        <pt x="208" y="47" on="1"/>
        <pt x="270" y="47" on="0"/>
        <pt x="362" y="129" on="0"/>
        <pt x="362" y="207" on="1"/>
        <pt x="362" y="275" on="0"/>
        <pt x="287" y="352" on="0"/>
        <pt x="224" y="352" on="1"/>
        <pt x="190" y="352" on="0"/>
        <pt x="137" y="336" on="0"/>
        <pt x="114" y="326" on="1"/>
        <pt x="69" y="337" on="1"/>
        <pt x="93" y="683" on="1"/>
        <pt x="401" y="683" on="1"/>
        <pt x="401" y="624" on="1"/>
        <pt x="148" y="624" on="1"/>
        <pt x="131" y="391" on="1"/>
        <pt x="153" y="398" on="0"/>
        <pt x="201" y="410" on="0"/>
        <pt x="233" y="410" on="1"/>
        <pt x="318" y="410" on="0"/>
        <pt x="428" y="304" on="0"/>
      </contour>
    </TTGlyph>
    <TTGlyph name="five.inf" xMin="43" yMin="-158" xMax="282" yMax="199">
      <component glyphName="five.num" x="0" y="-484" flags="0x4"/>
    </TTGlyph>
    <TTGlyph name="five.inf_flat" xMin="43" yMin="-158" xMax="282" yMax="199">
      <component glyphName="five.num_flat" x="0" y="-484" flags="0x4"/>
    </TTGlyph>
    <TTGlyph name="five.num" xMin="43" yMin="326" xMax="282" yMax="683">
      <contour>
        <pt x="282" y="443" on="1"/>
        <pt x="282" y="388" on="0"/>
        <pt x="204" y="326" on="0"/>
        <pt x="147" y="326" on="1"/>
        <pt x="116" y="326" on="0"/>
        <pt x="65" y="339" on="0"/>
        <pt x="43" y="349" on="1"/>
        <pt x="51" y="395" on="1"/>
        <pt x="73" y="384" on="0"/>
        <pt x="120" y="370" on="0"/>
        <pt x="145" y="370" on="1"/>
        <pt x="179" y="370" on="0"/>
        <pt x="228" y="404" on="0"/>
        <pt x="228" y="439" on="1"/>
        <pt x="228" y="472" on="0"/>
        <pt x="187" y="503" on="0"/>
        <pt x="156" y="503" on="1"/>
        <pt x="137" y="503" on="0"/>
        <pt x="105" y="494" on="0"/>
        <pt x="93" y="488" on="1"/>
        <pt x="58" y="496" on="1"/>
        <pt x="73" y="683" on="1"/>
        <pt x="262" y="683" on="1"/>
        <pt x="270" y="636" on="1"/>
        <pt x="115" y="636" on="1"/>
        <pt x="107" y="534" on="1"/>
        <pt x="117" y="538" on="0"/>
        <pt x="148" y="546" on="0"/>
        <pt x="169" y="546" on="1"/>
        <pt x="218" y="546" on="0"/>
        <pt x="282" y="492" on="0"/>
      </contour>
    </TTGlyph>
    <TTGlyph name="five.num_flat" xMin="43" yMin="326" xMax="282" yMax="683">
      <contour>
        <pt x="282" y="443" on="1"/>
        <pt x="282" y="388" on="0"/>
        <pt x="204" y="326" on="0"/>
        <pt x="147" y="326" on="1"/>
        <pt x="116" y="326" on="0"/>
        <pt x="65" y="339" on="0"/>
        <pt x="43" y="349" on="1"/>
        <pt x="51" y="395" on="1"/>
        <pt x="73" y="384" on="0"/>
        <pt x="120" y="370" on="0"/>
        <pt x="145" y="370" on="1"/>
        <pt x="179" y="370" on="0"/>
        <pt x="228" y="404" on="0"/>
        <pt x="228" y="439" on="1"/>
        <pt x="228" y="472" on="0"/>
        <pt x="187" y="503" on="0"/>
        <pt x="156" y="503" on="1"/>
        <pt x="137" y="503" on="0"/>
        <pt x="105" y="494" on="0"/>
        <pt x="93" y="488" on="1"/>
        <pt x="58" y="496" on="1"/>
        <pt x="73" y="683" on="1"/>
        <pt x="266" y="683" on="1"/>
        <pt x="266" y="636" on="1"/>
        <pt x="115" y="636" on="1"/>
        <pt x="107" y="534" on="1"/>
        <pt x="117" y="538" on="0"/>
        <pt x="148" y="546" on="0"/>
        <pt x="169" y="546" on="1"/>
        <pt x="218" y="546" on="0"/>
        <pt x="282" y="492" on="0"/>
      </contour>
    </TTGlyph>
    <TTGlyph name="five.sup" xMin="43" yMin="419" xMax="282" yMax="776">
      <component glyphName="five.num" x="0" y="93" flags="0x4"/>
    </TTGlyph>
    <TTGlyph name="five.sup_flat" xMin="43" yMin="419" xMax="282" yMax="776">
      <component glyphName="five.num_flat" x="0" y="93" flags="0x4"/>
    </TTGlyph>
    <TTGlyph name="five.tab" xMin="47" yMin="-9" xMax="439" yMax="683">
      <contour>
        <pt x="439" y="211" on="1"/>
        <pt x="439" y="160" on="0"/>
        <pt x="405" y="78" on="0"/>
        <pt x="345" y="21" on="0"/>
        <pt x="262" y="-9" on="0"/>
        <pt x="215" y="-9" on="1"/>
        <pt x="164" y="-9" on="0"/>
        <pt x="78" y="18" on="0"/>
        <pt x="47" y="38" on="1"/>
        <pt x="58" y="101" on="1"/>
        <pt x="93" y="77" on="0"/>
        <pt x="171" y="49" on="0"/>
        <pt x="217" y="49" on="1"/>
        <pt x="249" y="49" on="0"/>
        <pt x="306" y="70" on="0"/>
        <pt x="349" y="110" on="0"/>
        <pt x="374" y="170" on="0"/>
        <pt x="374" y="209" on="1"/>
        <pt x="374" y="274" on="0"/>
        <pt x="301" y="351" on="0"/>
        <pt x="233" y="351" on="1"/>
        <pt x="201" y="351" on="0"/>
        <pt x="143" y="336" on="0"/>
        <pt x="116" y="324" on="1"/>
        <pt x="75" y="334" on="1"/>
        <pt x="100" y="683" on="1"/>
        <pt x="408" y="683" on="1"/>
        <pt x="416" y="624" on="1"/>
        <pt x="156" y="624" on="1"/>
        <pt x="138" y="390" on="1"/>
        <pt x="159" y="398" on="0"/>
        <pt x="211" y="410" on="0"/>
        <pt x="239" y="410" on="1"/>
        <pt x="334" y="410" on="0"/>
        <pt x="439" y="301" on="0"/>
      </contour>
    </TTGlyph>
    <TTGlyph name="five.tab_flat" xMin="47" yMin="-9" xMax="439" yMax="683">
      <contour>
        <pt x="439" y="211" on="1"/>
        <pt x="439" y="160" on="0"/>
        <pt x="405" y="78" on="0"/>
        <pt x="345" y="21" on="0"/>
        <pt x="262" y="-9" on="0"/>
        <pt x="215" y="-9" on="1"/>
        <pt x="164" y="-9" on="0"/>
        <pt x="78" y="18" on="0"/>
        <pt x="47" y="38" on="1"/>
        <pt x="58" y="101" on="1"/>
        <pt x="93" y="77" on="0"/>
        <pt x="171" y="49" on="0"/>
        <pt x="217" y="49" on="1"/>
        <pt x="249" y="49" on="0"/>
        <pt x="306" y="70" on="0"/>
        <pt x="349" y="110" on="0"/>
        <pt x="374" y="170" on="0"/>
        <pt x="374" y="209" on="1"/>
        <pt x="374" y="274" on="0"/>
        <pt x="301" y="351" on="0"/>
        <pt x="233" y="351" on="1"/>
        <pt x="201" y="351" on="0"/>
        <pt x="143" y="336" on="0"/>
        <pt x="116" y="324" on="1"/>
        <pt x="75" y="334" on="1"/>
        <pt x="100" y="683" on="1"/>
        <pt x="412" y="683" on="1"/>
        <pt x="412" y="624" on="1"/>
        <pt x="156" y="624" on="1"/>
        <pt x="138" y="390" on="1"/>
        <pt x="159" y="398" on="0"/>
        <pt x="211" y="410" on="0"/>
        <pt x="239" y="410" on="1"/>
        <pt x="334" y="410" on="0"/>
        <pt x="439" y="301" on="0"/>
      </contour>
    </TTGlyph>
    <TTGlyph name="fiveeighths" xMin="44" yMin="-10" xMax="689" yMax="692">
      <component glyphName="eight.num" x="403" y="-334" flags="0x4"/>
      <component glyphName="fraction" x="243" y="0" flags="0x4"/>
      <component glyphName="five.num" x="1" y="0" flags="0x4"/>
    </TTGlyph>
    <TTGlyph name="fiveeighths.flat" xMin="44" yMin="-10" xMax="689" yMax="692">
      <component glyphName="eight.num" x="403" y="-334" flags="0x4"/>
      <component glyphName="fraction" x="243" y="0" flags="0x4"/>
      <component glyphName="five.num_flat" x="1" y="0" flags="0x4"/>
    </TTGlyph>
    <TTGlyph name="fivesixths" xMin="44" yMin="-10" xMax="687" yMax="692">
      <component glyphName="six.num" x="397" y="-334" flags="0x4"/>
      <component glyphName="fraction" x="250" y="0" flags="0x4"/>
      <component glyphName="five.num" x="1" y="0" flags="0x4"/>
    </TTGlyph>
    <TTGlyph name="fivesixths.flat" xMin="44" yMin="-10" xMax="687" yMax="692">
      <component glyphName="six.num" x="397" y="-334" flags="0x4"/>
      <component glyphName="fraction" x="250" y="0" flags="0x4"/>
      <component glyphName="five.num_flat" x="1" y="0" flags="0x4"/>
    </TTGlyph>
    <TTGlyph name="fl" xMin="24" yMin="0" xMax="406" yMax="718">
      <component glyphName="f" x="0" y="0" flags="0x4"/>
      <component glyphName="l" x="269" y="0" flags="0x4"/>
    </TTGlyph>
    <TTGlyph name="fl.flat" xMin="24" yMin="0" xMax="404" yMax="718">
      <component glyphName="f.flat" x="0" y="0" flags="0x4"/>
      <component glyphName="l" x="267" y="0" flags="0x4"/>
    </TTGlyph>
    <TTGlyph name="florin" xMin="61" yMin="0" xMax="343" yMax="691">
      <contour>
        <pt x="301" y="402" on="1"/>
        <pt x="193" y="402" on="1"/>
        <pt x="129" y="0" on="1"/>
        <pt x="67" y="0" on="1"/>
        <pt x="131" y="402" on="1"/>
        <pt x="61" y="402" on="1"/>
        <pt x="70" y="457" on="1"/>
        <pt x="140" y="457" on="1"/>
        <pt x="156" y="563" on="1"/>
        <pt x="167" y="629" on="0"/>
        <pt x="236" y="691" on="0"/>
        <pt x="297" y="691" on="1"/>
        <pt x="312" y="691" on="0"/>
        <pt x="335" y="688" on="0"/>
        <pt x="343" y="687" on="1"/>
        <pt x="343" y="628" on="1"/>
        <pt x="334" y="630" on="0"/>
        <pt x="311" y="633" on="0"/>
        <pt x="298" y="633" on="1"/>
        <pt x="261" y="633" on="0"/>
        <pt x="225" y="594" on="0"/>
        <pt x="218" y="554" on="1"/>
        <pt x="203" y="457" on="1"/>
        <pt x="301" y="457" on="1"/>
      </contour>
    </TTGlyph>
    <TTGlyph name="four" xMin="31" yMin="0" xMax="493" yMax="686">
      <contour>
        <pt x="335" y="0" on="1"/>
        <pt x="335" y="163" on="1"/>
        <pt x="31" y="163" on="1"/>
        <pt x="31" y="208" on="1"/>
        <pt x="318" y="686" on="1"/>
        <pt x="395" y="686" on="1"/>
        <pt x="395" y="217" on="1"/>
        <pt x="493" y="217" on="1"/>
        <pt x="493" y="163" on="1"/>
        <pt x="395" y="163" on="1"/>
        <pt x="395" y="0" on="1"/>
      </contour>
      <contour>
        <pt x="335" y="217" on="1"/>
        <pt x="335" y="608" on="1"/>
        <pt x="101" y="217" on="1"/>
      </contour>
    </TTGlyph>
    <TTGlyph name="four.alt" xMin="31" yMin="0" xMax="492" yMax="688">
      <contour>
        <pt x="333" y="0" on="1"/>
        <pt x="333" y="162" on="1"/>
        <pt x="31" y="162" on="1"/>
        <pt x="31" y="207" on="1"/>
        <pt x="316" y="688" on="1"/>
        <pt x="379" y="674" on="1"/>
        <pt x="105" y="217" on="1"/>
        <pt x="333" y="217" on="1"/>
        <pt x="333" y="407" on="1"/>
        <pt x="394" y="421" on="1"/>
        <pt x="394" y="217" on="1"/>
        <pt x="492" y="217" on="1"/>
        <pt x="492" y="162" on="1"/>
        <pt x="394" y="162" on="1"/>
        <pt x="394" y="0" on="1"/>
      </contour>
    </TTGlyph>
    <TTGlyph name="four.alt_flat" xMin="31" yMin="0" xMax="492" yMax="683">
      <contour>
        <pt x="333" y="0" on="1"/>
        <pt x="333" y="162" on="1"/>
        <pt x="31" y="162" on="1"/>
        <pt x="31" y="207" on="1"/>
        <pt x="313" y="683" on="1"/>
        <pt x="384" y="683" on="1"/>
        <pt x="105" y="217" on="1"/>
        <pt x="333" y="217" on="1"/>
        <pt x="333" y="414" on="1"/>
        <pt x="394" y="414" on="1"/>
        <pt x="394" y="217" on="1"/>
        <pt x="492" y="217" on="1"/>
        <pt x="492" y="162" on="1"/>
        <pt x="394" y="162" on="1"/>
        <pt x="394" y="0" on="1"/>
      </contour>
    </TTGlyph>
    <TTGlyph name="four.den" xMin="28" yMin="-3" xMax="296" yMax="353">
      <component glyphName="four.num" x="0" y="-334" flags="0x4"/>
    </TTGlyph>
    <TTGlyph name="four.inf" xMin="28" yMin="-153" xMax="296" yMax="203">
      <component glyphName="four.num" x="0" y="-484" flags="0x4"/>
    </TTGlyph>
    <TTGlyph name="four.num" xMin="28" yMin="331" xMax="296" yMax="687">
      <contour>
        <pt x="296" y="410" on="1"/>
        <pt x="245" y="410" on="1"/>
        <pt x="245" y="331" on="1"/>
        <pt x="198" y="331" on="1"/>
        <pt x="198" y="410" on="1"/>
        <pt x="28" y="410" on="1"/>
        <pt x="28" y="447" on="1"/>
        <pt x="176" y="687" on="1"/>
        <pt x="245" y="687" on="1"/>
        <pt x="245" y="450" on="1"/>
        <pt x="296" y="450" on="1"/>
      </contour>
      <contour>
        <pt x="198" y="450" on="1"/>
        <pt x="198" y="557" on="1"/>
        <pt x="200" y="645" on="1"/>
        <pt x="194" y="645" on="1"/>
        <pt x="156" y="577" on="1"/>
        <pt x="108" y="499" on="1"/>
        <pt x="79" y="452" on="1"/>
        <pt x="80" y="448" on="1"/>
        <pt x="126" y="450" on="1"/>
      </contour>
    </TTGlyph>
    <TTGlyph name="four.sup" xMin="28" yMin="424" xMax="296" yMax="780">
      <component glyphName="four.num" x="0" y="93" flags="0x4"/>
    </TTGlyph>
    <TTGlyph name="four.tab" xMin="26" yMin="0" xMax="461" yMax="687">
      <contour>
        <pt x="461" y="163" on="1"/>
        <pt x="373" y="163" on="1"/>
        <pt x="373" y="0" on="1"/>
        <pt x="313" y="0" on="1"/>
        <pt x="313" y="163" on="1"/>
        <pt x="26" y="163" on="1"/>
        <pt x="26" y="207" on="1"/>
        <pt x="294" y="687" on="1"/>
        <pt x="373" y="687" on="1"/>
        <pt x="373" y="217" on="1"/>
        <pt x="461" y="217" on="1"/>
      </contour>
      <contour>
        <pt x="313" y="217" on="1"/>
        <pt x="313" y="474" on="1"/>
        <pt x="314" y="613" on="1"/>
        <pt x="312" y="613" on="1"/>
        <pt x="244" y="485" on="1"/>
        <pt x="93" y="217" on="1"/>
      </contour>
    </TTGlyph>
    <TTGlyph name="fourfifths" xMin="29" yMin="-9" xMax="685" yMax="692">
      <component glyphName="four.num" x="1" y="0" flags="0x4"/>
      <component glyphName="five.num" x="403" y="-334" flags="0x4"/>
      <component glyphName="fraction" x="251" y="0" flags="0x4"/>
    </TTGlyph>
    <TTGlyph name="fourfifths.flat" xMin="29" yMin="-9" xMax="685" yMax="692">
      <component glyphName="four.num" x="1" y="0" flags="0x4"/>
      <component glyphName="five.num_flat" x="403" y="-334" flags="0x4"/>
      <component glyphName="fraction" x="251" y="0" flags="0x4"/>
    </TTGlyph>
    <TTGlyph name="fraction" xMin="-84" yMin="-9" xMax="327" yMax="692">
      <contour>
        <pt x="-38" y="-9" on="1"/>
        <pt x="-84" y="4" on="1"/>
        <pt x="103" y="348" on="1"/>
        <pt x="281" y="692" on="1"/>
        <pt x="327" y="679" on="1"/>
        <pt x="139" y="334" on="1"/>
      </contour>
    </TTGlyph>
    <TTGlyph name="g" xMin="13" yMin="-182" xMax="436" yMax="485">
      <contour>
        <pt x="307" y="323" on="1"/>
        <pt x="307" y="369" on="0"/>
        <pt x="252" y="434" on="0"/>
        <pt x="206" y="434" on="1"/>
        <pt x="159" y="434" on="0"/>
        <pt x="106" y="369" on="0"/>
        <pt x="106" y="322" on="1"/>
        <pt x="106" y="276" on="0"/>
        <pt x="160" y="210" on="0"/>
        <pt x="206" y="210" on="1"/>
        <pt x="253" y="210" on="0"/>
        <pt x="307" y="276" on="0"/>
      </contour>
      <contour>
        <pt x="420" y="-40" on="1"/>
        <pt x="420" y="-72" on="0"/>
        <pt x="387" y="-125" on="0"/>
        <pt x="330" y="-162" on="0"/>
        <pt x="253" y="-182" on="0"/>
        <pt x="210" y="-182" on="1"/>
        <pt x="169" y="-182" on="0"/>
        <pt x="97" y="-166" on="0"/>
        <pt x="44" y="-135" on="0"/>
        <pt x="13" y="-89" on="0"/>
        <pt x="13" y="-59" on="1"/>
        <pt x="13" y="-22" on="0"/>
        <pt x="69" y="42" on="0"/>
        <pt x="119" y="67" on="1"/>
        <pt x="99" y="78" on="0"/>
        <pt x="81" y="103" on="0"/>
        <pt x="81" y="119" on="1"/>
        <pt x="81" y="135" on="0"/>
        <pt x="103" y="165" on="0"/>
        <pt x="124" y="181" on="1"/>
        <pt x="87" y="201" on="0"/>
        <pt x="43" y="275" on="0"/>
        <pt x="43" y="323" on="1"/>
        <pt x="43" y="359" on="0"/>
        <pt x="69" y="419" on="0"/>
        <pt x="113" y="462" on="0"/>
        <pt x="173" y="485" on="0"/>
        <pt x="206" y="485" on="1"/>
        <pt x="237" y="485" on="0"/>
        <pt x="294" y="464" on="0"/>
        <pt x="316" y="445" on="1"/>
        <pt x="425" y="483" on="1"/>
        <pt x="436" y="418" on="1"/>
        <pt x="347" y="408" on="1"/>
        <pt x="358" y="390" on="0"/>
        <pt x="370" y="347" on="0"/>
        <pt x="370" y="323" on="1"/>
        <pt x="370" y="286" on="0"/>
        <pt x="344" y="226" on="0"/>
        <pt x="300" y="184" on="0"/>
        <pt x="240" y="161" on="0"/>
        <pt x="207" y="161" on="1"/>
        <pt x="197" y="161" on="0"/>
        <pt x="179" y="163" on="0"/>
        <pt x="170" y="165" on="1"/>
        <pt x="157" y="156" on="0"/>
        <pt x="144" y="139" on="0"/>
        <pt x="144" y="131" on="1"/>
        <pt x="144" y="118" on="0"/>
        <pt x="182" y="101" on="0"/>
        <pt x="241" y="89" on="1"/>
        <pt x="258" y="85" on="1"/>
        <pt x="343" y="68" on="0"/>
        <pt x="420" y="12" on="0"/>
      </contour>
      <contour>
        <pt x="214" y="-132" on="1"/>
        <pt x="280" y="-132" on="0"/>
        <pt x="358" y="-81" on="0"/>
        <pt x="358" y="-47" on="1"/>
        <pt x="358" y="-19" on="0"/>
        <pt x="310" y="16" on="0"/>
        <pt x="244" y="30" on="1"/>
        <pt x="222" y="34" on="1"/>
        <pt x="206" y="38" on="0"/>
        <pt x="181" y="43" on="0"/>
        <pt x="168" y="46" on="1"/>
        <pt x="124" y="25" on="0"/>
        <pt x="76" y="-24" on="0"/>
        <pt x="76" y="-54" on="1"/>
        <pt x="76" y="-89" on="0"/>
        <pt x="151" y="-132" on="0"/>
      </contour>
    </TTGlyph>
</ttFont>
